%TF.GenerationSoftware,KiCad,Pcbnew,7.0.9*%
%TF.CreationDate,2024-01-09T23:37:42+08:00*%
%TF.ProjectId,UINIO-Storage,55494e49-4f2d-4537-946f-726167652e6b,Version 1.0.0*%
%TF.SameCoordinates,PX75dd570PY4f4ebc0*%
%TF.FileFunction,Profile,NP*%
%FSLAX46Y46*%
G04 Gerber Fmt 4.6, Leading zero omitted, Abs format (unit mm)*
G04 Created by KiCad (PCBNEW 7.0.9) date 2024-01-09 23:37:42*
%MOMM*%
%LPD*%
G01*
G04 APERTURE LIST*
%TA.AperFunction,Profile*%
%ADD10C,0.100000*%
%TD*%
G04 APERTURE END LIST*
D10*
X43240000Y-23350000D02*
G75*
G03*
X41240000Y-25350000I0J-2000000D01*
G01*
X7680000Y-28580000D02*
X14760000Y-28580000D01*
X16760000Y-38605000D02*
X21790000Y-38605000D01*
X41240000Y-40050000D02*
X41240000Y-25350000D01*
X52740000Y-18710000D02*
X56020000Y-18710000D01*
X-2012000Y-21677000D02*
G75*
G03*
X-12000Y-23677000I2000000J0D01*
G01*
X35970000Y-2003000D02*
G75*
G03*
X33970000Y-3000I-2000000J0D01*
G01*
X16760000Y-30580000D02*
X16760000Y-32075000D01*
X56020000Y-42050000D02*
X43240000Y-42050000D01*
X33970000Y-23677000D02*
X28770000Y-23680000D01*
X21790000Y-40050000D02*
X21790000Y-38605000D01*
X41240000Y-40050000D02*
G75*
G03*
X43240000Y-42050000I2000000J0D01*
G01*
X41240000Y-16710000D02*
G75*
G03*
X43240000Y-18710000I2000000J0D01*
G01*
X23790000Y-28580000D02*
X30955000Y-28580000D01*
X43240000Y-23350000D02*
X46210000Y-23350000D01*
X43240000Y-18710000D02*
X46210000Y-18710000D01*
X40560000Y-30580000D02*
G75*
G03*
X38560000Y-28580000I-2000000J0D01*
G01*
X21790000Y-40050000D02*
G75*
G03*
X23790000Y-42050000I2000000J0D01*
G01*
X-12000Y-3000D02*
X33970000Y-3000D01*
X52740000Y-18710000D02*
X52740000Y-23350000D01*
X-10000Y-28580000D02*
X1900000Y-28580000D01*
X35970000Y-21677000D02*
X35970000Y-10130000D01*
X58020000Y-2010000D02*
X58020000Y-16710000D01*
X21790000Y-30580000D02*
X21790000Y-32075000D01*
X-10000Y-28580000D02*
G75*
G03*
X-2010000Y-30580000I0J-2000000D01*
G01*
X1900000Y-23680000D02*
X1900000Y-28580000D01*
X58020000Y-2010000D02*
G75*
G03*
X56020000Y-10000I-2000000J0D01*
G01*
X-2010000Y-40050000D02*
G75*
G03*
X-10000Y-42050000I2000000J0D01*
G01*
X23790000Y-28580000D02*
G75*
G03*
X21790000Y-30580000I0J-2000000D01*
G01*
X41240000Y-2010000D02*
X41240000Y-4350000D01*
X58020000Y-25350000D02*
G75*
G03*
X56020000Y-23350000I-2000000J0D01*
G01*
X28770000Y-23680000D02*
X7680000Y-23680000D01*
X-2012000Y-21677000D02*
X-2012000Y-2003000D01*
X56020000Y-42050000D02*
G75*
G03*
X58020000Y-40050000I0J2000000D01*
G01*
X14760000Y-42050000D02*
X-10000Y-42050000D01*
X16760000Y-30580000D02*
G75*
G03*
X14760000Y-28580000I-2000000J0D01*
G01*
X43240000Y-10000D02*
G75*
G03*
X41240000Y-2010000I0J-2000000D01*
G01*
X-2010000Y-40050000D02*
X-2010000Y-30580000D01*
X16760000Y-32075000D02*
X21790000Y-32075000D01*
X33970000Y-23677000D02*
G75*
G03*
X35970000Y-21677000I0J2000000D01*
G01*
X-12000Y-3000D02*
G75*
G03*
X-2012000Y-2003000I0J-2000000D01*
G01*
X52740000Y-23350000D02*
X56020000Y-23350000D01*
X46210000Y-18710000D02*
X46210000Y-23350000D01*
X30955000Y-28580000D02*
X38560000Y-28580000D01*
X16760000Y-40050000D02*
X16760000Y-38605000D01*
X43240000Y-10000D02*
X56020000Y-10000D01*
X38560000Y-42050000D02*
X23790000Y-42050000D01*
X38560000Y-42050000D02*
G75*
G03*
X40560000Y-40050000I0J2000000D01*
G01*
X35970000Y-10130000D02*
X41240000Y-10130000D01*
X1900000Y-23680000D02*
X-12000Y-23677000D01*
X56020000Y-18710000D02*
G75*
G03*
X58020000Y-16710000I0J2000000D01*
G01*
X14760000Y-42050000D02*
G75*
G03*
X16760000Y-40050000I0J2000000D01*
G01*
X41240000Y-10130000D02*
X41240000Y-16710000D01*
X58020000Y-25350000D02*
X58020000Y-40050000D01*
X35970000Y-4350000D02*
X35970000Y-2003000D01*
X7680000Y-23680000D02*
X7680000Y-28580000D01*
X40560000Y-30580000D02*
X40560000Y-40050000D01*
X35970000Y-4350000D02*
X41240000Y-4350000D01*
M02*
