M48
; DRILL file {KiCad 7.0.9} date Sun Jan  7 22:37:57 2024
; FORMAT={-:-/ absolute / metric / decimal}
; #@! TF.CreationDate,2024-01-07T22:37:57+08:00
; #@! TF.GenerationSoftware,Kicad,Pcbnew,7.0.9
; #@! TF.FileFunction,MixedPlating,1,2
FMAT,2
METRIC
; #@! TA.AperFunction,Plated,PTH,ViaDrill
T1C0.300
; #@! TA.AperFunction,Plated,PTH,ViaDrill
T2C0.400
; #@! TA.AperFunction,Plated,PTH,ComponentDrill
T3C1.000
; #@! TA.AperFunction,Plated,PTH,ComponentDrill
T4C1.200
; #@! TA.AperFunction,Plated,PTH,ComponentDrill
T5C2.200
; #@! TA.AperFunction,NonPlated,NPTH,ComponentDrill
T6C1.000
%
G90
G05
T1
X1.782Y-29.827
X4.922Y-5.347
X4.922Y-7.581
X4.922Y-9.815
X4.922Y-12.049
X4.922Y-14.283
X4.922Y-16.517
X6.122Y-5.337
X8.332Y-7.747
X8.332Y-9.907
X8.332Y-12.067
X8.332Y-14.217
X8.332Y-16.377
X8.332Y-18.537
X8.952Y-30.747
X8.952Y-34.517
X8.952Y-35.967
X8.962Y-39.157
X12.382Y-6.657
X25.517Y-29.947
X28.067Y-34.047
X28.067Y-36.567
X30.057Y-36.567
X30.057Y-38.247
X34.097Y-32.537
X34.097Y-34.517
X34.097Y-37.437
X46.732Y-2.117
X46.732Y-5.534
X46.732Y-8.952
X46.732Y-11.987
X48.872Y-31.047
X52.752Y-37.457
X53.752Y-26.197
T2
X13.532Y-7.747
X13.532Y-12.897
T3
X-0.548Y-2.962
X-0.548Y-5.502
X-0.548Y-8.042
X-0.548Y-10.582
X-0.548Y-13.122
X-0.548Y-15.662
X-0.548Y-18.202
X-0.548Y-20.742
X-0.538Y-31.512
X-0.538Y-34.052
X-0.538Y-36.592
X-0.538Y-39.132
X23.257Y-31.512
X23.257Y-34.052
X23.257Y-36.592
X23.257Y-39.132
X42.702Y-3.007
X42.702Y-5.547
X42.702Y-8.087
X42.702Y-10.627
X42.702Y-13.167
X42.702Y-15.707
X42.702Y-26.347
X42.702Y-28.887
X42.702Y-31.427
X42.702Y-33.967
X42.702Y-36.507
X42.702Y-39.047
T4
X4.282Y-29.903
X4.282Y-40.723
X5.708Y-1.837
X5.708Y-21.837
X19.065Y-1.837
X19.065Y-21.837
X28.082Y-29.903
X28.082Y-40.723
X32.422Y-1.837
X32.422Y-21.837
X49.212Y-1.825
X49.212Y-16.885
X49.212Y-25.165
X49.212Y-40.225
T5
X4.802Y-26.132
X19.287Y-35.337
X38.617Y-7.237
X49.487Y-21.027
T6
X26.232Y-8.783
X26.232Y-16.783
T0
M30
