%TF.GenerationSoftware,KiCad,Pcbnew,7.0.10*%
%TF.CreationDate,2024-02-01T11:48:47+08:00*%
%TF.ProjectId,UINIO-Storage,55494e49-4f2d-4537-946f-726167652e6b,Version 1.0.0*%
%TF.SameCoordinates,PX75dd570PY4f4ebc0*%
%TF.FileFunction,Soldermask,Bot*%
%TF.FilePolarity,Negative*%
%FSLAX46Y46*%
G04 Gerber Fmt 4.6, Leading zero omitted, Abs format (unit mm)*
G04 Created by KiCad (PCBNEW 7.0.10) date 2024-02-01 11:48:47*
%MOMM*%
%LPD*%
G01*
G04 APERTURE LIST*
%ADD10R,1.700000X1.700000*%
%ADD11O,1.700000X1.700000*%
%ADD12C,1.200000*%
%ADD13C,2.200000*%
%ADD14C,1.000000*%
G04 APERTURE END LIST*
D10*
%TO.C,J1*%
X-550000Y-31515000D03*
D11*
X-550000Y-34055000D03*
X-550000Y-36595000D03*
X-550000Y-39135000D03*
%TD*%
D12*
%TO.C,HOLE\u002A\u002A*%
X32410000Y-1840000D03*
%TD*%
D13*
%TO.C,HOLE\u002A\u002A*%
X38605000Y-7240000D03*
%TD*%
%TO.C,HOLE\u002A\u002A*%
X18855000Y-35450000D03*
%TD*%
D10*
%TO.C,J2*%
X22390000Y-31515000D03*
D11*
X22390000Y-34055000D03*
X22390000Y-36595000D03*
X22390000Y-39135000D03*
%TD*%
D12*
%TO.C,HOLE\u002A\u002A*%
X49200000Y-25168000D03*
%TD*%
D10*
%TO.C,J3*%
X42690000Y-15710000D03*
D11*
X42690000Y-13170000D03*
X42690000Y-10630000D03*
X42690000Y-8090000D03*
X42690000Y-5550000D03*
X42690000Y-3010000D03*
%TD*%
D14*
%TO.C,Card1*%
X26220000Y-16786000D03*
X26220000Y-8786000D03*
%TD*%
D12*
%TO.C,HOLE\u002A\u002A*%
X32410000Y-21840000D03*
%TD*%
%TO.C,HOLE\u002A\u002A*%
X5696000Y-1840000D03*
%TD*%
%TO.C,HOLE\u002A\u002A*%
X49200000Y-1828000D03*
%TD*%
%TO.C,HOLE\u002A\u002A*%
X4270000Y-29905786D03*
%TD*%
%TO.C,HOLE\u002A\u002A*%
X4270000Y-40725786D03*
%TD*%
%TO.C,HOLE\u002A\u002A*%
X27215000Y-40725786D03*
%TD*%
%TO.C,HOLE\u002A\u002A*%
X49200000Y-16888000D03*
%TD*%
%TO.C,HOLE\u002A\u002A*%
X27215000Y-29905786D03*
%TD*%
%TO.C,HOLE\u002A\u002A*%
X19053000Y-21840000D03*
%TD*%
%TO.C,HOLE\u002A\u002A*%
X49200000Y-40228000D03*
%TD*%
%TO.C,HOLE\u002A\u002A*%
X5696000Y-21840000D03*
%TD*%
D13*
%TO.C,HOLE\u002A\u002A*%
X4790000Y-26135000D03*
%TD*%
D10*
%TO.C,J5*%
X42690000Y-26350000D03*
D11*
X42690000Y-28890000D03*
X42690000Y-31430000D03*
X42690000Y-33970000D03*
X42690000Y-36510000D03*
X42690000Y-39050000D03*
%TD*%
D12*
%TO.C,HOLE\u002A\u002A*%
X19053000Y-1840000D03*
%TD*%
D10*
%TO.C,J4*%
X-560000Y-2965000D03*
D11*
X-560000Y-5505000D03*
X-560000Y-8045000D03*
X-560000Y-10585000D03*
X-560000Y-13125000D03*
X-560000Y-15665000D03*
X-560000Y-18205000D03*
X-560000Y-20745000D03*
%TD*%
D13*
%TO.C,HOLE\u002A\u002A*%
X49660000Y-21030000D03*
%TD*%
M02*
