M48
; DRILL file {KiCad 7.0.9} date Tue Jan  9 23:37:46 2024
; FORMAT={-:-/ absolute / metric / decimal}
; #@! TF.CreationDate,2024-01-09T23:37:46+08:00
; #@! TF.GenerationSoftware,Kicad,Pcbnew,7.0.9
; #@! TF.FileFunction,MixedPlating,1,2
FMAT,2
METRIC
; #@! TA.AperFunction,Plated,PTH,ViaDrill
T1C0.300
; #@! TA.AperFunction,Plated,PTH,ViaDrill
T2C0.400
; #@! TA.AperFunction,Plated,PTH,ComponentDrill
T3C1.000
; #@! TA.AperFunction,Plated,PTH,ComponentDrill
T4C1.200
; #@! TA.AperFunction,Plated,PTH,ComponentDrill
T5C2.200
; #@! TA.AperFunction,NonPlated,NPTH,ComponentDrill
T6C1.000
%
G90
G05
T1
X1.77Y-29.83
X4.91Y-5.35
X4.91Y-7.584
X4.91Y-9.818
X4.91Y-12.052
X4.91Y-14.286
X4.91Y-16.52
X6.11Y-5.34
X8.32Y-7.75
X8.32Y-9.91
X8.32Y-12.07
X8.32Y-14.22
X8.32Y-16.38
X8.32Y-18.54
X8.94Y-30.75
X8.94Y-34.52
X8.94Y-35.97
X8.95Y-39.16
X12.37Y-6.66
X25.505Y-29.95
X28.055Y-34.05
X28.055Y-36.57
X30.045Y-36.57
X30.045Y-38.25
X34.085Y-32.54
X34.085Y-34.52
X34.085Y-37.44
X46.72Y-2.12
X46.72Y-5.537
X46.72Y-8.955
X46.72Y-11.99
X48.86Y-31.05
X52.74Y-37.46
X53.74Y-26.2
T2
X13.52Y-7.75
X13.52Y-12.9
T3
X-0.56Y-2.965
X-0.56Y-5.505
X-0.56Y-8.045
X-0.56Y-10.585
X-0.56Y-13.125
X-0.56Y-15.665
X-0.56Y-18.205
X-0.56Y-20.745
X-0.55Y-31.515
X-0.55Y-34.055
X-0.55Y-36.595
X-0.55Y-39.135
X23.245Y-31.515
X23.245Y-34.055
X23.245Y-36.595
X23.245Y-39.135
X42.69Y-3.01
X42.69Y-5.55
X42.69Y-8.09
X42.69Y-10.63
X42.69Y-13.17
X42.69Y-15.71
X42.69Y-26.35
X42.69Y-28.89
X42.69Y-31.43
X42.69Y-33.97
X42.69Y-36.51
X42.69Y-39.05
T4
X4.27Y-29.906
X4.27Y-40.726
X5.696Y-1.84
X5.696Y-21.84
X19.053Y-1.84
X19.053Y-21.84
X28.07Y-29.906
X28.07Y-40.726
X32.41Y-1.84
X32.41Y-21.84
X49.2Y-1.828
X49.2Y-16.888
X49.2Y-25.168
X49.2Y-40.228
T5
X4.79Y-26.135
X19.275Y-35.34
X38.605Y-7.24
X49.475Y-21.03
T6
X26.22Y-8.786
X26.22Y-16.786
T0
M30
