%TF.GenerationSoftware,KiCad,Pcbnew,7.0.11*%
%TF.CreationDate,2024-03-09T22:48:20+08:00*%
%TF.ProjectId,UINIO-Storage,55494e49-4f2d-4537-946f-726167652e6b,Version 1.0.0*%
%TF.SameCoordinates,PX75dd570PY4f4ebc0*%
%TF.FileFunction,Soldermask,Top*%
%TF.FilePolarity,Negative*%
%FSLAX46Y46*%
G04 Gerber Fmt 4.6, Leading zero omitted, Abs format (unit mm)*
G04 Created by KiCad (PCBNEW 7.0.11) date 2024-03-09 22:48:20*
%MOMM*%
%LPD*%
G01*
G04 APERTURE LIST*
G04 Aperture macros list*
%AMRoundRect*
0 Rectangle with rounded corners*
0 $1 Rounding radius*
0 $2 $3 $4 $5 $6 $7 $8 $9 X,Y pos of 4 corners*
0 Add a 4 corners polygon primitive as box body*
4,1,4,$2,$3,$4,$5,$6,$7,$8,$9,$2,$3,0*
0 Add four circle primitives for the rounded corners*
1,1,$1+$1,$2,$3*
1,1,$1+$1,$4,$5*
1,1,$1+$1,$6,$7*
1,1,$1+$1,$8,$9*
0 Add four rect primitives between the rounded corners*
20,1,$1+$1,$2,$3,$4,$5,0*
20,1,$1+$1,$4,$5,$6,$7,0*
20,1,$1+$1,$6,$7,$8,$9,0*
20,1,$1+$1,$8,$9,$2,$3,0*%
G04 Aperture macros list end*
%ADD10RoundRect,0.135000X0.135000X0.185000X-0.135000X0.185000X-0.135000X-0.185000X0.135000X-0.185000X0*%
%ADD11RoundRect,0.140000X-0.140000X-0.170000X0.140000X-0.170000X0.140000X0.170000X-0.140000X0.170000X0*%
%ADD12R,1.700000X1.700000*%
%ADD13O,1.700000X1.700000*%
%ADD14RoundRect,0.218750X0.218750X0.256250X-0.218750X0.256250X-0.218750X-0.256250X0.218750X-0.256250X0*%
%ADD15C,1.200000*%
%ADD16RoundRect,0.200000X-0.200000X-0.275000X0.200000X-0.275000X0.200000X0.275000X-0.200000X0.275000X0*%
%ADD17RoundRect,0.218750X-0.218750X-0.256250X0.218750X-0.256250X0.218750X0.256250X-0.218750X0.256250X0*%
%ADD18RoundRect,0.100000X0.100000X-0.637500X0.100000X0.637500X-0.100000X0.637500X-0.100000X-0.637500X0*%
%ADD19C,2.200000*%
%ADD20R,1.000000X0.600000*%
%ADD21RoundRect,0.150000X0.150000X-0.825000X0.150000X0.825000X-0.150000X0.825000X-0.150000X-0.825000X0*%
%ADD22C,1.000000*%
%ADD23R,1.600000X0.700000*%
%ADD24R,1.500000X1.200000*%
%ADD25R,2.200000X1.200000*%
%ADD26R,1.500000X1.600000*%
%ADD27RoundRect,0.225000X0.250000X-0.225000X0.250000X0.225000X-0.250000X0.225000X-0.250000X-0.225000X0*%
%ADD28RoundRect,0.150000X0.150000X-0.650000X0.150000X0.650000X-0.150000X0.650000X-0.150000X-0.650000X0*%
%ADD29RoundRect,0.135000X-0.135000X-0.185000X0.135000X-0.185000X0.135000X0.185000X-0.135000X0.185000X0*%
%ADD30RoundRect,0.140000X0.140000X0.170000X-0.140000X0.170000X-0.140000X-0.170000X0.140000X-0.170000X0*%
%ADD31RoundRect,0.125000X0.125000X-0.250000X0.125000X0.250000X-0.125000X0.250000X-0.125000X-0.250000X0*%
%ADD32R,4.300000X3.400000*%
%ADD33RoundRect,0.225000X-0.250000X0.225000X-0.250000X-0.225000X0.250000X-0.225000X0.250000X0.225000X0*%
G04 APERTURE END LIST*
D10*
%TO.C,R7*%
X7680000Y-32515786D03*
X6660000Y-32515786D03*
%TD*%
D11*
%TO.C,C1*%
X51330000Y-3690000D03*
X52290000Y-3690000D03*
%TD*%
D12*
%TO.C,J1*%
X-550000Y-31515000D03*
D13*
X-550000Y-34055000D03*
X-550000Y-36595000D03*
X-550000Y-39135000D03*
%TD*%
D14*
%TO.C,D5*%
X53437500Y-28693000D03*
X51862500Y-28693000D03*
%TD*%
D15*
%TO.C,HOLE\u002A\u002A*%
X32410000Y-1840000D03*
%TD*%
D16*
%TO.C,R10*%
X9350000Y-12066666D03*
X11000000Y-12066666D03*
%TD*%
D17*
%TO.C,D4*%
X9387500Y-20740000D03*
X10962500Y-20740000D03*
%TD*%
D18*
%TO.C,U2*%
X35200000Y-38923786D03*
X35850000Y-38923786D03*
X36500000Y-38923786D03*
X37150000Y-38923786D03*
X37150000Y-33198786D03*
X36500000Y-33198786D03*
X35850000Y-33198786D03*
X35200000Y-33198786D03*
%TD*%
D19*
%TO.C,HOLE\u002A\u002A*%
X38605000Y-7240000D03*
%TD*%
%TO.C,HOLE\u002A\u002A*%
X18855000Y-35450000D03*
%TD*%
D20*
%TO.C,U4*%
X9440000Y-3640000D03*
X9440000Y-4590000D03*
X9440000Y-5540000D03*
X12040000Y-5540000D03*
X12040000Y-3640000D03*
%TD*%
D12*
%TO.C,J2*%
X22390000Y-31515000D03*
D13*
X22390000Y-34055000D03*
X22390000Y-36595000D03*
X22390000Y-39135000D03*
%TD*%
D14*
%TO.C,D2*%
X7367500Y-34525786D03*
X5792500Y-34525786D03*
%TD*%
D10*
%TO.C,R2*%
X7680000Y-36535786D03*
X6660000Y-36535786D03*
%TD*%
D15*
%TO.C,HOLE\u002A\u002A*%
X49200000Y-25168000D03*
%TD*%
D12*
%TO.C,J3*%
X42690000Y-15710000D03*
D13*
X42690000Y-13170000D03*
X42690000Y-10630000D03*
X42690000Y-8090000D03*
X42690000Y-5550000D03*
X42690000Y-3010000D03*
%TD*%
D21*
%TO.C,U1*%
X10475000Y-38490786D03*
X11745000Y-38490786D03*
X13015000Y-38490786D03*
X14285000Y-38490786D03*
X14285000Y-33540786D03*
X13015000Y-33540786D03*
X11745000Y-33540786D03*
X10475000Y-33540786D03*
%TD*%
D22*
%TO.C,Card1*%
X26220000Y-16786000D03*
X26220000Y-8786000D03*
D23*
X15220000Y-9595000D03*
X15220000Y-10695000D03*
X15220000Y-11794000D03*
X15220000Y-12895000D03*
X15220000Y-13994000D03*
X15220000Y-15095000D03*
X15220000Y-16194000D03*
X15220000Y-17294000D03*
X15220000Y-18394000D03*
D24*
X16220000Y-19594000D03*
D25*
X25820000Y-19586000D03*
X25820000Y-4086000D03*
D26*
X16220000Y-4986000D03*
%TD*%
D11*
%TO.C,C4*%
X52730000Y-38310000D03*
X53690000Y-38310000D03*
%TD*%
D27*
%TO.C,C5*%
X7970000Y-5251000D03*
X7970000Y-3701000D03*
%TD*%
D10*
%TO.C,R1*%
X7680000Y-38245786D03*
X6660000Y-38245786D03*
%TD*%
D16*
%TO.C,R9*%
X9350000Y-9908333D03*
X11000000Y-9908333D03*
%TD*%
D28*
%TO.C,U3*%
X50070000Y-12950000D03*
X51340000Y-12950000D03*
X52610000Y-12950000D03*
X53880000Y-12950000D03*
X53880000Y-5750000D03*
X52610000Y-5750000D03*
X51340000Y-5750000D03*
X50070000Y-5750000D03*
%TD*%
D15*
%TO.C,HOLE\u002A\u002A*%
X32410000Y-21840000D03*
%TD*%
%TO.C,HOLE\u002A\u002A*%
X5696000Y-1840000D03*
%TD*%
D16*
%TO.C,R12*%
X9350000Y-18541665D03*
X11000000Y-18541665D03*
%TD*%
D29*
%TO.C,R13*%
X52730000Y-26910000D03*
X53750000Y-26910000D03*
%TD*%
D15*
%TO.C,HOLE\u002A\u002A*%
X49200000Y-1828000D03*
%TD*%
%TO.C,HOLE\u002A\u002A*%
X4270000Y-29905786D03*
%TD*%
%TO.C,HOLE\u002A\u002A*%
X4270000Y-40725786D03*
%TD*%
%TO.C,HOLE\u002A\u002A*%
X27215000Y-40725786D03*
%TD*%
D14*
%TO.C,D3*%
X31445000Y-34530000D03*
X29870000Y-34530000D03*
%TD*%
D15*
%TO.C,HOLE\u002A\u002A*%
X49200000Y-16888000D03*
%TD*%
D10*
%TO.C,R5*%
X51330000Y-14940000D03*
X50310000Y-14940000D03*
%TD*%
D16*
%TO.C,R8*%
X9350000Y-7750000D03*
X11000000Y-7750000D03*
%TD*%
D15*
%TO.C,HOLE\u002A\u002A*%
X27215000Y-29905786D03*
%TD*%
%TO.C,HOLE\u002A\u002A*%
X19053000Y-21840000D03*
%TD*%
D16*
%TO.C,R11*%
X9350000Y-14224999D03*
X11000000Y-14224999D03*
%TD*%
D15*
%TO.C,HOLE\u002A\u002A*%
X49200000Y-40228000D03*
%TD*%
%TO.C,HOLE\u002A\u002A*%
X5696000Y-21840000D03*
%TD*%
D19*
%TO.C,HOLE\u002A\u002A*%
X4790000Y-26135000D03*
%TD*%
D14*
%TO.C,D1*%
X54017500Y-15090000D03*
X52442500Y-15090000D03*
%TD*%
D30*
%TO.C,C3*%
X36190000Y-31648000D03*
X35230000Y-31648000D03*
%TD*%
D10*
%TO.C,R3*%
X31757500Y-38250000D03*
X30737500Y-38250000D03*
%TD*%
D29*
%TO.C,R4*%
X30737500Y-36540000D03*
X31757500Y-36540000D03*
%TD*%
D31*
%TO.C,U5*%
X50190000Y-36621000D03*
X51460000Y-36621000D03*
X52730000Y-36621000D03*
X54000000Y-36621000D03*
X54000000Y-31221000D03*
X52730000Y-31221000D03*
X51460000Y-31221000D03*
X50190000Y-31221000D03*
D32*
X52095000Y-33921000D03*
%TD*%
D30*
%TO.C,C2*%
X11450000Y-31755786D03*
X10490000Y-31755786D03*
%TD*%
D16*
%TO.C,R14*%
X9350000Y-16383332D03*
X11000000Y-16383332D03*
%TD*%
D12*
%TO.C,J5*%
X42690000Y-26350000D03*
D13*
X42690000Y-28890000D03*
X42690000Y-31430000D03*
X42690000Y-33970000D03*
X42690000Y-36510000D03*
X42690000Y-39050000D03*
%TD*%
D10*
%TO.C,R6*%
X31757500Y-32520000D03*
X30737500Y-32520000D03*
%TD*%
D33*
%TO.C,C6*%
X13510000Y-3701000D03*
X13510000Y-5251000D03*
%TD*%
D15*
%TO.C,HOLE\u002A\u002A*%
X19053000Y-1840000D03*
%TD*%
D12*
%TO.C,J4*%
X-560000Y-2965000D03*
D13*
X-560000Y-5505000D03*
X-560000Y-8045000D03*
X-560000Y-10585000D03*
X-560000Y-13125000D03*
X-560000Y-15665000D03*
X-560000Y-18205000D03*
X-560000Y-20745000D03*
%TD*%
D19*
%TO.C,HOLE\u002A\u002A*%
X49660000Y-21030000D03*
%TD*%
M02*
