%TF.GenerationSoftware,KiCad,Pcbnew,7.0.10*%
%TF.CreationDate,2024-02-01T11:48:46+08:00*%
%TF.ProjectId,UINIO-Storage,55494e49-4f2d-4537-946f-726167652e6b,Version 1.0.0*%
%TF.SameCoordinates,PX75dd570PY4f4ebc0*%
%TF.FileFunction,Copper,L2,Bot*%
%TF.FilePolarity,Positive*%
%FSLAX46Y46*%
G04 Gerber Fmt 4.6, Leading zero omitted, Abs format (unit mm)*
G04 Created by KiCad (PCBNEW 7.0.10) date 2024-02-01 11:48:46*
%MOMM*%
%LPD*%
G01*
G04 APERTURE LIST*
%TA.AperFunction,ComponentPad*%
%ADD10R,1.700000X1.700000*%
%TD*%
%TA.AperFunction,ComponentPad*%
%ADD11O,1.700000X1.700000*%
%TD*%
%TA.AperFunction,ComponentPad*%
%ADD12C,1.200000*%
%TD*%
%TA.AperFunction,ComponentPad*%
%ADD13C,2.200000*%
%TD*%
%TA.AperFunction,ViaPad*%
%ADD14C,0.500000*%
%TD*%
%TA.AperFunction,ViaPad*%
%ADD15C,0.700000*%
%TD*%
%TA.AperFunction,ViaPad*%
%ADD16C,0.900000*%
%TD*%
%TA.AperFunction,Conductor*%
%ADD17C,0.300000*%
%TD*%
%TA.AperFunction,Conductor*%
%ADD18C,0.500000*%
%TD*%
%TA.AperFunction,Conductor*%
%ADD19C,0.400000*%
%TD*%
G04 APERTURE END LIST*
D10*
%TO.P,J1,1,Pin_1*%
%TO.N,/EEPROM-SOIC8-3.3V*%
X-550000Y-31515000D03*
D11*
%TO.P,J1,2,Pin_2*%
%TO.N,/EEPROM-SOIC8-SCL*%
X-550000Y-34055000D03*
%TO.P,J1,3,Pin_3*%
%TO.N,/EEPROM-SOIC8-SDA*%
X-550000Y-36595000D03*
%TO.P,J1,4,Pin_4*%
%TO.N,/EEPROM-SOIC8-GND*%
X-550000Y-39135000D03*
%TD*%
D12*
%TO.P,HOLE\u002A\u002A,*%
%TO.N,*%
X32410000Y-1840000D03*
%TD*%
D13*
%TO.P,HOLE\u002A\u002A,*%
%TO.N,*%
X38605000Y-7240000D03*
%TD*%
%TO.P,HOLE\u002A\u002A,*%
%TO.N,*%
X18855000Y-35450000D03*
%TD*%
D10*
%TO.P,J2,1,Pin_1*%
%TO.N,/EEPROM-TSSOP8-3.3V*%
X22390000Y-31515000D03*
D11*
%TO.P,J2,2,Pin_2*%
%TO.N,/EEPROM-TSSOP8-SCL*%
X22390000Y-34055000D03*
%TO.P,J2,3,Pin_3*%
%TO.N,/EEPROM-TSSOP8-SDA*%
X22390000Y-36595000D03*
%TO.P,J2,4,Pin_4*%
%TO.N,/EEPROM-TSSOP8-GND*%
X22390000Y-39135000D03*
%TD*%
D12*
%TO.P,HOLE\u002A\u002A,*%
%TO.N,*%
X49200000Y-25168000D03*
%TD*%
D10*
%TO.P,J3,1,Pin_1*%
%TO.N,/Flash-SOIC8-GND*%
X42690000Y-15710000D03*
D11*
%TO.P,J3,2,Pin_2*%
%TO.N,/Flash-SOIC8-CS*%
X42690000Y-13170000D03*
%TO.P,J3,3,Pin_3*%
%TO.N,/Flash-SOIC8-MISO*%
X42690000Y-10630000D03*
%TO.P,J3,4,Pin_4*%
%TO.N,/Flash-SOIC8-MOSI*%
X42690000Y-8090000D03*
%TO.P,J3,5,Pin_5*%
%TO.N,/Flash-SOIC8-CLK*%
X42690000Y-5550000D03*
%TO.P,J3,6,Pin_6*%
%TO.N,/Flash-SOIC8-3.3V*%
X42690000Y-3010000D03*
%TD*%
D12*
%TO.P,HOLE\u002A\u002A,*%
%TO.N,*%
X32410000Y-21840000D03*
%TD*%
%TO.P,HOLE\u002A\u002A,*%
%TO.N,*%
X5696000Y-1840000D03*
%TD*%
%TO.P,HOLE\u002A\u002A,*%
%TO.N,*%
X49200000Y-1828000D03*
%TD*%
%TO.P,HOLE\u002A\u002A,*%
%TO.N,*%
X4270000Y-29905786D03*
%TD*%
%TO.P,HOLE\u002A\u002A,*%
%TO.N,*%
X4270000Y-40725786D03*
%TD*%
%TO.P,HOLE\u002A\u002A,*%
%TO.N,*%
X27215000Y-40725786D03*
%TD*%
%TO.P,HOLE\u002A\u002A,*%
%TO.N,*%
X49200000Y-16888000D03*
%TD*%
%TO.P,HOLE\u002A\u002A,*%
%TO.N,*%
X27215000Y-29905786D03*
%TD*%
%TO.P,HOLE\u002A\u002A,*%
%TO.N,*%
X19053000Y-21840000D03*
%TD*%
%TO.P,HOLE\u002A\u002A,*%
%TO.N,*%
X49200000Y-40228000D03*
%TD*%
%TO.P,HOLE\u002A\u002A,*%
%TO.N,*%
X5696000Y-21840000D03*
%TD*%
D13*
%TO.P,HOLE\u002A\u002A,*%
%TO.N,*%
X4790000Y-26135000D03*
%TD*%
D10*
%TO.P,J5,1,Pin_1*%
%TO.N,/Flash-WSON8-GND*%
X42690000Y-26350000D03*
D11*
%TO.P,J5,2,Pin_2*%
%TO.N,/Flash-WSON8-MOSI*%
X42690000Y-28890000D03*
%TO.P,J5,3,Pin_3*%
%TO.N,/Flash-WSON8-CLK*%
X42690000Y-31430000D03*
%TO.P,J5,4,Pin_4*%
%TO.N,/Flash-WSON8-CS*%
X42690000Y-33970000D03*
%TO.P,J5,5,Pin_5*%
%TO.N,/Flash-WSON8-MISO*%
X42690000Y-36510000D03*
%TO.P,J5,6,Pin_6*%
%TO.N,/Flash-WSON8-3.3V*%
X42690000Y-39050000D03*
%TD*%
D12*
%TO.P,HOLE\u002A\u002A,*%
%TO.N,*%
X19053000Y-1840000D03*
%TD*%
D10*
%TO.P,J4,1,Pin_1*%
%TO.N,/SPI{slash}SDIO-5V*%
X-560000Y-2965000D03*
D11*
%TO.P,J4,2,Pin_2*%
%TO.N,/SDIO-2*%
X-560000Y-5505000D03*
%TO.P,J4,3,Pin_3*%
%TO.N,/SPI-CS{slash}SDIO-3*%
X-560000Y-8045000D03*
%TO.P,J4,4,Pin_4*%
%TO.N,/SPI-MOSI{slash}SDIO-CMD*%
X-560000Y-10585000D03*
%TO.P,J4,5,Pin_5*%
%TO.N,/SPI{slash}SDIO-SCLK*%
X-560000Y-13125000D03*
%TO.P,J4,6,Pin_6*%
%TO.N,/SPI-MISO{slash}SDIO-0*%
X-560000Y-15665000D03*
%TO.P,J4,7,Pin_7*%
%TO.N,/SDIO1*%
X-560000Y-18205000D03*
%TO.P,J4,8,Pin_8*%
%TO.N,/SPI{slash}SDIO-GND*%
X-560000Y-20745000D03*
%TD*%
D13*
%TO.P,HOLE\u002A\u002A,*%
%TO.N,*%
X49660000Y-21030000D03*
%TD*%
D14*
%TO.N,/Flash-SOIC8-GND*%
X46720000Y-5537500D03*
X46720000Y-8955000D03*
X46720000Y-11990000D03*
X46720000Y-2120000D03*
%TO.N,/EEPROM-SOIC8-GND*%
X1770000Y-29830000D03*
D15*
X8940000Y-30750000D03*
X8940000Y-34520000D03*
%TO.N,/EEPROM-SOIC8-3.3V*%
X8950000Y-39160000D03*
X8940000Y-35970000D03*
D14*
%TO.N,/EEPROM-TSSOP8-GND*%
X27200000Y-36570000D03*
X24650000Y-29950000D03*
X27200000Y-34050000D03*
D15*
X33230000Y-37440000D03*
X33230000Y-34520000D03*
%TO.N,/EEPROM-TSSOP8-3.3V*%
X33230000Y-32540000D03*
X29190000Y-36570000D03*
X29190000Y-38250000D03*
%TO.N,/SPI{slash}SDIO-GND*%
X6110000Y-5340000D03*
D14*
X4910000Y-7584000D03*
X4910000Y-16520000D03*
X4910000Y-9818000D03*
X4910000Y-12052000D03*
D15*
X4910000Y-5350000D03*
D14*
X12370000Y-6660000D03*
X4910000Y-14286000D03*
D15*
%TO.N,/Flash-WSON8-3.3V*%
X48860000Y-31050000D03*
X52740000Y-37460000D03*
X53740000Y-26200000D03*
D16*
%TO.N,/SPI{slash}SDIO-3.3V*%
X13520000Y-7750000D03*
D15*
X8320000Y-16380000D03*
D16*
X13520000Y-12900000D03*
D15*
X8320000Y-14220000D03*
X8320000Y-7750000D03*
X8320000Y-12070000D03*
X8320000Y-18540000D03*
X8320000Y-9910000D03*
%TD*%
D17*
%TO.N,/EEPROM-SOIC8-GND*%
X8940000Y-34520000D02*
X8940000Y-30750000D01*
%TO.N,/EEPROM-SOIC8-3.3V*%
X8940000Y-39150000D02*
X8950000Y-39160000D01*
X8940000Y-35970000D02*
X8940000Y-39150000D01*
%TO.N,/EEPROM-TSSOP8-GND*%
X33230000Y-37440000D02*
X33230000Y-34520000D01*
%TO.N,/EEPROM-TSSOP8-3.3V*%
X33230000Y-32540000D02*
X29200000Y-36570000D01*
X29200000Y-36570000D02*
X29190000Y-36570000D01*
X29190000Y-36570000D02*
X29190000Y-38250000D01*
%TO.N,/Flash-WSON8-3.3V*%
X52730000Y-34860000D02*
X52730000Y-37510000D01*
X48920000Y-31050000D02*
X52730000Y-34860000D01*
X48860000Y-31050000D02*
X48890000Y-31050000D01*
X48860000Y-31050000D02*
X48920000Y-31050000D01*
X48890000Y-31050000D02*
X53740000Y-26200000D01*
D18*
%TO.N,/SPI{slash}SDIO-3.3V*%
X13520000Y-7750000D02*
X13520000Y-12900000D01*
X13520000Y-7750000D02*
X8320000Y-7750000D01*
D19*
X8320000Y-7750000D02*
X8320000Y-18540000D01*
%TD*%
%TA.AperFunction,Conductor*%
%TO.N,/EEPROM-TSSOP8-GND*%
G36*
X26507962Y-28850185D02*
G01*
X26553717Y-28902989D01*
X26563661Y-28972147D01*
X26534636Y-29035703D01*
X26524467Y-29046131D01*
X26506536Y-29062478D01*
X26499652Y-29068308D01*
X26452116Y-29105690D01*
X26452114Y-29105692D01*
X26430507Y-29130628D01*
X26420337Y-29141057D01*
X26398239Y-29161202D01*
X26361577Y-29209750D01*
X26356338Y-29216222D01*
X26314483Y-29264526D01*
X26299702Y-29290127D01*
X26291274Y-29302846D01*
X26275326Y-29323966D01*
X26246688Y-29381477D01*
X26243077Y-29388201D01*
X26209397Y-29446538D01*
X26209395Y-29446543D01*
X26200854Y-29471221D01*
X26194678Y-29485929D01*
X26184416Y-29506540D01*
X26184416Y-29506541D01*
X26165896Y-29571626D01*
X26163812Y-29578242D01*
X26140656Y-29645151D01*
X26140655Y-29645155D01*
X26137427Y-29667602D01*
X26133958Y-29683880D01*
X26128603Y-29702702D01*
X26128603Y-29702703D01*
X26122041Y-29773512D01*
X26121308Y-29779715D01*
X26110746Y-29853182D01*
X26110745Y-29853187D01*
X26111660Y-29872402D01*
X26111272Y-29889730D01*
X26109785Y-29905788D01*
X26109785Y-29905789D01*
X26116661Y-29980000D01*
X26117049Y-29985538D01*
X26120745Y-30063114D01*
X26120746Y-30063116D01*
X26124468Y-30078461D01*
X26127433Y-30096244D01*
X26128603Y-30108869D01*
X26146368Y-30171309D01*
X26149945Y-30183880D01*
X26151182Y-30188578D01*
X26170292Y-30267352D01*
X26170297Y-30267365D01*
X26175421Y-30278585D01*
X26181891Y-30296155D01*
X26184418Y-30305037D01*
X26193040Y-30322352D01*
X26220727Y-30377956D01*
X26222496Y-30381663D01*
X26257605Y-30458542D01*
X26262753Y-30465770D01*
X26272748Y-30482429D01*
X26275327Y-30487607D01*
X26326494Y-30555363D01*
X26328475Y-30558063D01*
X26379514Y-30629738D01*
X26383443Y-30633484D01*
X26396822Y-30648493D01*
X26398236Y-30650365D01*
X26463541Y-30709897D01*
X26465504Y-30711729D01*
X26498578Y-30743264D01*
X26531623Y-30774773D01*
X26533285Y-30775841D01*
X26544352Y-30784345D01*
X26544380Y-30784309D01*
X26548951Y-30787760D01*
X26548959Y-30787767D01*
X26611495Y-30826487D01*
X26626946Y-30836054D01*
X26628709Y-30837166D01*
X26708429Y-30888400D01*
X26713684Y-30891109D01*
X26713647Y-30891180D01*
X26717064Y-30892906D01*
X26717229Y-30892577D01*
X26722354Y-30895128D01*
X26722363Y-30895134D01*
X26722371Y-30895137D01*
X26811091Y-30929508D01*
X26812352Y-30930003D01*
X26903543Y-30966511D01*
X26903545Y-30966511D01*
X26903547Y-30966512D01*
X26905532Y-30967095D01*
X26911585Y-30968536D01*
X26912526Y-30968803D01*
X26912544Y-30968810D01*
X27009595Y-30986951D01*
X27010010Y-30987030D01*
X27109915Y-31006286D01*
X27316976Y-31006286D01*
X27363258Y-30997633D01*
X27374236Y-30996086D01*
X27424218Y-30991314D01*
X27465791Y-30979106D01*
X27477908Y-30976201D01*
X27517456Y-30968810D01*
X27564588Y-30950550D01*
X27574405Y-30947214D01*
X27625875Y-30932102D01*
X27661329Y-30913823D01*
X27673332Y-30908423D01*
X27707637Y-30895134D01*
X27753509Y-30866729D01*
X27761955Y-30861946D01*
X27812682Y-30835797D01*
X27841337Y-30813260D01*
X27852695Y-30805317D01*
X27881041Y-30787767D01*
X27923466Y-30749090D01*
X27930326Y-30743278D01*
X27977886Y-30705878D01*
X27999496Y-30680936D01*
X28009657Y-30670516D01*
X28031764Y-30650365D01*
X28068429Y-30601810D01*
X28073650Y-30595358D01*
X28115519Y-30547042D01*
X28130299Y-30521439D01*
X28138724Y-30508724D01*
X28154673Y-30487607D01*
X28183333Y-30430046D01*
X28186911Y-30423384D01*
X28220604Y-30365030D01*
X28229146Y-30340349D01*
X28235323Y-30325637D01*
X28245582Y-30305036D01*
X28264110Y-30239913D01*
X28266186Y-30233328D01*
X28289344Y-30166419D01*
X28292570Y-30143972D01*
X28296039Y-30127697D01*
X28301397Y-30108869D01*
X28307958Y-30038045D01*
X28308685Y-30031886D01*
X28319254Y-29958388D01*
X28318339Y-29939185D01*
X28318727Y-29921838D01*
X28320215Y-29905786D01*
X28313336Y-29831559D01*
X28312948Y-29826026D01*
X28309254Y-29748455D01*
X28305534Y-29733124D01*
X28302565Y-29715317D01*
X28301397Y-29702703D01*
X28280054Y-29627691D01*
X28278823Y-29623019D01*
X28266355Y-29571626D01*
X28259704Y-29544210D01*
X28254579Y-29532988D01*
X28248107Y-29515413D01*
X28245582Y-29506536D01*
X28215708Y-29446542D01*
X28209298Y-29433668D01*
X28207504Y-29429908D01*
X28185386Y-29381477D01*
X28172396Y-29353033D01*
X28167243Y-29345797D01*
X28157249Y-29329139D01*
X28154673Y-29323965D01*
X28154671Y-29323963D01*
X28154670Y-29323960D01*
X28109455Y-29264087D01*
X28103534Y-29256247D01*
X28101488Y-29253457D01*
X28050486Y-29181834D01*
X28046552Y-29178083D01*
X28033175Y-29163075D01*
X28031765Y-29161208D01*
X28031764Y-29161207D01*
X27966461Y-29101676D01*
X27964487Y-29099835D01*
X27912827Y-29050577D01*
X27906183Y-29044242D01*
X27871249Y-28983733D01*
X27874574Y-28913943D01*
X27915103Y-28857029D01*
X27979968Y-28831061D01*
X27991754Y-28830500D01*
X30075326Y-28830500D01*
X37660830Y-28830500D01*
X37700572Y-28830500D01*
X37709418Y-28830816D01*
X37945140Y-28847674D01*
X37962641Y-28850191D01*
X38189229Y-28899482D01*
X38206188Y-28904461D01*
X38321316Y-28947402D01*
X38423462Y-28985501D01*
X38439555Y-28992851D01*
X38643068Y-29103977D01*
X38657951Y-29113542D01*
X38843579Y-29252501D01*
X38856950Y-29264087D01*
X39020912Y-29428049D01*
X39032498Y-29441420D01*
X39171457Y-29627048D01*
X39181022Y-29641931D01*
X39292148Y-29845444D01*
X39299498Y-29861537D01*
X39380535Y-30078803D01*
X39385519Y-30095779D01*
X39434807Y-30322352D01*
X39437325Y-30339864D01*
X39454184Y-30575581D01*
X39454500Y-30584427D01*
X39454500Y-40045572D01*
X39454184Y-40054418D01*
X39437325Y-40290135D01*
X39434807Y-40307647D01*
X39385519Y-40534220D01*
X39380535Y-40551196D01*
X39299498Y-40768462D01*
X39292148Y-40784555D01*
X39181022Y-40988068D01*
X39171457Y-41002951D01*
X39032498Y-41188579D01*
X39020912Y-41201950D01*
X38856950Y-41365912D01*
X38843579Y-41377498D01*
X38657951Y-41516457D01*
X38643068Y-41526022D01*
X38439555Y-41637148D01*
X38423462Y-41644498D01*
X38206196Y-41725535D01*
X38189220Y-41730519D01*
X37962647Y-41779807D01*
X37945135Y-41782325D01*
X37709418Y-41799184D01*
X37700572Y-41799500D01*
X27990800Y-41799500D01*
X27923761Y-41779815D01*
X27878006Y-41727011D01*
X27868062Y-41657853D01*
X27897087Y-41594297D01*
X27907252Y-41583871D01*
X27923476Y-41569081D01*
X27930326Y-41563278D01*
X27977886Y-41525878D01*
X27999496Y-41500936D01*
X28009657Y-41490516D01*
X28031764Y-41470365D01*
X28068429Y-41421810D01*
X28073650Y-41415358D01*
X28115519Y-41367042D01*
X28130299Y-41341439D01*
X28138724Y-41328724D01*
X28154673Y-41307607D01*
X28183333Y-41250046D01*
X28186911Y-41243384D01*
X28220604Y-41185030D01*
X28229146Y-41160349D01*
X28235323Y-41145637D01*
X28245582Y-41125036D01*
X28264110Y-41059913D01*
X28266186Y-41053328D01*
X28289344Y-40986419D01*
X28292570Y-40963972D01*
X28296039Y-40947697D01*
X28301397Y-40928869D01*
X28307958Y-40858045D01*
X28308685Y-40851886D01*
X28319254Y-40778388D01*
X28318339Y-40759185D01*
X28318727Y-40741838D01*
X28320215Y-40725786D01*
X28313336Y-40651559D01*
X28312948Y-40646026D01*
X28309254Y-40568455D01*
X28305534Y-40553124D01*
X28302565Y-40535317D01*
X28301397Y-40522703D01*
X28280054Y-40447691D01*
X28278823Y-40443019D01*
X28259704Y-40364210D01*
X28254579Y-40352988D01*
X28248107Y-40335413D01*
X28245582Y-40326536D01*
X28215708Y-40266542D01*
X28209298Y-40253668D01*
X28207504Y-40249908D01*
X28178377Y-40186130D01*
X28172396Y-40173033D01*
X28167243Y-40165797D01*
X28157249Y-40149139D01*
X28154673Y-40143965D01*
X28154671Y-40143963D01*
X28154670Y-40143960D01*
X28103542Y-40076257D01*
X28101488Y-40073457D01*
X28090886Y-40058569D01*
X28050486Y-40001834D01*
X28046550Y-39998081D01*
X28033175Y-39983075D01*
X28031765Y-39981208D01*
X28031764Y-39981207D01*
X27966461Y-39921676D01*
X27964490Y-39919838D01*
X27898378Y-39856800D01*
X27896708Y-39855726D01*
X27885647Y-39847227D01*
X27885621Y-39847263D01*
X27881048Y-39843810D01*
X27881042Y-39843806D01*
X27881041Y-39843805D01*
X27803044Y-39795511D01*
X27801290Y-39794405D01*
X27783439Y-39782933D01*
X27721572Y-39743173D01*
X27721569Y-39743172D01*
X27721568Y-39743171D01*
X27716321Y-39740466D01*
X27716356Y-39740396D01*
X27712920Y-39738660D01*
X27712758Y-39738988D01*
X27707641Y-39736439D01*
X27659375Y-39717741D01*
X27618838Y-39702036D01*
X27617662Y-39701573D01*
X27526454Y-39665059D01*
X27524486Y-39664481D01*
X27518440Y-39663042D01*
X27517454Y-39662761D01*
X27420413Y-39644620D01*
X27419734Y-39644491D01*
X27320086Y-39625286D01*
X27320085Y-39625286D01*
X27316976Y-39625286D01*
X27113024Y-39625286D01*
X27113017Y-39625286D01*
X27066734Y-39633937D01*
X27055742Y-39635486D01*
X27005785Y-39640257D01*
X26964223Y-39652460D01*
X26952081Y-39655370D01*
X26918524Y-39661643D01*
X26912544Y-39662762D01*
X26912541Y-39662762D01*
X26912534Y-39662765D01*
X26865437Y-39681010D01*
X26855582Y-39684359D01*
X26804136Y-39699465D01*
X26804115Y-39699474D01*
X26768680Y-39717741D01*
X26756662Y-39723149D01*
X26722361Y-39736438D01*
X26676492Y-39764839D01*
X26668038Y-39769625D01*
X26617322Y-39795772D01*
X26588674Y-39818300D01*
X26577306Y-39826252D01*
X26548959Y-39843804D01*
X26548956Y-39843806D01*
X26506537Y-39882476D01*
X26499652Y-39888308D01*
X26452116Y-39925690D01*
X26452114Y-39925692D01*
X26430507Y-39950628D01*
X26420337Y-39961057D01*
X26398239Y-39981202D01*
X26361577Y-40029750D01*
X26356338Y-40036222D01*
X26314483Y-40084526D01*
X26299702Y-40110127D01*
X26291274Y-40122846D01*
X26275326Y-40143966D01*
X26246688Y-40201477D01*
X26243077Y-40208201D01*
X26209397Y-40266538D01*
X26209395Y-40266543D01*
X26200854Y-40291221D01*
X26194678Y-40305929D01*
X26184416Y-40326540D01*
X26184416Y-40326541D01*
X26165896Y-40391626D01*
X26163812Y-40398242D01*
X26140656Y-40465151D01*
X26140655Y-40465155D01*
X26137427Y-40487602D01*
X26133958Y-40503880D01*
X26128603Y-40522702D01*
X26128603Y-40522703D01*
X26122041Y-40593512D01*
X26121308Y-40599715D01*
X26110746Y-40673182D01*
X26110745Y-40673187D01*
X26111660Y-40692402D01*
X26111272Y-40709730D01*
X26109785Y-40725788D01*
X26109785Y-40725789D01*
X26116661Y-40800000D01*
X26117049Y-40805538D01*
X26120745Y-40883114D01*
X26120746Y-40883116D01*
X26124468Y-40898461D01*
X26127433Y-40916244D01*
X26128603Y-40928869D01*
X26141820Y-40975322D01*
X26149945Y-41003880D01*
X26151182Y-41008578D01*
X26170292Y-41087352D01*
X26170297Y-41087365D01*
X26175421Y-41098585D01*
X26181891Y-41116155D01*
X26184418Y-41125036D01*
X26220727Y-41197956D01*
X26222496Y-41201663D01*
X26257605Y-41278542D01*
X26262753Y-41285770D01*
X26272748Y-41302429D01*
X26275327Y-41307607D01*
X26326494Y-41375363D01*
X26328475Y-41378063D01*
X26379514Y-41449738D01*
X26383443Y-41453484D01*
X26396822Y-41468493D01*
X26398236Y-41470365D01*
X26463541Y-41529897D01*
X26465504Y-41531729D01*
X26522168Y-41585758D01*
X26557103Y-41646266D01*
X26553778Y-41716057D01*
X26513249Y-41772971D01*
X26448385Y-41798939D01*
X26436598Y-41799500D01*
X22939428Y-41799500D01*
X22930582Y-41799184D01*
X22694864Y-41782325D01*
X22677352Y-41779807D01*
X22450779Y-41730519D01*
X22433803Y-41725535D01*
X22216537Y-41644498D01*
X22200444Y-41637148D01*
X21996931Y-41526022D01*
X21982048Y-41516457D01*
X21796420Y-41377498D01*
X21783049Y-41365912D01*
X21619087Y-41201950D01*
X21607501Y-41188579D01*
X21468542Y-41002951D01*
X21458977Y-40988068D01*
X21347851Y-40784555D01*
X21340501Y-40768462D01*
X21304963Y-40673182D01*
X21259461Y-40551188D01*
X21254482Y-40534229D01*
X21205191Y-40307641D01*
X21202674Y-40290135D01*
X21200987Y-40266542D01*
X21193016Y-40155094D01*
X21207868Y-40086823D01*
X21257273Y-40037418D01*
X21325546Y-40022566D01*
X21391011Y-40046983D01*
X21404381Y-40058569D01*
X21518917Y-40173105D01*
X21712421Y-40308600D01*
X21926507Y-40408429D01*
X21926516Y-40408433D01*
X22140000Y-40465634D01*
X22140000Y-39570501D01*
X22247685Y-39619680D01*
X22354237Y-39635000D01*
X22425763Y-39635000D01*
X22532315Y-39619680D01*
X22640000Y-39570501D01*
X22640000Y-40465633D01*
X22853483Y-40408433D01*
X22853492Y-40408429D01*
X23067578Y-40308600D01*
X23261082Y-40173105D01*
X23428105Y-40006082D01*
X23563600Y-39812578D01*
X23663429Y-39598492D01*
X23663432Y-39598486D01*
X23720636Y-39385000D01*
X22823686Y-39385000D01*
X22849493Y-39344844D01*
X22890000Y-39206889D01*
X22890000Y-39063111D01*
X22849493Y-38925156D01*
X22823686Y-38885000D01*
X23720636Y-38885000D01*
X23720635Y-38884999D01*
X23663432Y-38671513D01*
X23663429Y-38671507D01*
X23563600Y-38457422D01*
X23563599Y-38457420D01*
X23428113Y-38263926D01*
X23428108Y-38263920D01*
X23414188Y-38250000D01*
X28334815Y-38250000D01*
X28353503Y-38427805D01*
X28353504Y-38427807D01*
X28408747Y-38597829D01*
X28408750Y-38597835D01*
X28498141Y-38752665D01*
X28539812Y-38798946D01*
X28617764Y-38885521D01*
X28617767Y-38885523D01*
X28617770Y-38885526D01*
X28762407Y-38990612D01*
X28925733Y-39063329D01*
X29100609Y-39100500D01*
X29100610Y-39100500D01*
X29279389Y-39100500D01*
X29279391Y-39100500D01*
X29454267Y-39063329D01*
X29617593Y-38990612D01*
X29762230Y-38885526D01*
X29881859Y-38752665D01*
X29971250Y-38597835D01*
X30026497Y-38427803D01*
X30045185Y-38250000D01*
X30026497Y-38072197D01*
X30000553Y-37992350D01*
X29995959Y-37973099D01*
X29993594Y-37957903D01*
X29993593Y-37957897D01*
X29993593Y-37957895D01*
X29845936Y-37475752D01*
X29840500Y-37439442D01*
X29840500Y-37380561D01*
X29845935Y-37344251D01*
X29845937Y-37344246D01*
X29978035Y-36912902D01*
X29987716Y-36889882D01*
X30203942Y-36493143D01*
X30225136Y-36464808D01*
X33116825Y-33573119D01*
X33146337Y-33551292D01*
X33591678Y-33314774D01*
X33617146Y-33300286D01*
X33617147Y-33300285D01*
X33621783Y-33297648D01*
X33621943Y-33297930D01*
X33634456Y-33290912D01*
X33657593Y-33280612D01*
X33802230Y-33175526D01*
X33921859Y-33042665D01*
X34011250Y-32887835D01*
X34066497Y-32717803D01*
X34085185Y-32540000D01*
X34066497Y-32362197D01*
X34011250Y-32192165D01*
X33921859Y-32037335D01*
X33875003Y-31985296D01*
X33802235Y-31904478D01*
X33802232Y-31904476D01*
X33802231Y-31904475D01*
X33802230Y-31904474D01*
X33657593Y-31799388D01*
X33494267Y-31726671D01*
X33494265Y-31726670D01*
X33366594Y-31699533D01*
X33319391Y-31689500D01*
X33140609Y-31689500D01*
X33109954Y-31696015D01*
X32965733Y-31726670D01*
X32965728Y-31726672D01*
X32802408Y-31799387D01*
X32657768Y-31904475D01*
X32538139Y-32037336D01*
X32465794Y-32162642D01*
X32458535Y-32173788D01*
X32455231Y-32178310D01*
X32455216Y-32178334D01*
X32218705Y-32623660D01*
X32196873Y-32653179D01*
X29309462Y-35540590D01*
X29278614Y-35563118D01*
X28833914Y-35792442D01*
X28800878Y-35810842D01*
X28800838Y-35810771D01*
X28787209Y-35818344D01*
X28762413Y-35829384D01*
X28617768Y-35934475D01*
X28498140Y-36067336D01*
X28408750Y-36222164D01*
X28408747Y-36222170D01*
X28353504Y-36392192D01*
X28353503Y-36392194D01*
X28334815Y-36570000D01*
X28353503Y-36747805D01*
X28353504Y-36747807D01*
X28379444Y-36827642D01*
X28384038Y-36846888D01*
X28386406Y-36862107D01*
X28534064Y-37344246D01*
X28539500Y-37380557D01*
X28539500Y-37439441D01*
X28534064Y-37475752D01*
X28386405Y-37957896D01*
X28378633Y-37986180D01*
X28377667Y-37991423D01*
X28377423Y-37991378D01*
X28373251Y-38011417D01*
X28369729Y-38022260D01*
X28353503Y-38072198D01*
X28334815Y-38250000D01*
X23414188Y-38250000D01*
X23261078Y-38096890D01*
X23075405Y-37966879D01*
X23031780Y-37912302D01*
X23024588Y-37842804D01*
X23056110Y-37780449D01*
X23075406Y-37763730D01*
X23092320Y-37751887D01*
X23261401Y-37633495D01*
X23428495Y-37466401D01*
X23564035Y-37272830D01*
X23663903Y-37058663D01*
X23725063Y-36830408D01*
X23745659Y-36595000D01*
X23725063Y-36359592D01*
X23663903Y-36131337D01*
X23564035Y-35917171D01*
X23502567Y-35829384D01*
X23428494Y-35723597D01*
X23261402Y-35556506D01*
X23261396Y-35556501D01*
X23075842Y-35426575D01*
X23032217Y-35371998D01*
X23025023Y-35302500D01*
X23056546Y-35240145D01*
X23075842Y-35223425D01*
X23098026Y-35207891D01*
X23261401Y-35093495D01*
X23428495Y-34926401D01*
X23564035Y-34732830D01*
X23663903Y-34518663D01*
X23725063Y-34290408D01*
X23745659Y-34055000D01*
X23725063Y-33819592D01*
X23663903Y-33591337D01*
X23564035Y-33377171D01*
X23520349Y-33314781D01*
X23428496Y-33183600D01*
X23393008Y-33148112D01*
X23306567Y-33061671D01*
X23273084Y-33000351D01*
X23278068Y-32930659D01*
X23319939Y-32874725D01*
X23350915Y-32857810D01*
X23482331Y-32808796D01*
X23597546Y-32722546D01*
X23683796Y-32607331D01*
X23734091Y-32472483D01*
X23740500Y-32412873D01*
X23740499Y-30617128D01*
X23734091Y-30557517D01*
X23730184Y-30547043D01*
X23683797Y-30422671D01*
X23683793Y-30422664D01*
X23597547Y-30307455D01*
X23597544Y-30307452D01*
X23482335Y-30221206D01*
X23482328Y-30221202D01*
X23347482Y-30170908D01*
X23347483Y-30170908D01*
X23287883Y-30164501D01*
X23287881Y-30164500D01*
X23287873Y-30164500D01*
X23287864Y-30164500D01*
X21492129Y-30164500D01*
X21492123Y-30164501D01*
X21432513Y-30170909D01*
X21430821Y-30171309D01*
X21429469Y-30171236D01*
X21424804Y-30171738D01*
X21424722Y-30170981D01*
X21361051Y-30167561D01*
X21304384Y-30126689D01*
X21278809Y-30061668D01*
X21286136Y-30007295D01*
X21340502Y-29861537D01*
X21347851Y-29845444D01*
X21387129Y-29773512D01*
X21458981Y-29641923D01*
X21468537Y-29627054D01*
X21607506Y-29441413D01*
X21619080Y-29428056D01*
X21783056Y-29264080D01*
X21796413Y-29252506D01*
X21982054Y-29113537D01*
X21996923Y-29103981D01*
X22200444Y-28992850D01*
X22216537Y-28985501D01*
X22242613Y-28975775D01*
X22433815Y-28904460D01*
X22450766Y-28899483D01*
X22677360Y-28850190D01*
X22694857Y-28847674D01*
X22930582Y-28830816D01*
X22939428Y-28830500D01*
X22979170Y-28830500D01*
X26440923Y-28830500D01*
X26507962Y-28850185D01*
G37*
%TD.AperFunction*%
%TD*%
%TA.AperFunction,Conductor*%
%TO.N,/EEPROM-SOIC8-GND*%
G36*
X7611776Y-28821837D02*
G01*
X7680000Y-28835408D01*
X7692694Y-28832883D01*
X7716886Y-28830500D01*
X14715830Y-28830500D01*
X14755572Y-28830500D01*
X14764418Y-28830816D01*
X15000140Y-28847674D01*
X15017641Y-28850191D01*
X15244229Y-28899482D01*
X15261188Y-28904461D01*
X15376316Y-28947402D01*
X15478462Y-28985501D01*
X15494555Y-28992851D01*
X15698068Y-29103977D01*
X15712951Y-29113542D01*
X15898579Y-29252501D01*
X15911950Y-29264087D01*
X16075912Y-29428049D01*
X16087498Y-29441420D01*
X16226457Y-29627048D01*
X16236022Y-29641931D01*
X16347148Y-29845444D01*
X16354498Y-29861537D01*
X16435535Y-30078803D01*
X16440519Y-30095779D01*
X16489807Y-30322352D01*
X16492325Y-30339864D01*
X16509184Y-30575581D01*
X16509500Y-30584427D01*
X16509500Y-32743114D01*
X16507117Y-32767306D01*
X16504592Y-32779999D01*
X16504592Y-32780001D01*
X16508310Y-32798693D01*
X16508311Y-32798700D01*
X16524032Y-32877735D01*
X16524034Y-32877740D01*
X16564172Y-32937812D01*
X16585050Y-33004489D01*
X16585066Y-33007731D01*
X16543988Y-37955803D01*
X16527446Y-38010454D01*
X16528707Y-38010977D01*
X16524033Y-38022260D01*
X16504592Y-38119997D01*
X16504592Y-38119998D01*
X16507117Y-38132691D01*
X16509500Y-38156885D01*
X16509500Y-40045572D01*
X16509184Y-40054418D01*
X16492325Y-40290135D01*
X16489807Y-40307647D01*
X16440519Y-40534220D01*
X16435535Y-40551196D01*
X16354498Y-40768462D01*
X16347148Y-40784555D01*
X16236022Y-40988068D01*
X16226457Y-41002951D01*
X16087498Y-41188579D01*
X16075912Y-41201950D01*
X15911950Y-41365912D01*
X15898579Y-41377498D01*
X15712951Y-41516457D01*
X15698068Y-41526022D01*
X15494555Y-41637148D01*
X15478462Y-41644498D01*
X15261196Y-41725535D01*
X15244220Y-41730519D01*
X15017647Y-41779807D01*
X15000135Y-41782325D01*
X14764418Y-41799184D01*
X14755572Y-41799500D01*
X5045800Y-41799500D01*
X4978761Y-41779815D01*
X4933006Y-41727011D01*
X4923062Y-41657853D01*
X4952087Y-41594297D01*
X4962252Y-41583871D01*
X4978476Y-41569081D01*
X4985326Y-41563278D01*
X5032886Y-41525878D01*
X5054496Y-41500936D01*
X5064657Y-41490516D01*
X5086764Y-41470365D01*
X5123429Y-41421810D01*
X5128650Y-41415358D01*
X5170519Y-41367042D01*
X5185299Y-41341439D01*
X5193724Y-41328724D01*
X5209673Y-41307607D01*
X5238333Y-41250046D01*
X5241911Y-41243384D01*
X5275604Y-41185030D01*
X5284146Y-41160349D01*
X5290323Y-41145637D01*
X5300582Y-41125036D01*
X5319110Y-41059913D01*
X5321186Y-41053328D01*
X5344344Y-40986419D01*
X5347570Y-40963972D01*
X5351039Y-40947697D01*
X5356397Y-40928869D01*
X5362958Y-40858045D01*
X5363685Y-40851886D01*
X5374254Y-40778388D01*
X5373339Y-40759185D01*
X5373727Y-40741838D01*
X5375215Y-40725786D01*
X5368336Y-40651559D01*
X5367948Y-40646026D01*
X5364254Y-40568455D01*
X5360534Y-40553124D01*
X5357565Y-40535317D01*
X5356397Y-40522703D01*
X5335054Y-40447691D01*
X5333823Y-40443019D01*
X5314704Y-40364210D01*
X5309579Y-40352988D01*
X5303107Y-40335413D01*
X5300582Y-40326536D01*
X5270708Y-40266542D01*
X5264298Y-40253668D01*
X5262504Y-40249908D01*
X5233377Y-40186130D01*
X5227396Y-40173033D01*
X5222243Y-40165797D01*
X5212249Y-40149139D01*
X5209673Y-40143965D01*
X5209671Y-40143963D01*
X5209670Y-40143960D01*
X5158542Y-40076257D01*
X5156488Y-40073457D01*
X5136631Y-40045572D01*
X5105486Y-40001834D01*
X5101550Y-39998081D01*
X5088175Y-39983075D01*
X5086765Y-39981208D01*
X5086764Y-39981207D01*
X5021461Y-39921676D01*
X5019490Y-39919838D01*
X4953378Y-39856800D01*
X4951708Y-39855726D01*
X4940647Y-39847227D01*
X4940621Y-39847263D01*
X4936048Y-39843810D01*
X4936042Y-39843806D01*
X4936041Y-39843805D01*
X4858044Y-39795511D01*
X4856290Y-39794405D01*
X4838439Y-39782933D01*
X4776572Y-39743173D01*
X4776569Y-39743172D01*
X4776568Y-39743171D01*
X4771321Y-39740466D01*
X4771356Y-39740396D01*
X4767920Y-39738660D01*
X4767758Y-39738988D01*
X4762641Y-39736439D01*
X4714375Y-39717741D01*
X4673838Y-39702036D01*
X4672662Y-39701573D01*
X4581454Y-39665059D01*
X4579486Y-39664481D01*
X4573440Y-39663042D01*
X4572454Y-39662761D01*
X4475413Y-39644620D01*
X4474734Y-39644491D01*
X4375086Y-39625286D01*
X4375085Y-39625286D01*
X4371976Y-39625286D01*
X4168024Y-39625286D01*
X4168017Y-39625286D01*
X4121734Y-39633937D01*
X4110742Y-39635486D01*
X4060785Y-39640257D01*
X4019223Y-39652460D01*
X4007081Y-39655370D01*
X3973524Y-39661643D01*
X3967544Y-39662762D01*
X3967541Y-39662762D01*
X3967534Y-39662765D01*
X3920437Y-39681010D01*
X3910582Y-39684359D01*
X3859136Y-39699465D01*
X3859115Y-39699474D01*
X3823680Y-39717741D01*
X3811662Y-39723149D01*
X3777361Y-39736438D01*
X3731492Y-39764839D01*
X3723038Y-39769625D01*
X3672322Y-39795772D01*
X3643674Y-39818300D01*
X3632306Y-39826252D01*
X3603959Y-39843804D01*
X3603956Y-39843806D01*
X3561537Y-39882476D01*
X3554652Y-39888308D01*
X3507116Y-39925690D01*
X3507114Y-39925692D01*
X3485507Y-39950628D01*
X3475337Y-39961057D01*
X3453239Y-39981202D01*
X3416577Y-40029750D01*
X3411338Y-40036222D01*
X3369483Y-40084526D01*
X3354702Y-40110127D01*
X3346274Y-40122846D01*
X3330326Y-40143966D01*
X3301688Y-40201477D01*
X3298077Y-40208201D01*
X3264397Y-40266538D01*
X3264395Y-40266543D01*
X3255854Y-40291221D01*
X3249678Y-40305929D01*
X3239416Y-40326540D01*
X3239416Y-40326541D01*
X3220896Y-40391626D01*
X3218812Y-40398242D01*
X3195656Y-40465151D01*
X3195655Y-40465155D01*
X3192427Y-40487602D01*
X3188958Y-40503880D01*
X3183603Y-40522702D01*
X3183603Y-40522703D01*
X3177041Y-40593512D01*
X3176308Y-40599715D01*
X3165746Y-40673182D01*
X3165745Y-40673187D01*
X3166660Y-40692402D01*
X3166272Y-40709730D01*
X3164785Y-40725788D01*
X3164785Y-40725789D01*
X3171661Y-40800000D01*
X3172049Y-40805538D01*
X3175745Y-40883114D01*
X3175746Y-40883116D01*
X3179468Y-40898461D01*
X3182433Y-40916244D01*
X3183603Y-40928869D01*
X3196820Y-40975322D01*
X3204945Y-41003880D01*
X3206182Y-41008578D01*
X3225292Y-41087352D01*
X3225297Y-41087365D01*
X3230421Y-41098585D01*
X3236891Y-41116155D01*
X3239418Y-41125036D01*
X3275727Y-41197956D01*
X3277496Y-41201663D01*
X3312605Y-41278542D01*
X3317753Y-41285770D01*
X3327748Y-41302429D01*
X3330327Y-41307607D01*
X3381494Y-41375363D01*
X3383475Y-41378063D01*
X3434514Y-41449738D01*
X3438443Y-41453484D01*
X3451822Y-41468493D01*
X3453236Y-41470365D01*
X3518541Y-41529897D01*
X3520504Y-41531729D01*
X3577168Y-41585758D01*
X3612103Y-41646266D01*
X3608778Y-41716057D01*
X3568249Y-41772971D01*
X3503385Y-41798939D01*
X3491598Y-41799500D01*
X-5572Y-41799500D01*
X-14418Y-41799184D01*
X-250136Y-41782325D01*
X-267648Y-41779807D01*
X-494221Y-41730519D01*
X-511197Y-41725535D01*
X-728463Y-41644498D01*
X-744556Y-41637148D01*
X-948069Y-41526022D01*
X-962952Y-41516457D01*
X-1148580Y-41377498D01*
X-1161951Y-41365912D01*
X-1325913Y-41201950D01*
X-1337499Y-41188579D01*
X-1476458Y-41002951D01*
X-1486023Y-40988068D01*
X-1597149Y-40784555D01*
X-1604499Y-40768462D01*
X-1640037Y-40673182D01*
X-1685539Y-40551188D01*
X-1690518Y-40534229D01*
X-1739809Y-40307641D01*
X-1742326Y-40290135D01*
X-1744014Y-40266538D01*
X-1752369Y-40149709D01*
X-1737517Y-40081438D01*
X-1688112Y-40032033D01*
X-1619839Y-40017181D01*
X-1554374Y-40041598D01*
X-1541004Y-40053184D01*
X-1421083Y-40173105D01*
X-1227579Y-40308600D01*
X-1013493Y-40408429D01*
X-1013484Y-40408433D01*
X-800000Y-40465634D01*
X-800000Y-39570501D01*
X-692315Y-39619680D01*
X-585763Y-39635000D01*
X-514237Y-39635000D01*
X-407685Y-39619680D01*
X-300000Y-39570501D01*
X-300000Y-40465633D01*
X-86517Y-40408433D01*
X-86508Y-40408429D01*
X127578Y-40308600D01*
X321082Y-40173105D01*
X488105Y-40006082D01*
X623600Y-39812578D01*
X723429Y-39598492D01*
X723432Y-39598486D01*
X780636Y-39385000D01*
X-116314Y-39385000D01*
X-90507Y-39344844D01*
X-50000Y-39206889D01*
X-50000Y-39063111D01*
X-90507Y-38925156D01*
X-116314Y-38885000D01*
X780636Y-38885000D01*
X780635Y-38884999D01*
X723432Y-38671513D01*
X723429Y-38671507D01*
X623600Y-38457422D01*
X623599Y-38457420D01*
X488113Y-38263926D01*
X488108Y-38263920D01*
X321078Y-38096890D01*
X135405Y-37966879D01*
X91780Y-37912302D01*
X84588Y-37842804D01*
X116110Y-37780449D01*
X135406Y-37763730D01*
X321401Y-37633495D01*
X488495Y-37466401D01*
X624035Y-37272830D01*
X723903Y-37058663D01*
X785063Y-36830408D01*
X805659Y-36595000D01*
X785063Y-36359592D01*
X723903Y-36131337D01*
X648670Y-35970000D01*
X8084815Y-35970000D01*
X8103503Y-36147805D01*
X8103504Y-36147807D01*
X8129444Y-36227642D01*
X8134038Y-36246888D01*
X8136406Y-36262107D01*
X8284064Y-36744246D01*
X8289500Y-36780557D01*
X8289500Y-38355403D01*
X8284606Y-38389896D01*
X8143996Y-38875421D01*
X8137535Y-38900031D01*
X8136639Y-38905171D01*
X8136192Y-38905093D01*
X8132193Y-38924673D01*
X8113505Y-38982190D01*
X8113503Y-38982195D01*
X8094815Y-39160000D01*
X8113503Y-39337805D01*
X8113504Y-39337807D01*
X8168747Y-39507829D01*
X8168750Y-39507835D01*
X8258141Y-39662665D01*
X8291284Y-39699474D01*
X8377764Y-39795521D01*
X8377767Y-39795523D01*
X8377770Y-39795526D01*
X8522407Y-39900612D01*
X8685733Y-39973329D01*
X8860609Y-40010500D01*
X8860610Y-40010500D01*
X9039389Y-40010500D01*
X9039391Y-40010500D01*
X9214267Y-39973329D01*
X9377593Y-39900612D01*
X9522230Y-39795526D01*
X9522240Y-39795516D01*
X9569369Y-39743173D01*
X9641859Y-39662665D01*
X9731250Y-39507835D01*
X9786497Y-39337803D01*
X9805185Y-39160000D01*
X9786497Y-38982197D01*
X9758200Y-38895111D01*
X9753951Y-38877954D01*
X9750761Y-38859530D01*
X9596574Y-38385197D01*
X9590500Y-38346864D01*
X9590500Y-36780558D01*
X9595936Y-36744247D01*
X9743594Y-36262103D01*
X9751365Y-36233823D01*
X9751365Y-36233816D01*
X9752331Y-36228582D01*
X9752575Y-36228627D01*
X9756745Y-36208591D01*
X9776497Y-36147803D01*
X9795185Y-35970000D01*
X9776497Y-35792197D01*
X9721250Y-35622165D01*
X9631859Y-35467335D01*
X9580104Y-35409855D01*
X9512235Y-35334478D01*
X9512232Y-35334476D01*
X9512231Y-35334475D01*
X9512230Y-35334474D01*
X9367593Y-35229388D01*
X9204267Y-35156671D01*
X9204265Y-35156670D01*
X9076594Y-35129533D01*
X9029391Y-35119500D01*
X8850609Y-35119500D01*
X8819954Y-35126015D01*
X8675733Y-35156670D01*
X8675728Y-35156672D01*
X8512408Y-35229387D01*
X8367768Y-35334475D01*
X8248140Y-35467336D01*
X8158750Y-35622164D01*
X8158747Y-35622170D01*
X8103504Y-35792192D01*
X8103503Y-35792194D01*
X8084815Y-35970000D01*
X648670Y-35970000D01*
X624035Y-35917171D01*
X536525Y-35792192D01*
X488494Y-35723597D01*
X321402Y-35556506D01*
X321396Y-35556501D01*
X135842Y-35426575D01*
X92217Y-35371998D01*
X85023Y-35302500D01*
X116546Y-35240145D01*
X135842Y-35223425D01*
X231178Y-35156670D01*
X321401Y-35093495D01*
X488495Y-34926401D01*
X624035Y-34732830D01*
X723903Y-34518663D01*
X785063Y-34290408D01*
X805659Y-34055000D01*
X785063Y-33819592D01*
X723903Y-33591337D01*
X624035Y-33377171D01*
X488495Y-33183599D01*
X366567Y-33061671D01*
X333084Y-33000351D01*
X338068Y-32930659D01*
X379939Y-32874725D01*
X410915Y-32857810D01*
X542331Y-32808796D01*
X657546Y-32722546D01*
X743796Y-32607331D01*
X794091Y-32472483D01*
X800500Y-32412873D01*
X800499Y-30617128D01*
X794091Y-30557517D01*
X790184Y-30547043D01*
X743797Y-30422671D01*
X743793Y-30422664D01*
X657547Y-30307455D01*
X657544Y-30307452D01*
X542335Y-30221206D01*
X542328Y-30221202D01*
X407482Y-30170908D01*
X407483Y-30170908D01*
X347883Y-30164501D01*
X347881Y-30164500D01*
X347873Y-30164500D01*
X347864Y-30164500D01*
X-1447871Y-30164500D01*
X-1447877Y-30164501D01*
X-1507486Y-30170909D01*
X-1514655Y-30172603D01*
X-1584424Y-30168860D01*
X-1641094Y-30127991D01*
X-1666673Y-30062972D01*
X-1659349Y-30008593D01*
X-1604499Y-29861536D01*
X-1597149Y-29845444D01*
X-1557871Y-29773512D01*
X-1486019Y-29641923D01*
X-1476463Y-29627054D01*
X-1337494Y-29441413D01*
X-1325920Y-29428056D01*
X-1161944Y-29264080D01*
X-1148587Y-29252506D01*
X-962946Y-29113537D01*
X-948077Y-29103981D01*
X-744556Y-28992850D01*
X-728463Y-28985501D01*
X-702387Y-28975775D01*
X-511185Y-28904460D01*
X-494234Y-28899483D01*
X-267642Y-28850191D01*
X-250141Y-28847674D01*
X-90971Y-28836290D01*
X-82445Y-28835976D01*
X1869252Y-28831772D01*
X1893695Y-28834154D01*
X1900000Y-28835408D01*
X1906970Y-28834021D01*
X1930876Y-28831640D01*
X3498112Y-28828264D01*
X3565190Y-28847803D01*
X3611058Y-28900509D01*
X3621151Y-28969646D01*
X3592263Y-29033264D01*
X3581915Y-29043898D01*
X3561540Y-29062473D01*
X3554652Y-29068308D01*
X3507116Y-29105690D01*
X3507114Y-29105692D01*
X3485507Y-29130628D01*
X3475337Y-29141057D01*
X3453239Y-29161202D01*
X3416577Y-29209750D01*
X3411338Y-29216222D01*
X3369483Y-29264526D01*
X3354702Y-29290127D01*
X3346274Y-29302846D01*
X3330326Y-29323966D01*
X3301688Y-29381477D01*
X3298077Y-29388201D01*
X3264397Y-29446538D01*
X3264395Y-29446543D01*
X3255854Y-29471221D01*
X3249678Y-29485929D01*
X3239416Y-29506540D01*
X3239416Y-29506541D01*
X3220896Y-29571626D01*
X3218812Y-29578242D01*
X3195656Y-29645151D01*
X3195655Y-29645155D01*
X3192427Y-29667602D01*
X3188958Y-29683880D01*
X3183603Y-29702702D01*
X3183603Y-29702703D01*
X3177041Y-29773512D01*
X3176308Y-29779715D01*
X3165746Y-29853182D01*
X3165745Y-29853187D01*
X3166660Y-29872402D01*
X3166272Y-29889730D01*
X3164785Y-29905788D01*
X3164785Y-29905789D01*
X3171661Y-29980000D01*
X3172049Y-29985538D01*
X3175745Y-30063114D01*
X3175746Y-30063116D01*
X3179468Y-30078461D01*
X3182433Y-30096244D01*
X3183603Y-30108869D01*
X3202019Y-30173595D01*
X3204945Y-30183880D01*
X3206182Y-30188578D01*
X3225292Y-30267352D01*
X3225297Y-30267365D01*
X3230421Y-30278585D01*
X3236891Y-30296155D01*
X3239418Y-30305037D01*
X3248040Y-30322352D01*
X3275727Y-30377956D01*
X3277496Y-30381663D01*
X3312605Y-30458542D01*
X3317753Y-30465770D01*
X3327748Y-30482429D01*
X3330327Y-30487607D01*
X3381494Y-30555363D01*
X3383475Y-30558063D01*
X3434514Y-30629738D01*
X3438443Y-30633484D01*
X3451822Y-30648493D01*
X3453236Y-30650365D01*
X3518541Y-30709897D01*
X3520504Y-30711729D01*
X3553578Y-30743264D01*
X3586623Y-30774773D01*
X3588285Y-30775841D01*
X3599352Y-30784345D01*
X3599380Y-30784309D01*
X3603951Y-30787760D01*
X3603959Y-30787767D01*
X3666495Y-30826487D01*
X3681946Y-30836054D01*
X3683709Y-30837166D01*
X3763429Y-30888400D01*
X3768684Y-30891109D01*
X3768647Y-30891180D01*
X3772064Y-30892906D01*
X3772229Y-30892577D01*
X3777354Y-30895128D01*
X3777363Y-30895134D01*
X3777371Y-30895137D01*
X3866091Y-30929508D01*
X3867352Y-30930003D01*
X3958543Y-30966511D01*
X3958545Y-30966511D01*
X3958547Y-30966512D01*
X3960532Y-30967095D01*
X3966585Y-30968536D01*
X3967526Y-30968803D01*
X3967544Y-30968810D01*
X4064595Y-30986951D01*
X4065010Y-30987030D01*
X4164915Y-31006286D01*
X4371976Y-31006286D01*
X4418258Y-30997633D01*
X4429236Y-30996086D01*
X4479218Y-30991314D01*
X4520791Y-30979106D01*
X4532908Y-30976201D01*
X4572456Y-30968810D01*
X4619588Y-30950550D01*
X4629405Y-30947214D01*
X4680875Y-30932102D01*
X4716329Y-30913823D01*
X4728332Y-30908423D01*
X4762637Y-30895134D01*
X4808509Y-30866729D01*
X4816955Y-30861946D01*
X4867682Y-30835797D01*
X4896337Y-30813260D01*
X4907695Y-30805317D01*
X4936041Y-30787767D01*
X4978466Y-30749090D01*
X4985326Y-30743278D01*
X5032886Y-30705878D01*
X5054496Y-30680936D01*
X5064657Y-30670516D01*
X5086764Y-30650365D01*
X5123429Y-30601810D01*
X5128650Y-30595358D01*
X5170519Y-30547042D01*
X5185299Y-30521439D01*
X5193724Y-30508724D01*
X5209673Y-30487607D01*
X5238333Y-30430046D01*
X5241911Y-30423384D01*
X5275604Y-30365030D01*
X5284146Y-30340349D01*
X5290323Y-30325637D01*
X5300582Y-30305036D01*
X5319110Y-30239913D01*
X5321186Y-30233328D01*
X5344344Y-30166419D01*
X5347570Y-30143972D01*
X5351039Y-30127697D01*
X5356397Y-30108869D01*
X5362958Y-30038045D01*
X5363685Y-30031886D01*
X5374254Y-29958388D01*
X5373339Y-29939185D01*
X5373727Y-29921838D01*
X5375215Y-29905786D01*
X5368336Y-29831559D01*
X5367948Y-29826026D01*
X5364254Y-29748455D01*
X5360534Y-29733124D01*
X5357565Y-29715317D01*
X5356397Y-29702703D01*
X5335054Y-29627691D01*
X5333823Y-29623019D01*
X5321355Y-29571626D01*
X5314704Y-29544210D01*
X5309579Y-29532988D01*
X5303107Y-29515413D01*
X5300582Y-29506536D01*
X5270708Y-29446542D01*
X5264298Y-29433668D01*
X5262504Y-29429908D01*
X5240386Y-29381477D01*
X5227396Y-29353033D01*
X5222243Y-29345797D01*
X5212249Y-29329139D01*
X5209673Y-29323965D01*
X5209671Y-29323963D01*
X5209670Y-29323960D01*
X5164455Y-29264087D01*
X5158534Y-29256247D01*
X5156488Y-29253457D01*
X5105486Y-29181834D01*
X5101552Y-29178083D01*
X5088175Y-29163075D01*
X5086765Y-29161208D01*
X5086764Y-29161207D01*
X5021461Y-29101676D01*
X5019490Y-29099838D01*
X4955351Y-29038682D01*
X4920418Y-28978175D01*
X4923743Y-28908385D01*
X4964271Y-28851470D01*
X5029136Y-28825502D01*
X5040644Y-28824941D01*
X7587333Y-28819455D01*
X7611776Y-28821837D01*
G37*
%TD.AperFunction*%
%TD*%
%TA.AperFunction,Conductor*%
%TO.N,/SPI{slash}SDIO-GND*%
G36*
X33974418Y-253816D02*
G01*
X34210140Y-270674D01*
X34227641Y-273191D01*
X34454229Y-322482D01*
X34471188Y-327461D01*
X34608672Y-378740D01*
X34688462Y-408501D01*
X34704555Y-415851D01*
X34908068Y-526977D01*
X34922951Y-536542D01*
X35108579Y-675501D01*
X35121950Y-687087D01*
X35285912Y-851049D01*
X35297498Y-864420D01*
X35436457Y-1050048D01*
X35446022Y-1064931D01*
X35557148Y-1268444D01*
X35564498Y-1284537D01*
X35645535Y-1501803D01*
X35650519Y-1518779D01*
X35699807Y-1745353D01*
X35702325Y-1762866D01*
X35711444Y-1890380D01*
X35711760Y-1899120D01*
X35718708Y-10096985D01*
X35716327Y-10121274D01*
X35714592Y-10129999D01*
X35714592Y-10130001D01*
X35716382Y-10139002D01*
X35718764Y-10163084D01*
X35719500Y-11030306D01*
X35719500Y-21672572D01*
X35719184Y-21681418D01*
X35702325Y-21917135D01*
X35699807Y-21934647D01*
X35650519Y-22161220D01*
X35645535Y-22178196D01*
X35564498Y-22395462D01*
X35557148Y-22411555D01*
X35446022Y-22615068D01*
X35436457Y-22629951D01*
X35297498Y-22815579D01*
X35285912Y-22828950D01*
X35121950Y-22992912D01*
X35108579Y-23004498D01*
X34922951Y-23143457D01*
X34908068Y-23153022D01*
X34704555Y-23264148D01*
X34688462Y-23271498D01*
X34471196Y-23352535D01*
X34454220Y-23357519D01*
X34227646Y-23406807D01*
X34210134Y-23409325D01*
X34046567Y-23421023D01*
X34037819Y-23421339D01*
X23734413Y-23429500D01*
X7716886Y-23429500D01*
X7692694Y-23427117D01*
X7680001Y-23424592D01*
X7680000Y-23424592D01*
X7655326Y-23429500D01*
X7606721Y-23439168D01*
X7602982Y-23439912D01*
X7578890Y-23442294D01*
X2023422Y-23446693D01*
X1999133Y-23444310D01*
X1949015Y-23434341D01*
X1949018Y-23434322D01*
X1948823Y-23434303D01*
X1945648Y-23433666D01*
X1919875Y-23428497D01*
X1918902Y-23428351D01*
X1906059Y-23425797D01*
X1900000Y-23424592D01*
X1899999Y-23424592D01*
X1887589Y-23427060D01*
X1863209Y-23429441D01*
X43240Y-23426586D01*
X42259Y-23426500D01*
X32170Y-23426500D01*
X-7572Y-23426500D01*
X-16418Y-23426184D01*
X-252136Y-23409325D01*
X-269648Y-23406807D01*
X-496221Y-23357519D01*
X-513197Y-23352535D01*
X-730463Y-23271498D01*
X-746556Y-23264148D01*
X-950069Y-23153022D01*
X-964952Y-23143457D01*
X-1150580Y-23004498D01*
X-1163951Y-22992912D01*
X-1327913Y-22828950D01*
X-1339499Y-22815579D01*
X-1478458Y-22629951D01*
X-1488023Y-22615068D01*
X-1599149Y-22411555D01*
X-1606499Y-22395462D01*
X-1642389Y-22299238D01*
X-1687539Y-22178188D01*
X-1692518Y-22161229D01*
X-1741809Y-21934641D01*
X-1744326Y-21917135D01*
X-1746081Y-21892602D01*
X-1755062Y-21767017D01*
X-1740210Y-21698745D01*
X-1690804Y-21649340D01*
X-1622531Y-21634488D01*
X-1557067Y-21658905D01*
X-1543697Y-21670491D01*
X-1431083Y-21783105D01*
X-1237579Y-21918600D01*
X-1023493Y-22018429D01*
X-1023484Y-22018433D01*
X-810000Y-22075634D01*
X-810000Y-21180501D01*
X-702315Y-21229680D01*
X-595763Y-21245000D01*
X-524237Y-21245000D01*
X-417685Y-21229680D01*
X-310000Y-21180501D01*
X-310000Y-22075633D01*
X-96517Y-22018433D01*
X-96508Y-22018429D01*
X117578Y-21918600D01*
X229824Y-21840003D01*
X4590785Y-21840003D01*
X4597661Y-21914214D01*
X4598049Y-21919752D01*
X4601745Y-21997328D01*
X4601746Y-21997330D01*
X4605468Y-22012675D01*
X4608433Y-22030458D01*
X4609603Y-22043083D01*
X4621075Y-22083405D01*
X4630945Y-22118094D01*
X4632182Y-22122792D01*
X4651292Y-22201566D01*
X4651297Y-22201579D01*
X4656421Y-22212799D01*
X4662891Y-22230369D01*
X4665418Y-22239250D01*
X4701727Y-22312170D01*
X4703496Y-22315877D01*
X4738605Y-22392756D01*
X4743753Y-22399984D01*
X4753748Y-22416643D01*
X4756327Y-22421821D01*
X4807494Y-22489577D01*
X4809475Y-22492277D01*
X4860514Y-22563952D01*
X4864443Y-22567698D01*
X4877822Y-22582707D01*
X4879236Y-22584579D01*
X4944541Y-22644111D01*
X4946504Y-22645943D01*
X4979578Y-22677478D01*
X5012623Y-22708987D01*
X5014285Y-22710055D01*
X5025352Y-22718559D01*
X5025380Y-22718523D01*
X5029951Y-22721974D01*
X5029959Y-22721981D01*
X5092495Y-22760701D01*
X5107946Y-22770268D01*
X5109709Y-22771380D01*
X5189429Y-22822614D01*
X5194684Y-22825323D01*
X5194647Y-22825394D01*
X5198064Y-22827120D01*
X5198229Y-22826791D01*
X5203354Y-22829342D01*
X5203363Y-22829348D01*
X5203371Y-22829351D01*
X5292091Y-22863722D01*
X5293352Y-22864217D01*
X5384543Y-22900725D01*
X5384545Y-22900725D01*
X5384547Y-22900726D01*
X5386532Y-22901309D01*
X5392585Y-22902750D01*
X5393526Y-22903017D01*
X5393544Y-22903024D01*
X5490595Y-22921165D01*
X5491010Y-22921244D01*
X5590915Y-22940500D01*
X5797976Y-22940500D01*
X5844258Y-22931847D01*
X5855236Y-22930300D01*
X5905218Y-22925528D01*
X5946791Y-22913320D01*
X5958908Y-22910415D01*
X5998456Y-22903024D01*
X6045588Y-22884764D01*
X6055405Y-22881428D01*
X6106875Y-22866316D01*
X6142329Y-22848037D01*
X6154332Y-22842637D01*
X6188637Y-22829348D01*
X6234509Y-22800943D01*
X6242955Y-22796160D01*
X6293682Y-22770011D01*
X6322337Y-22747474D01*
X6333695Y-22739531D01*
X6362041Y-22721981D01*
X6404466Y-22683304D01*
X6411326Y-22677492D01*
X6458886Y-22640092D01*
X6480496Y-22615150D01*
X6490657Y-22604730D01*
X6512764Y-22584579D01*
X6549429Y-22536024D01*
X6554650Y-22529572D01*
X6596519Y-22481256D01*
X6611299Y-22455653D01*
X6619724Y-22442938D01*
X6635673Y-22421821D01*
X6664333Y-22364260D01*
X6667911Y-22357598D01*
X6701604Y-22299244D01*
X6710146Y-22274563D01*
X6716323Y-22259851D01*
X6726582Y-22239250D01*
X6745110Y-22174127D01*
X6747186Y-22167542D01*
X6749374Y-22161220D01*
X6770344Y-22100633D01*
X6773570Y-22078186D01*
X6777039Y-22061911D01*
X6782397Y-22043083D01*
X6788958Y-21972259D01*
X6789685Y-21966100D01*
X6800254Y-21892602D01*
X6799339Y-21873399D01*
X6799727Y-21856052D01*
X6801215Y-21840003D01*
X17947785Y-21840003D01*
X17954661Y-21914214D01*
X17955049Y-21919752D01*
X17958745Y-21997328D01*
X17958746Y-21997330D01*
X17962468Y-22012675D01*
X17965433Y-22030458D01*
X17966603Y-22043083D01*
X17978075Y-22083405D01*
X17987945Y-22118094D01*
X17989182Y-22122792D01*
X18008292Y-22201566D01*
X18008297Y-22201579D01*
X18013421Y-22212799D01*
X18019891Y-22230369D01*
X18022418Y-22239250D01*
X18058727Y-22312170D01*
X18060496Y-22315877D01*
X18095605Y-22392756D01*
X18100753Y-22399984D01*
X18110748Y-22416643D01*
X18113327Y-22421821D01*
X18164494Y-22489577D01*
X18166475Y-22492277D01*
X18217514Y-22563952D01*
X18221443Y-22567698D01*
X18234822Y-22582707D01*
X18236236Y-22584579D01*
X18301541Y-22644111D01*
X18303504Y-22645943D01*
X18336578Y-22677478D01*
X18369623Y-22708987D01*
X18371285Y-22710055D01*
X18382352Y-22718559D01*
X18382380Y-22718523D01*
X18386951Y-22721974D01*
X18386959Y-22721981D01*
X18449495Y-22760701D01*
X18464946Y-22770268D01*
X18466709Y-22771380D01*
X18546429Y-22822614D01*
X18551684Y-22825323D01*
X18551647Y-22825394D01*
X18555064Y-22827120D01*
X18555229Y-22826791D01*
X18560354Y-22829342D01*
X18560363Y-22829348D01*
X18560371Y-22829351D01*
X18649091Y-22863722D01*
X18650352Y-22864217D01*
X18741543Y-22900725D01*
X18741545Y-22900725D01*
X18741547Y-22900726D01*
X18743532Y-22901309D01*
X18749585Y-22902750D01*
X18750526Y-22903017D01*
X18750544Y-22903024D01*
X18847595Y-22921165D01*
X18848010Y-22921244D01*
X18947915Y-22940500D01*
X19154976Y-22940500D01*
X19201258Y-22931847D01*
X19212236Y-22930300D01*
X19262218Y-22925528D01*
X19303791Y-22913320D01*
X19315908Y-22910415D01*
X19355456Y-22903024D01*
X19402588Y-22884764D01*
X19412405Y-22881428D01*
X19463875Y-22866316D01*
X19499329Y-22848037D01*
X19511332Y-22842637D01*
X19545637Y-22829348D01*
X19591509Y-22800943D01*
X19599955Y-22796160D01*
X19650682Y-22770011D01*
X19679337Y-22747474D01*
X19690695Y-22739531D01*
X19719041Y-22721981D01*
X19761466Y-22683304D01*
X19768326Y-22677492D01*
X19815886Y-22640092D01*
X19837496Y-22615150D01*
X19847657Y-22604730D01*
X19869764Y-22584579D01*
X19906429Y-22536024D01*
X19911650Y-22529572D01*
X19953519Y-22481256D01*
X19968299Y-22455653D01*
X19976724Y-22442938D01*
X19992673Y-22421821D01*
X20021333Y-22364260D01*
X20024911Y-22357598D01*
X20058604Y-22299244D01*
X20067146Y-22274563D01*
X20073323Y-22259851D01*
X20083582Y-22239250D01*
X20102110Y-22174127D01*
X20104186Y-22167542D01*
X20106374Y-22161220D01*
X20127344Y-22100633D01*
X20130570Y-22078186D01*
X20134039Y-22061911D01*
X20139397Y-22043083D01*
X20145958Y-21972259D01*
X20146685Y-21966100D01*
X20157254Y-21892602D01*
X20156339Y-21873399D01*
X20156727Y-21856052D01*
X20158215Y-21840003D01*
X31304785Y-21840003D01*
X31311661Y-21914214D01*
X31312049Y-21919752D01*
X31315745Y-21997328D01*
X31315746Y-21997330D01*
X31319468Y-22012675D01*
X31322433Y-22030458D01*
X31323603Y-22043083D01*
X31335075Y-22083405D01*
X31344945Y-22118094D01*
X31346182Y-22122792D01*
X31365292Y-22201566D01*
X31365297Y-22201579D01*
X31370421Y-22212799D01*
X31376891Y-22230369D01*
X31379418Y-22239250D01*
X31415727Y-22312170D01*
X31417496Y-22315877D01*
X31452605Y-22392756D01*
X31457753Y-22399984D01*
X31467748Y-22416643D01*
X31470327Y-22421821D01*
X31521494Y-22489577D01*
X31523475Y-22492277D01*
X31574514Y-22563952D01*
X31578443Y-22567698D01*
X31591822Y-22582707D01*
X31593236Y-22584579D01*
X31658541Y-22644111D01*
X31660504Y-22645943D01*
X31693578Y-22677478D01*
X31726623Y-22708987D01*
X31728285Y-22710055D01*
X31739352Y-22718559D01*
X31739380Y-22718523D01*
X31743951Y-22721974D01*
X31743959Y-22721981D01*
X31806495Y-22760701D01*
X31821946Y-22770268D01*
X31823709Y-22771380D01*
X31903429Y-22822614D01*
X31908684Y-22825323D01*
X31908647Y-22825394D01*
X31912064Y-22827120D01*
X31912229Y-22826791D01*
X31917354Y-22829342D01*
X31917363Y-22829348D01*
X31917371Y-22829351D01*
X32006091Y-22863722D01*
X32007352Y-22864217D01*
X32098543Y-22900725D01*
X32098545Y-22900725D01*
X32098547Y-22900726D01*
X32100532Y-22901309D01*
X32106585Y-22902750D01*
X32107526Y-22903017D01*
X32107544Y-22903024D01*
X32204595Y-22921165D01*
X32205010Y-22921244D01*
X32304915Y-22940500D01*
X32511976Y-22940500D01*
X32558258Y-22931847D01*
X32569236Y-22930300D01*
X32619218Y-22925528D01*
X32660791Y-22913320D01*
X32672908Y-22910415D01*
X32712456Y-22903024D01*
X32759588Y-22884764D01*
X32769405Y-22881428D01*
X32820875Y-22866316D01*
X32856329Y-22848037D01*
X32868332Y-22842637D01*
X32902637Y-22829348D01*
X32948509Y-22800943D01*
X32956955Y-22796160D01*
X33007682Y-22770011D01*
X33036337Y-22747474D01*
X33047695Y-22739531D01*
X33076041Y-22721981D01*
X33118466Y-22683304D01*
X33125326Y-22677492D01*
X33172886Y-22640092D01*
X33194496Y-22615150D01*
X33204657Y-22604730D01*
X33226764Y-22584579D01*
X33263429Y-22536024D01*
X33268650Y-22529572D01*
X33310519Y-22481256D01*
X33325299Y-22455653D01*
X33333724Y-22442938D01*
X33349673Y-22421821D01*
X33378333Y-22364260D01*
X33381911Y-22357598D01*
X33415604Y-22299244D01*
X33424146Y-22274563D01*
X33430323Y-22259851D01*
X33440582Y-22239250D01*
X33459110Y-22174127D01*
X33461186Y-22167542D01*
X33463374Y-22161220D01*
X33484344Y-22100633D01*
X33487570Y-22078186D01*
X33491039Y-22061911D01*
X33496397Y-22043083D01*
X33502958Y-21972259D01*
X33503685Y-21966100D01*
X33514254Y-21892602D01*
X33513339Y-21873399D01*
X33513727Y-21856052D01*
X33515215Y-21840000D01*
X33508336Y-21765773D01*
X33507948Y-21760240D01*
X33504254Y-21682669D01*
X33500534Y-21667338D01*
X33497565Y-21649531D01*
X33496397Y-21636917D01*
X33475054Y-21561905D01*
X33473823Y-21557233D01*
X33461355Y-21505840D01*
X33454704Y-21478424D01*
X33449579Y-21467202D01*
X33443107Y-21449627D01*
X33440582Y-21440750D01*
X33410708Y-21380756D01*
X33404298Y-21367882D01*
X33402504Y-21364122D01*
X33380386Y-21315691D01*
X33367396Y-21287247D01*
X33362243Y-21280011D01*
X33352249Y-21263353D01*
X33349673Y-21258179D01*
X33349671Y-21258177D01*
X33349670Y-21258174D01*
X33298542Y-21190471D01*
X33296488Y-21187671D01*
X33283870Y-21169952D01*
X33245486Y-21116048D01*
X33241550Y-21112295D01*
X33228175Y-21097289D01*
X33226765Y-21095422D01*
X33226764Y-21095421D01*
X33161461Y-21035890D01*
X33159490Y-21034052D01*
X33093378Y-20971014D01*
X33091708Y-20969940D01*
X33080647Y-20961441D01*
X33080621Y-20961477D01*
X33076048Y-20958024D01*
X33076042Y-20958020D01*
X33076041Y-20958019D01*
X32998044Y-20909725D01*
X32996290Y-20908619D01*
X32978439Y-20897147D01*
X32916572Y-20857387D01*
X32916569Y-20857386D01*
X32916568Y-20857385D01*
X32911321Y-20854680D01*
X32911356Y-20854610D01*
X32907920Y-20852874D01*
X32907758Y-20853202D01*
X32902641Y-20850653D01*
X32854375Y-20831955D01*
X32813838Y-20816250D01*
X32812662Y-20815787D01*
X32721454Y-20779273D01*
X32719486Y-20778695D01*
X32713440Y-20777256D01*
X32712454Y-20776975D01*
X32615413Y-20758834D01*
X32614734Y-20758705D01*
X32515086Y-20739500D01*
X32515085Y-20739500D01*
X32511976Y-20739500D01*
X32308024Y-20739500D01*
X32308017Y-20739500D01*
X32261734Y-20748151D01*
X32250742Y-20749700D01*
X32200785Y-20754471D01*
X32159223Y-20766674D01*
X32147081Y-20769584D01*
X32113524Y-20775857D01*
X32107544Y-20776976D01*
X32107541Y-20776976D01*
X32107534Y-20776979D01*
X32060437Y-20795224D01*
X32050582Y-20798573D01*
X31999136Y-20813679D01*
X31999115Y-20813688D01*
X31963680Y-20831955D01*
X31951662Y-20837363D01*
X31917361Y-20850652D01*
X31871492Y-20879053D01*
X31863038Y-20883839D01*
X31812322Y-20909986D01*
X31783674Y-20932514D01*
X31772306Y-20940466D01*
X31743959Y-20958018D01*
X31743956Y-20958020D01*
X31701537Y-20996690D01*
X31694652Y-21002522D01*
X31647116Y-21039904D01*
X31647114Y-21039906D01*
X31625507Y-21064842D01*
X31615337Y-21075271D01*
X31593239Y-21095416D01*
X31556577Y-21143964D01*
X31551338Y-21150436D01*
X31509483Y-21198740D01*
X31494702Y-21224341D01*
X31486274Y-21237060D01*
X31470326Y-21258180D01*
X31441688Y-21315691D01*
X31438077Y-21322415D01*
X31404397Y-21380752D01*
X31404395Y-21380757D01*
X31395854Y-21405435D01*
X31389678Y-21420143D01*
X31379416Y-21440754D01*
X31379416Y-21440755D01*
X31360896Y-21505840D01*
X31358812Y-21512456D01*
X31335656Y-21579365D01*
X31335655Y-21579369D01*
X31332427Y-21601816D01*
X31328958Y-21618094D01*
X31323603Y-21636916D01*
X31323603Y-21636917D01*
X31317041Y-21707726D01*
X31316308Y-21713929D01*
X31305746Y-21787396D01*
X31305745Y-21787401D01*
X31306660Y-21806616D01*
X31306272Y-21823944D01*
X31304785Y-21840002D01*
X31304785Y-21840003D01*
X20158215Y-21840003D01*
X20158215Y-21840000D01*
X20151336Y-21765773D01*
X20150948Y-21760240D01*
X20147254Y-21682669D01*
X20143534Y-21667338D01*
X20140565Y-21649531D01*
X20139397Y-21636917D01*
X20118054Y-21561905D01*
X20116823Y-21557233D01*
X20104355Y-21505840D01*
X20097704Y-21478424D01*
X20092579Y-21467202D01*
X20086107Y-21449627D01*
X20083582Y-21440750D01*
X20053708Y-21380756D01*
X20047298Y-21367882D01*
X20045504Y-21364122D01*
X20023386Y-21315691D01*
X20010396Y-21287247D01*
X20005243Y-21280011D01*
X19995249Y-21263353D01*
X19992673Y-21258179D01*
X19992671Y-21258177D01*
X19992670Y-21258174D01*
X19941542Y-21190471D01*
X19939488Y-21187671D01*
X19926870Y-21169952D01*
X19888486Y-21116048D01*
X19884550Y-21112295D01*
X19871175Y-21097289D01*
X19869765Y-21095422D01*
X19869764Y-21095421D01*
X19804461Y-21035890D01*
X19802490Y-21034052D01*
X19736378Y-20971014D01*
X19734708Y-20969940D01*
X19723647Y-20961441D01*
X19723621Y-20961477D01*
X19719048Y-20958024D01*
X19719042Y-20958020D01*
X19719041Y-20958019D01*
X19641044Y-20909725D01*
X19639290Y-20908619D01*
X19621439Y-20897147D01*
X19559572Y-20857387D01*
X19559569Y-20857386D01*
X19559568Y-20857385D01*
X19554321Y-20854680D01*
X19554356Y-20854610D01*
X19550920Y-20852874D01*
X19550758Y-20853202D01*
X19545641Y-20850653D01*
X19497375Y-20831955D01*
X19456838Y-20816250D01*
X19455662Y-20815787D01*
X19364454Y-20779273D01*
X19362486Y-20778695D01*
X19356440Y-20777256D01*
X19355454Y-20776975D01*
X19258413Y-20758834D01*
X19257734Y-20758705D01*
X19158086Y-20739500D01*
X19158085Y-20739500D01*
X19154976Y-20739500D01*
X18951024Y-20739500D01*
X18951017Y-20739500D01*
X18904734Y-20748151D01*
X18893742Y-20749700D01*
X18843785Y-20754471D01*
X18802223Y-20766674D01*
X18790081Y-20769584D01*
X18756524Y-20775857D01*
X18750544Y-20776976D01*
X18750541Y-20776976D01*
X18750534Y-20776979D01*
X18703437Y-20795224D01*
X18693582Y-20798573D01*
X18642136Y-20813679D01*
X18642115Y-20813688D01*
X18606680Y-20831955D01*
X18594662Y-20837363D01*
X18560361Y-20850652D01*
X18514492Y-20879053D01*
X18506038Y-20883839D01*
X18455322Y-20909986D01*
X18426674Y-20932514D01*
X18415306Y-20940466D01*
X18386959Y-20958018D01*
X18386956Y-20958020D01*
X18344537Y-20996690D01*
X18337652Y-21002522D01*
X18290116Y-21039904D01*
X18290114Y-21039906D01*
X18268507Y-21064842D01*
X18258337Y-21075271D01*
X18236239Y-21095416D01*
X18199577Y-21143964D01*
X18194338Y-21150436D01*
X18152483Y-21198740D01*
X18137702Y-21224341D01*
X18129274Y-21237060D01*
X18113326Y-21258180D01*
X18084688Y-21315691D01*
X18081077Y-21322415D01*
X18047397Y-21380752D01*
X18047395Y-21380757D01*
X18038854Y-21405435D01*
X18032678Y-21420143D01*
X18022416Y-21440754D01*
X18022416Y-21440755D01*
X18003896Y-21505840D01*
X18001812Y-21512456D01*
X17978656Y-21579365D01*
X17978655Y-21579369D01*
X17975427Y-21601816D01*
X17971958Y-21618094D01*
X17966603Y-21636916D01*
X17966603Y-21636917D01*
X17960041Y-21707726D01*
X17959308Y-21713929D01*
X17948746Y-21787396D01*
X17948745Y-21787401D01*
X17949660Y-21806616D01*
X17949272Y-21823944D01*
X17947785Y-21840002D01*
X17947785Y-21840003D01*
X6801215Y-21840003D01*
X6801215Y-21840000D01*
X6794336Y-21765773D01*
X6793948Y-21760240D01*
X6790254Y-21682669D01*
X6786534Y-21667338D01*
X6783565Y-21649531D01*
X6782397Y-21636917D01*
X6761054Y-21561905D01*
X6759823Y-21557233D01*
X6747355Y-21505840D01*
X6740704Y-21478424D01*
X6735579Y-21467202D01*
X6729107Y-21449627D01*
X6726582Y-21440750D01*
X6696708Y-21380756D01*
X6690298Y-21367882D01*
X6688504Y-21364122D01*
X6666386Y-21315691D01*
X6653396Y-21287247D01*
X6648243Y-21280011D01*
X6638249Y-21263353D01*
X6635673Y-21258179D01*
X6635671Y-21258177D01*
X6635670Y-21258174D01*
X6584542Y-21190471D01*
X6582488Y-21187671D01*
X6569870Y-21169952D01*
X6531486Y-21116048D01*
X6527550Y-21112295D01*
X6514175Y-21097289D01*
X6512765Y-21095422D01*
X6512764Y-21095421D01*
X6447461Y-21035890D01*
X6445490Y-21034052D01*
X6379378Y-20971014D01*
X6377708Y-20969940D01*
X6366647Y-20961441D01*
X6366621Y-20961477D01*
X6362048Y-20958024D01*
X6362042Y-20958020D01*
X6362041Y-20958019D01*
X6284044Y-20909725D01*
X6282290Y-20908619D01*
X6264439Y-20897147D01*
X6202572Y-20857387D01*
X6202569Y-20857386D01*
X6202568Y-20857385D01*
X6197321Y-20854680D01*
X6197356Y-20854610D01*
X6193920Y-20852874D01*
X6193758Y-20853202D01*
X6188641Y-20850653D01*
X6140375Y-20831955D01*
X6099838Y-20816250D01*
X6098662Y-20815787D01*
X6007454Y-20779273D01*
X6005486Y-20778695D01*
X5999440Y-20777256D01*
X5998454Y-20776975D01*
X5901413Y-20758834D01*
X5900734Y-20758705D01*
X5801086Y-20739500D01*
X5801085Y-20739500D01*
X5797976Y-20739500D01*
X5594024Y-20739500D01*
X5594017Y-20739500D01*
X5547734Y-20748151D01*
X5536742Y-20749700D01*
X5486785Y-20754471D01*
X5445223Y-20766674D01*
X5433081Y-20769584D01*
X5399524Y-20775857D01*
X5393544Y-20776976D01*
X5393541Y-20776976D01*
X5393534Y-20776979D01*
X5346437Y-20795224D01*
X5336582Y-20798573D01*
X5285136Y-20813679D01*
X5285115Y-20813688D01*
X5249680Y-20831955D01*
X5237662Y-20837363D01*
X5203361Y-20850652D01*
X5157492Y-20879053D01*
X5149038Y-20883839D01*
X5098322Y-20909986D01*
X5069674Y-20932514D01*
X5058306Y-20940466D01*
X5029959Y-20958018D01*
X5029956Y-20958020D01*
X4987537Y-20996690D01*
X4980652Y-21002522D01*
X4933116Y-21039904D01*
X4933114Y-21039906D01*
X4911507Y-21064842D01*
X4901337Y-21075271D01*
X4879239Y-21095416D01*
X4842577Y-21143964D01*
X4837338Y-21150436D01*
X4795483Y-21198740D01*
X4780702Y-21224341D01*
X4772274Y-21237060D01*
X4756326Y-21258180D01*
X4727688Y-21315691D01*
X4724077Y-21322415D01*
X4690397Y-21380752D01*
X4690395Y-21380757D01*
X4681854Y-21405435D01*
X4675678Y-21420143D01*
X4665416Y-21440754D01*
X4665416Y-21440755D01*
X4646896Y-21505840D01*
X4644812Y-21512456D01*
X4621656Y-21579365D01*
X4621655Y-21579369D01*
X4618427Y-21601816D01*
X4614958Y-21618094D01*
X4609603Y-21636916D01*
X4609603Y-21636917D01*
X4603041Y-21707726D01*
X4602308Y-21713929D01*
X4591746Y-21787396D01*
X4591745Y-21787401D01*
X4592660Y-21806616D01*
X4592272Y-21823944D01*
X4590785Y-21840002D01*
X4590785Y-21840003D01*
X229824Y-21840003D01*
X311082Y-21783105D01*
X478105Y-21616082D01*
X613600Y-21422578D01*
X713429Y-21208492D01*
X713432Y-21208486D01*
X770636Y-20995000D01*
X-126314Y-20995000D01*
X-100507Y-20954844D01*
X-60000Y-20816889D01*
X-60000Y-20673111D01*
X-100507Y-20535156D01*
X-126314Y-20495000D01*
X770636Y-20495000D01*
X770635Y-20494999D01*
X713432Y-20281513D01*
X713429Y-20281507D01*
X613600Y-20067422D01*
X613599Y-20067420D01*
X478113Y-19873926D01*
X478108Y-19873920D01*
X311078Y-19706890D01*
X125405Y-19576879D01*
X81780Y-19522302D01*
X74588Y-19452804D01*
X106110Y-19390449D01*
X125406Y-19373730D01*
X258395Y-19280610D01*
X311401Y-19243495D01*
X478495Y-19076401D01*
X614035Y-18882830D01*
X713903Y-18668663D01*
X748378Y-18540000D01*
X7464815Y-18540000D01*
X7483503Y-18717805D01*
X7483504Y-18717807D01*
X7538747Y-18887829D01*
X7538750Y-18887835D01*
X7628141Y-19042665D01*
X7658512Y-19076395D01*
X7747764Y-19175521D01*
X7747767Y-19175523D01*
X7747770Y-19175526D01*
X7892407Y-19280612D01*
X8055733Y-19353329D01*
X8230609Y-19390500D01*
X8230610Y-19390500D01*
X8409389Y-19390500D01*
X8409391Y-19390500D01*
X8584267Y-19353329D01*
X8747593Y-19280612D01*
X8892230Y-19175526D01*
X9011859Y-19042665D01*
X9101250Y-18887835D01*
X9156497Y-18717803D01*
X9175185Y-18540000D01*
X9156497Y-18362197D01*
X9140471Y-18312877D01*
X9135671Y-18292245D01*
X9135190Y-18288906D01*
X9023343Y-17775661D01*
X9020500Y-17749258D01*
X9020500Y-16900923D01*
X9028503Y-16871056D01*
X25519500Y-16871056D01*
X25529715Y-16912500D01*
X25560210Y-17036226D01*
X25639263Y-17186849D01*
X25639266Y-17186852D01*
X25752071Y-17314183D01*
X25780200Y-17333599D01*
X25892068Y-17410817D01*
X25892069Y-17410817D01*
X25892070Y-17410818D01*
X26051128Y-17471140D01*
X26127028Y-17480356D01*
X26177626Y-17486500D01*
X26177628Y-17486500D01*
X26262374Y-17486500D01*
X26304538Y-17481380D01*
X26388872Y-17471140D01*
X26547930Y-17410818D01*
X26687929Y-17314183D01*
X26800734Y-17186852D01*
X26879790Y-17036225D01*
X26920500Y-16871056D01*
X26920500Y-16700944D01*
X26879790Y-16535775D01*
X26879789Y-16535773D01*
X26800736Y-16385150D01*
X26763247Y-16342834D01*
X26687929Y-16257817D01*
X26607343Y-16202192D01*
X26547931Y-16161182D01*
X26388874Y-16100860D01*
X26388868Y-16100859D01*
X26262374Y-16085500D01*
X26262372Y-16085500D01*
X26177628Y-16085500D01*
X26177626Y-16085500D01*
X26051131Y-16100859D01*
X26051125Y-16100860D01*
X25892068Y-16161182D01*
X25752072Y-16257816D01*
X25639263Y-16385150D01*
X25560210Y-16535773D01*
X25526447Y-16672758D01*
X25519500Y-16700944D01*
X25519500Y-16871056D01*
X9028503Y-16871056D01*
X9037113Y-16838923D01*
X9101250Y-16727835D01*
X9156497Y-16557803D01*
X9175185Y-16380000D01*
X9156497Y-16202197D01*
X9101250Y-16032165D01*
X9037113Y-15921075D01*
X9020500Y-15859075D01*
X9020500Y-14740923D01*
X9037113Y-14678923D01*
X9067376Y-14626506D01*
X9101250Y-14567835D01*
X9156497Y-14397803D01*
X9175185Y-14220000D01*
X9156497Y-14042197D01*
X9101250Y-13872165D01*
X9091397Y-13855099D01*
X9037113Y-13761075D01*
X9020500Y-13699075D01*
X9020500Y-12590923D01*
X9037113Y-12528923D01*
X9050308Y-12506069D01*
X9101250Y-12417835D01*
X9156497Y-12247803D01*
X9175185Y-12070000D01*
X9156497Y-11892197D01*
X9101250Y-11722165D01*
X9044285Y-11623498D01*
X9037113Y-11611075D01*
X9020500Y-11549075D01*
X9020500Y-10430923D01*
X9037113Y-10368923D01*
X9038820Y-10365966D01*
X9101250Y-10257835D01*
X9156497Y-10087803D01*
X9175185Y-9910000D01*
X9156497Y-9732197D01*
X9101250Y-9562165D01*
X9101249Y-9562163D01*
X9037113Y-9451075D01*
X9020500Y-9389075D01*
X9020500Y-8624500D01*
X9040185Y-8557461D01*
X9092989Y-8511706D01*
X9144500Y-8500500D01*
X12527276Y-8500500D01*
X12554809Y-8503595D01*
X12651103Y-8525525D01*
X12712097Y-8559604D01*
X12744472Y-8618894D01*
X12766403Y-8715192D01*
X12766404Y-8715194D01*
X12769500Y-8742729D01*
X12769500Y-11907269D01*
X12766404Y-11934803D01*
X12613568Y-12605906D01*
X12610242Y-12621279D01*
X12610148Y-12621258D01*
X12607206Y-12634701D01*
X12583253Y-12713667D01*
X12583252Y-12713669D01*
X12564901Y-12900000D01*
X12583252Y-13086331D01*
X12583253Y-13086333D01*
X12637604Y-13265502D01*
X12725862Y-13430623D01*
X12725864Y-13430626D01*
X12844642Y-13575357D01*
X12989373Y-13694135D01*
X12989376Y-13694137D01*
X13114610Y-13761075D01*
X13154499Y-13782396D01*
X13333666Y-13836746D01*
X13333668Y-13836747D01*
X13350374Y-13838392D01*
X13520000Y-13855099D01*
X13706331Y-13836747D01*
X13885501Y-13782396D01*
X14050625Y-13694136D01*
X14195357Y-13575357D01*
X14314136Y-13430625D01*
X14402396Y-13265501D01*
X14456747Y-13086331D01*
X14475099Y-12900000D01*
X14456747Y-12713669D01*
X14456747Y-12713667D01*
X14431161Y-12629326D01*
X14427535Y-12610248D01*
X14427109Y-12610314D01*
X14426438Y-12605951D01*
X14426437Y-12605936D01*
X14304385Y-12070000D01*
X14273596Y-11934806D01*
X14270500Y-11907272D01*
X14270500Y-8871056D01*
X25519500Y-8871056D01*
X25530677Y-8916402D01*
X25560210Y-9036226D01*
X25639263Y-9186849D01*
X25667778Y-9219035D01*
X25752071Y-9314183D01*
X25821343Y-9361998D01*
X25892068Y-9410817D01*
X25892069Y-9410817D01*
X25892070Y-9410818D01*
X26051128Y-9471140D01*
X26127028Y-9480356D01*
X26177626Y-9486500D01*
X26177628Y-9486500D01*
X26262374Y-9486500D01*
X26304538Y-9481380D01*
X26388872Y-9471140D01*
X26547930Y-9410818D01*
X26687929Y-9314183D01*
X26800734Y-9186852D01*
X26879790Y-9036225D01*
X26920500Y-8871056D01*
X26920500Y-8700944D01*
X26879790Y-8535775D01*
X26868537Y-8514334D01*
X26800736Y-8385150D01*
X26781560Y-8363505D01*
X26687929Y-8257817D01*
X26638177Y-8223475D01*
X26547931Y-8161182D01*
X26388874Y-8100860D01*
X26388868Y-8100859D01*
X26262374Y-8085500D01*
X26262372Y-8085500D01*
X26177628Y-8085500D01*
X26177626Y-8085500D01*
X26051131Y-8100859D01*
X26051125Y-8100860D01*
X25892068Y-8161182D01*
X25752072Y-8257816D01*
X25639263Y-8385150D01*
X25560210Y-8535773D01*
X25528623Y-8663931D01*
X25519500Y-8700944D01*
X25519500Y-8871056D01*
X14270500Y-8871056D01*
X14270500Y-8742726D01*
X14273596Y-8715192D01*
X14426422Y-8044129D01*
X14426422Y-8044126D01*
X14426437Y-8044063D01*
X14428750Y-8033374D01*
X14428750Y-8033371D01*
X14429759Y-8028710D01*
X14429854Y-8028730D01*
X14432792Y-8015295D01*
X14456747Y-7936331D01*
X14475099Y-7750000D01*
X14456747Y-7563669D01*
X14402396Y-7384499D01*
X14393133Y-7367169D01*
X14314137Y-7219376D01*
X14314135Y-7219373D01*
X14195357Y-7074642D01*
X14050626Y-6955864D01*
X14050623Y-6955862D01*
X13885502Y-6867604D01*
X13706333Y-6813253D01*
X13706331Y-6813252D01*
X13520000Y-6794901D01*
X13333668Y-6813253D01*
X13249322Y-6838838D01*
X13230254Y-6842466D01*
X13230319Y-6842888D01*
X13225932Y-6843562D01*
X12554805Y-6996404D01*
X12527270Y-6999500D01*
X9099731Y-6999500D01*
X9082194Y-6998254D01*
X9081449Y-6998147D01*
X9081444Y-6998146D01*
X8739759Y-6949333D01*
X8451386Y-6908136D01*
X8443145Y-6906673D01*
X8409394Y-6899500D01*
X8409391Y-6899500D01*
X8393008Y-6899500D01*
X8379756Y-6898790D01*
X8378765Y-6898683D01*
X8369780Y-6897717D01*
X8368184Y-6897602D01*
X8368168Y-6897601D01*
X8273035Y-6899126D01*
X8267360Y-6899500D01*
X8230609Y-6899500D01*
X8199954Y-6906015D01*
X8055733Y-6936670D01*
X8055728Y-6936672D01*
X7892408Y-7009387D01*
X7747768Y-7114475D01*
X7628140Y-7247336D01*
X7538750Y-7402164D01*
X7538747Y-7402170D01*
X7483504Y-7572192D01*
X7483503Y-7572194D01*
X7464815Y-7750000D01*
X7483503Y-7927805D01*
X7483504Y-7927807D01*
X7499526Y-7977117D01*
X7504325Y-7997735D01*
X7504810Y-8001103D01*
X7565677Y-8280403D01*
X7613936Y-8501855D01*
X7616656Y-8514334D01*
X7619500Y-8540737D01*
X7619500Y-9389075D01*
X7602887Y-9451075D01*
X7538750Y-9562163D01*
X7483504Y-9732192D01*
X7483503Y-9732194D01*
X7464815Y-9910000D01*
X7483503Y-10087805D01*
X7483504Y-10087807D01*
X7538747Y-10257829D01*
X7538750Y-10257835D01*
X7569214Y-10310601D01*
X7602887Y-10368923D01*
X7619500Y-10430923D01*
X7619500Y-11549075D01*
X7602887Y-11611075D01*
X7538750Y-11722163D01*
X7483504Y-11892192D01*
X7483503Y-11892194D01*
X7464815Y-12070000D01*
X7483503Y-12247805D01*
X7483504Y-12247807D01*
X7538747Y-12417829D01*
X7538750Y-12417835D01*
X7602887Y-12528923D01*
X7619500Y-12590923D01*
X7619500Y-13699075D01*
X7602887Y-13761075D01*
X7538750Y-13872163D01*
X7483504Y-14042192D01*
X7483503Y-14042194D01*
X7464815Y-14220000D01*
X7483503Y-14397805D01*
X7483504Y-14397807D01*
X7538747Y-14567829D01*
X7538750Y-14567835D01*
X7602887Y-14678923D01*
X7619500Y-14740923D01*
X7619500Y-15859075D01*
X7602887Y-15921075D01*
X7538750Y-16032163D01*
X7483504Y-16202192D01*
X7483503Y-16202194D01*
X7464815Y-16380000D01*
X7483503Y-16557805D01*
X7483504Y-16557807D01*
X7538747Y-16727829D01*
X7538750Y-16727835D01*
X7599712Y-16833425D01*
X7602887Y-16838923D01*
X7619500Y-16900923D01*
X7619500Y-17749261D01*
X7616656Y-17775664D01*
X7504811Y-18288889D01*
X7502114Y-18301787D01*
X7501739Y-18301708D01*
X7498497Y-18316049D01*
X7483505Y-18362190D01*
X7483503Y-18362195D01*
X7464815Y-18540000D01*
X748378Y-18540000D01*
X775063Y-18440408D01*
X795659Y-18205000D01*
X775063Y-17969592D01*
X716026Y-17749261D01*
X713905Y-17741344D01*
X713904Y-17741343D01*
X713903Y-17741337D01*
X614035Y-17527171D01*
X574802Y-17471139D01*
X478494Y-17333597D01*
X311402Y-17166506D01*
X311396Y-17166501D01*
X125842Y-17036575D01*
X82217Y-16981998D01*
X75023Y-16912500D01*
X106546Y-16850145D01*
X125842Y-16833425D01*
X148026Y-16817891D01*
X311401Y-16703495D01*
X478495Y-16536401D01*
X614035Y-16342830D01*
X713903Y-16128663D01*
X775063Y-15900408D01*
X795659Y-15665000D01*
X775063Y-15429592D01*
X713903Y-15201337D01*
X614035Y-14987171D01*
X478495Y-14793599D01*
X478494Y-14793597D01*
X311402Y-14626506D01*
X311396Y-14626501D01*
X125842Y-14496575D01*
X82217Y-14441998D01*
X75023Y-14372500D01*
X106546Y-14310145D01*
X125842Y-14293425D01*
X148026Y-14277891D01*
X311401Y-14163495D01*
X478495Y-13996401D01*
X614035Y-13802830D01*
X713903Y-13588663D01*
X775063Y-13360408D01*
X795659Y-13125000D01*
X775063Y-12889592D01*
X713903Y-12661337D01*
X614035Y-12447171D01*
X478495Y-12253599D01*
X478494Y-12253597D01*
X311402Y-12086506D01*
X311396Y-12086501D01*
X125842Y-11956575D01*
X82217Y-11901998D01*
X75023Y-11832500D01*
X106546Y-11770145D01*
X125842Y-11753425D01*
X170489Y-11722163D01*
X311401Y-11623495D01*
X478495Y-11456401D01*
X614035Y-11262830D01*
X713903Y-11048663D01*
X775063Y-10820408D01*
X795659Y-10585000D01*
X775063Y-10349592D01*
X718636Y-10139002D01*
X713905Y-10121344D01*
X713904Y-10121343D01*
X713903Y-10121337D01*
X614035Y-9907171D01*
X604837Y-9894034D01*
X478494Y-9713597D01*
X311402Y-9546506D01*
X311396Y-9546501D01*
X125842Y-9416575D01*
X82217Y-9361998D01*
X75023Y-9292500D01*
X106546Y-9230145D01*
X125842Y-9213425D01*
X163796Y-9186849D01*
X311401Y-9083495D01*
X478495Y-8916401D01*
X614035Y-8722830D01*
X713903Y-8508663D01*
X775063Y-8280408D01*
X795659Y-8045000D01*
X775063Y-7809592D01*
X713903Y-7581337D01*
X614035Y-7367171D01*
X530126Y-7247335D01*
X478494Y-7173597D01*
X311402Y-7006506D01*
X311396Y-7006501D01*
X125842Y-6876575D01*
X82217Y-6821998D01*
X75023Y-6752500D01*
X106546Y-6690145D01*
X125842Y-6673425D01*
X148026Y-6657891D01*
X311401Y-6543495D01*
X478495Y-6376401D01*
X614035Y-6182830D01*
X713903Y-5968663D01*
X775063Y-5740408D01*
X795659Y-5505000D01*
X775063Y-5269592D01*
X713903Y-5041337D01*
X614035Y-4827171D01*
X478495Y-4633599D01*
X356567Y-4511671D01*
X323084Y-4450351D01*
X328068Y-4380659D01*
X369939Y-4324725D01*
X400915Y-4307810D01*
X532331Y-4258796D01*
X647546Y-4172546D01*
X733796Y-4057331D01*
X784091Y-3922483D01*
X790500Y-3862873D01*
X790499Y-2067128D01*
X785299Y-2018757D01*
X784091Y-2007516D01*
X733797Y-1872671D01*
X733793Y-1872664D01*
X709343Y-1840003D01*
X4590785Y-1840003D01*
X4597661Y-1914214D01*
X4598049Y-1919752D01*
X4601745Y-1997328D01*
X4601746Y-1997330D01*
X4605468Y-2012675D01*
X4608433Y-2030458D01*
X4609603Y-2043083D01*
X4625976Y-2100630D01*
X4630945Y-2118094D01*
X4632182Y-2122792D01*
X4651292Y-2201566D01*
X4651297Y-2201579D01*
X4656421Y-2212799D01*
X4662891Y-2230369D01*
X4665418Y-2239250D01*
X4701727Y-2312170D01*
X4703496Y-2315877D01*
X4738605Y-2392756D01*
X4743753Y-2399984D01*
X4753748Y-2416643D01*
X4756327Y-2421821D01*
X4807494Y-2489577D01*
X4809475Y-2492277D01*
X4860514Y-2563952D01*
X4864443Y-2567698D01*
X4877822Y-2582707D01*
X4879236Y-2584579D01*
X4944541Y-2644111D01*
X4946504Y-2645943D01*
X4979578Y-2677478D01*
X5012623Y-2708987D01*
X5014285Y-2710055D01*
X5025352Y-2718559D01*
X5025380Y-2718523D01*
X5029951Y-2721974D01*
X5029959Y-2721981D01*
X5092495Y-2760701D01*
X5107946Y-2770268D01*
X5109709Y-2771380D01*
X5189429Y-2822614D01*
X5194684Y-2825323D01*
X5194647Y-2825394D01*
X5198064Y-2827120D01*
X5198229Y-2826791D01*
X5203354Y-2829342D01*
X5203363Y-2829348D01*
X5203371Y-2829351D01*
X5292091Y-2863722D01*
X5293352Y-2864217D01*
X5384543Y-2900725D01*
X5384545Y-2900725D01*
X5384547Y-2900726D01*
X5386532Y-2901309D01*
X5392585Y-2902750D01*
X5393526Y-2903017D01*
X5393544Y-2903024D01*
X5490595Y-2921165D01*
X5491010Y-2921244D01*
X5590915Y-2940500D01*
X5797976Y-2940500D01*
X5844258Y-2931847D01*
X5855236Y-2930300D01*
X5905218Y-2925528D01*
X5946791Y-2913320D01*
X5958908Y-2910415D01*
X5998456Y-2903024D01*
X6045588Y-2884764D01*
X6055405Y-2881428D01*
X6106875Y-2866316D01*
X6142329Y-2848037D01*
X6154332Y-2842637D01*
X6188637Y-2829348D01*
X6234509Y-2800943D01*
X6242955Y-2796160D01*
X6293682Y-2770011D01*
X6322337Y-2747474D01*
X6333695Y-2739531D01*
X6362041Y-2721981D01*
X6404466Y-2683304D01*
X6411326Y-2677492D01*
X6458886Y-2640092D01*
X6480496Y-2615150D01*
X6490657Y-2604730D01*
X6512764Y-2584579D01*
X6549429Y-2536024D01*
X6554650Y-2529572D01*
X6596519Y-2481256D01*
X6611299Y-2455653D01*
X6619724Y-2442938D01*
X6635673Y-2421821D01*
X6664333Y-2364260D01*
X6667911Y-2357598D01*
X6701604Y-2299244D01*
X6710146Y-2274563D01*
X6716323Y-2259851D01*
X6726582Y-2239250D01*
X6745110Y-2174127D01*
X6747186Y-2167542D01*
X6770344Y-2100633D01*
X6773570Y-2078186D01*
X6777039Y-2061911D01*
X6782397Y-2043083D01*
X6788958Y-1972259D01*
X6789685Y-1966100D01*
X6800254Y-1892602D01*
X6799339Y-1873399D01*
X6799727Y-1856052D01*
X6801215Y-1840003D01*
X17947785Y-1840003D01*
X17954661Y-1914214D01*
X17955049Y-1919752D01*
X17958745Y-1997328D01*
X17958746Y-1997330D01*
X17962468Y-2012675D01*
X17965433Y-2030458D01*
X17966603Y-2043083D01*
X17982976Y-2100630D01*
X17987945Y-2118094D01*
X17989182Y-2122792D01*
X18008292Y-2201566D01*
X18008297Y-2201579D01*
X18013421Y-2212799D01*
X18019891Y-2230369D01*
X18022418Y-2239250D01*
X18058727Y-2312170D01*
X18060496Y-2315877D01*
X18095605Y-2392756D01*
X18100753Y-2399984D01*
X18110748Y-2416643D01*
X18113327Y-2421821D01*
X18164494Y-2489577D01*
X18166475Y-2492277D01*
X18217514Y-2563952D01*
X18221443Y-2567698D01*
X18234822Y-2582707D01*
X18236236Y-2584579D01*
X18301541Y-2644111D01*
X18303504Y-2645943D01*
X18336578Y-2677478D01*
X18369623Y-2708987D01*
X18371285Y-2710055D01*
X18382352Y-2718559D01*
X18382380Y-2718523D01*
X18386951Y-2721974D01*
X18386959Y-2721981D01*
X18449495Y-2760701D01*
X18464946Y-2770268D01*
X18466709Y-2771380D01*
X18546429Y-2822614D01*
X18551684Y-2825323D01*
X18551647Y-2825394D01*
X18555064Y-2827120D01*
X18555229Y-2826791D01*
X18560354Y-2829342D01*
X18560363Y-2829348D01*
X18560371Y-2829351D01*
X18649091Y-2863722D01*
X18650352Y-2864217D01*
X18741543Y-2900725D01*
X18741545Y-2900725D01*
X18741547Y-2900726D01*
X18743532Y-2901309D01*
X18749585Y-2902750D01*
X18750526Y-2903017D01*
X18750544Y-2903024D01*
X18847595Y-2921165D01*
X18848010Y-2921244D01*
X18947915Y-2940500D01*
X19154976Y-2940500D01*
X19201258Y-2931847D01*
X19212236Y-2930300D01*
X19262218Y-2925528D01*
X19303791Y-2913320D01*
X19315908Y-2910415D01*
X19355456Y-2903024D01*
X19402588Y-2884764D01*
X19412405Y-2881428D01*
X19463875Y-2866316D01*
X19499329Y-2848037D01*
X19511332Y-2842637D01*
X19545637Y-2829348D01*
X19591509Y-2800943D01*
X19599955Y-2796160D01*
X19650682Y-2770011D01*
X19679337Y-2747474D01*
X19690695Y-2739531D01*
X19719041Y-2721981D01*
X19761466Y-2683304D01*
X19768326Y-2677492D01*
X19815886Y-2640092D01*
X19837496Y-2615150D01*
X19847657Y-2604730D01*
X19869764Y-2584579D01*
X19906429Y-2536024D01*
X19911650Y-2529572D01*
X19953519Y-2481256D01*
X19968299Y-2455653D01*
X19976724Y-2442938D01*
X19992673Y-2421821D01*
X20021333Y-2364260D01*
X20024911Y-2357598D01*
X20058604Y-2299244D01*
X20067146Y-2274563D01*
X20073323Y-2259851D01*
X20083582Y-2239250D01*
X20102110Y-2174127D01*
X20104186Y-2167542D01*
X20127344Y-2100633D01*
X20130570Y-2078186D01*
X20134039Y-2061911D01*
X20139397Y-2043083D01*
X20145958Y-1972259D01*
X20146685Y-1966100D01*
X20157254Y-1892602D01*
X20156339Y-1873399D01*
X20156727Y-1856052D01*
X20158215Y-1840003D01*
X31304785Y-1840003D01*
X31311661Y-1914214D01*
X31312049Y-1919752D01*
X31315745Y-1997328D01*
X31315746Y-1997330D01*
X31319468Y-2012675D01*
X31322433Y-2030458D01*
X31323603Y-2043083D01*
X31339976Y-2100630D01*
X31344945Y-2118094D01*
X31346182Y-2122792D01*
X31365292Y-2201566D01*
X31365297Y-2201579D01*
X31370421Y-2212799D01*
X31376891Y-2230369D01*
X31379418Y-2239250D01*
X31415727Y-2312170D01*
X31417496Y-2315877D01*
X31452605Y-2392756D01*
X31457753Y-2399984D01*
X31467748Y-2416643D01*
X31470327Y-2421821D01*
X31521494Y-2489577D01*
X31523475Y-2492277D01*
X31574514Y-2563952D01*
X31578443Y-2567698D01*
X31591822Y-2582707D01*
X31593236Y-2584579D01*
X31658541Y-2644111D01*
X31660504Y-2645943D01*
X31693578Y-2677478D01*
X31726623Y-2708987D01*
X31728285Y-2710055D01*
X31739352Y-2718559D01*
X31739380Y-2718523D01*
X31743951Y-2721974D01*
X31743959Y-2721981D01*
X31806495Y-2760701D01*
X31821946Y-2770268D01*
X31823709Y-2771380D01*
X31903429Y-2822614D01*
X31908684Y-2825323D01*
X31908647Y-2825394D01*
X31912064Y-2827120D01*
X31912229Y-2826791D01*
X31917354Y-2829342D01*
X31917363Y-2829348D01*
X31917371Y-2829351D01*
X32006091Y-2863722D01*
X32007352Y-2864217D01*
X32098543Y-2900725D01*
X32098545Y-2900725D01*
X32098547Y-2900726D01*
X32100532Y-2901309D01*
X32106585Y-2902750D01*
X32107526Y-2903017D01*
X32107544Y-2903024D01*
X32204595Y-2921165D01*
X32205010Y-2921244D01*
X32304915Y-2940500D01*
X32511976Y-2940500D01*
X32558258Y-2931847D01*
X32569236Y-2930300D01*
X32619218Y-2925528D01*
X32660791Y-2913320D01*
X32672908Y-2910415D01*
X32712456Y-2903024D01*
X32759588Y-2884764D01*
X32769405Y-2881428D01*
X32820875Y-2866316D01*
X32856329Y-2848037D01*
X32868332Y-2842637D01*
X32902637Y-2829348D01*
X32948509Y-2800943D01*
X32956955Y-2796160D01*
X33007682Y-2770011D01*
X33036337Y-2747474D01*
X33047695Y-2739531D01*
X33076041Y-2721981D01*
X33118466Y-2683304D01*
X33125326Y-2677492D01*
X33172886Y-2640092D01*
X33194496Y-2615150D01*
X33204657Y-2604730D01*
X33226764Y-2584579D01*
X33263429Y-2536024D01*
X33268650Y-2529572D01*
X33310519Y-2481256D01*
X33325299Y-2455653D01*
X33333724Y-2442938D01*
X33349673Y-2421821D01*
X33378333Y-2364260D01*
X33381911Y-2357598D01*
X33415604Y-2299244D01*
X33424146Y-2274563D01*
X33430323Y-2259851D01*
X33440582Y-2239250D01*
X33459110Y-2174127D01*
X33461186Y-2167542D01*
X33484344Y-2100633D01*
X33487570Y-2078186D01*
X33491039Y-2061911D01*
X33496397Y-2043083D01*
X33502958Y-1972259D01*
X33503685Y-1966100D01*
X33514254Y-1892602D01*
X33513339Y-1873399D01*
X33513727Y-1856052D01*
X33515215Y-1840000D01*
X33508336Y-1765773D01*
X33507948Y-1760240D01*
X33507815Y-1757455D01*
X33504254Y-1682670D01*
X33501472Y-1671206D01*
X33500534Y-1667338D01*
X33497565Y-1649531D01*
X33496397Y-1636917D01*
X33475054Y-1561905D01*
X33473823Y-1557233D01*
X33462960Y-1512456D01*
X33454704Y-1478424D01*
X33449579Y-1467202D01*
X33443107Y-1449627D01*
X33440582Y-1440750D01*
X33410708Y-1380756D01*
X33404298Y-1367882D01*
X33402504Y-1364122D01*
X33380386Y-1315691D01*
X33367396Y-1287247D01*
X33362243Y-1280011D01*
X33352249Y-1263353D01*
X33349673Y-1258179D01*
X33349671Y-1258177D01*
X33349670Y-1258174D01*
X33298542Y-1190471D01*
X33296488Y-1187671D01*
X33245486Y-1116048D01*
X33241552Y-1112297D01*
X33228175Y-1097289D01*
X33226765Y-1095422D01*
X33226764Y-1095421D01*
X33161461Y-1035890D01*
X33159490Y-1034052D01*
X33093378Y-971014D01*
X33091708Y-969940D01*
X33080647Y-961441D01*
X33080621Y-961477D01*
X33076048Y-958024D01*
X33076042Y-958020D01*
X33076041Y-958019D01*
X32998044Y-909725D01*
X32996290Y-908619D01*
X32978439Y-897147D01*
X32916572Y-857387D01*
X32916569Y-857386D01*
X32916568Y-857385D01*
X32911321Y-854680D01*
X32911356Y-854610D01*
X32907920Y-852874D01*
X32907758Y-853202D01*
X32902641Y-850653D01*
X32854375Y-831955D01*
X32813838Y-816250D01*
X32812662Y-815787D01*
X32721454Y-779273D01*
X32719486Y-778695D01*
X32713440Y-777256D01*
X32712454Y-776975D01*
X32615413Y-758834D01*
X32614734Y-758705D01*
X32515086Y-739500D01*
X32515085Y-739500D01*
X32511976Y-739500D01*
X32308024Y-739500D01*
X32308017Y-739500D01*
X32261734Y-748151D01*
X32250742Y-749700D01*
X32200785Y-754471D01*
X32159223Y-766674D01*
X32147081Y-769584D01*
X32113524Y-775857D01*
X32107544Y-776976D01*
X32107541Y-776976D01*
X32107534Y-776979D01*
X32060437Y-795224D01*
X32050582Y-798573D01*
X31999136Y-813679D01*
X31999115Y-813688D01*
X31963680Y-831955D01*
X31951662Y-837363D01*
X31917361Y-850652D01*
X31871492Y-879053D01*
X31863038Y-883839D01*
X31812322Y-909986D01*
X31783674Y-932514D01*
X31772306Y-940466D01*
X31743959Y-958018D01*
X31743956Y-958020D01*
X31701537Y-996690D01*
X31694652Y-1002522D01*
X31647116Y-1039904D01*
X31647114Y-1039906D01*
X31625507Y-1064842D01*
X31615337Y-1075271D01*
X31593239Y-1095416D01*
X31556577Y-1143964D01*
X31551338Y-1150436D01*
X31509483Y-1198740D01*
X31494702Y-1224341D01*
X31486274Y-1237060D01*
X31470326Y-1258180D01*
X31441688Y-1315691D01*
X31438077Y-1322415D01*
X31404397Y-1380752D01*
X31404395Y-1380757D01*
X31395854Y-1405435D01*
X31389678Y-1420143D01*
X31379416Y-1440754D01*
X31379416Y-1440755D01*
X31360896Y-1505840D01*
X31358812Y-1512456D01*
X31335656Y-1579365D01*
X31335655Y-1579369D01*
X31332427Y-1601816D01*
X31328958Y-1618094D01*
X31323603Y-1636916D01*
X31323603Y-1636917D01*
X31317041Y-1707726D01*
X31316308Y-1713929D01*
X31305746Y-1787396D01*
X31305745Y-1787401D01*
X31306660Y-1806616D01*
X31306272Y-1823944D01*
X31304785Y-1840002D01*
X31304785Y-1840003D01*
X20158215Y-1840003D01*
X20158215Y-1840000D01*
X20151336Y-1765773D01*
X20150948Y-1760240D01*
X20150815Y-1757455D01*
X20147254Y-1682670D01*
X20144472Y-1671206D01*
X20143534Y-1667338D01*
X20140565Y-1649531D01*
X20139397Y-1636917D01*
X20118054Y-1561905D01*
X20116823Y-1557233D01*
X20105960Y-1512456D01*
X20097704Y-1478424D01*
X20092579Y-1467202D01*
X20086107Y-1449627D01*
X20083582Y-1440750D01*
X20053708Y-1380756D01*
X20047298Y-1367882D01*
X20045504Y-1364122D01*
X20023386Y-1315691D01*
X20010396Y-1287247D01*
X20005243Y-1280011D01*
X19995249Y-1263353D01*
X19992673Y-1258179D01*
X19992671Y-1258177D01*
X19992670Y-1258174D01*
X19941542Y-1190471D01*
X19939488Y-1187671D01*
X19888486Y-1116048D01*
X19884552Y-1112297D01*
X19871175Y-1097289D01*
X19869765Y-1095422D01*
X19869764Y-1095421D01*
X19804461Y-1035890D01*
X19802490Y-1034052D01*
X19736378Y-971014D01*
X19734708Y-969940D01*
X19723647Y-961441D01*
X19723621Y-961477D01*
X19719048Y-958024D01*
X19719042Y-958020D01*
X19719041Y-958019D01*
X19641044Y-909725D01*
X19639290Y-908619D01*
X19621439Y-897147D01*
X19559572Y-857387D01*
X19559569Y-857386D01*
X19559568Y-857385D01*
X19554321Y-854680D01*
X19554356Y-854610D01*
X19550920Y-852874D01*
X19550758Y-853202D01*
X19545641Y-850653D01*
X19497375Y-831955D01*
X19456838Y-816250D01*
X19455662Y-815787D01*
X19364454Y-779273D01*
X19362486Y-778695D01*
X19356440Y-777256D01*
X19355454Y-776975D01*
X19258413Y-758834D01*
X19257734Y-758705D01*
X19158086Y-739500D01*
X19158085Y-739500D01*
X19154976Y-739500D01*
X18951024Y-739500D01*
X18951017Y-739500D01*
X18904734Y-748151D01*
X18893742Y-749700D01*
X18843785Y-754471D01*
X18802223Y-766674D01*
X18790081Y-769584D01*
X18756524Y-775857D01*
X18750544Y-776976D01*
X18750541Y-776976D01*
X18750534Y-776979D01*
X18703437Y-795224D01*
X18693582Y-798573D01*
X18642136Y-813679D01*
X18642115Y-813688D01*
X18606680Y-831955D01*
X18594662Y-837363D01*
X18560361Y-850652D01*
X18514492Y-879053D01*
X18506038Y-883839D01*
X18455322Y-909986D01*
X18426674Y-932514D01*
X18415306Y-940466D01*
X18386959Y-958018D01*
X18386956Y-958020D01*
X18344537Y-996690D01*
X18337652Y-1002522D01*
X18290116Y-1039904D01*
X18290114Y-1039906D01*
X18268507Y-1064842D01*
X18258337Y-1075271D01*
X18236239Y-1095416D01*
X18199577Y-1143964D01*
X18194338Y-1150436D01*
X18152483Y-1198740D01*
X18137702Y-1224341D01*
X18129274Y-1237060D01*
X18113326Y-1258180D01*
X18084688Y-1315691D01*
X18081077Y-1322415D01*
X18047397Y-1380752D01*
X18047395Y-1380757D01*
X18038854Y-1405435D01*
X18032678Y-1420143D01*
X18022416Y-1440754D01*
X18022416Y-1440755D01*
X18003896Y-1505840D01*
X18001812Y-1512456D01*
X17978656Y-1579365D01*
X17978655Y-1579369D01*
X17975427Y-1601816D01*
X17971958Y-1618094D01*
X17966603Y-1636916D01*
X17966603Y-1636917D01*
X17960041Y-1707726D01*
X17959308Y-1713929D01*
X17948746Y-1787396D01*
X17948745Y-1787401D01*
X17949660Y-1806616D01*
X17949272Y-1823944D01*
X17947785Y-1840002D01*
X17947785Y-1840003D01*
X6801215Y-1840003D01*
X6801215Y-1840000D01*
X6794336Y-1765773D01*
X6793948Y-1760240D01*
X6793815Y-1757455D01*
X6790254Y-1682670D01*
X6787472Y-1671206D01*
X6786534Y-1667338D01*
X6783565Y-1649531D01*
X6782397Y-1636917D01*
X6761054Y-1561905D01*
X6759823Y-1557233D01*
X6748960Y-1512456D01*
X6740704Y-1478424D01*
X6735579Y-1467202D01*
X6729107Y-1449627D01*
X6726582Y-1440750D01*
X6696708Y-1380756D01*
X6690298Y-1367882D01*
X6688504Y-1364122D01*
X6666386Y-1315691D01*
X6653396Y-1287247D01*
X6648243Y-1280011D01*
X6638249Y-1263353D01*
X6635673Y-1258179D01*
X6635671Y-1258177D01*
X6635670Y-1258174D01*
X6584542Y-1190471D01*
X6582488Y-1187671D01*
X6531486Y-1116048D01*
X6527552Y-1112297D01*
X6514175Y-1097289D01*
X6512765Y-1095422D01*
X6512764Y-1095421D01*
X6447461Y-1035890D01*
X6445490Y-1034052D01*
X6379378Y-971014D01*
X6377708Y-969940D01*
X6366647Y-961441D01*
X6366621Y-961477D01*
X6362048Y-958024D01*
X6362042Y-958020D01*
X6362041Y-958019D01*
X6284044Y-909725D01*
X6282290Y-908619D01*
X6264439Y-897147D01*
X6202572Y-857387D01*
X6202569Y-857386D01*
X6202568Y-857385D01*
X6197321Y-854680D01*
X6197356Y-854610D01*
X6193920Y-852874D01*
X6193758Y-853202D01*
X6188641Y-850653D01*
X6140375Y-831955D01*
X6099838Y-816250D01*
X6098662Y-815787D01*
X6007454Y-779273D01*
X6005486Y-778695D01*
X5999440Y-777256D01*
X5998454Y-776975D01*
X5901413Y-758834D01*
X5900734Y-758705D01*
X5801086Y-739500D01*
X5801085Y-739500D01*
X5797976Y-739500D01*
X5594024Y-739500D01*
X5594017Y-739500D01*
X5547734Y-748151D01*
X5536742Y-749700D01*
X5486785Y-754471D01*
X5445223Y-766674D01*
X5433081Y-769584D01*
X5399524Y-775857D01*
X5393544Y-776976D01*
X5393541Y-776976D01*
X5393534Y-776979D01*
X5346437Y-795224D01*
X5336582Y-798573D01*
X5285136Y-813679D01*
X5285115Y-813688D01*
X5249680Y-831955D01*
X5237662Y-837363D01*
X5203361Y-850652D01*
X5157492Y-879053D01*
X5149038Y-883839D01*
X5098322Y-909986D01*
X5069674Y-932514D01*
X5058306Y-940466D01*
X5029959Y-958018D01*
X5029956Y-958020D01*
X4987537Y-996690D01*
X4980652Y-1002522D01*
X4933116Y-1039904D01*
X4933114Y-1039906D01*
X4911507Y-1064842D01*
X4901337Y-1075271D01*
X4879239Y-1095416D01*
X4842577Y-1143964D01*
X4837338Y-1150436D01*
X4795483Y-1198740D01*
X4780702Y-1224341D01*
X4772274Y-1237060D01*
X4756326Y-1258180D01*
X4727688Y-1315691D01*
X4724077Y-1322415D01*
X4690397Y-1380752D01*
X4690395Y-1380757D01*
X4681854Y-1405435D01*
X4675678Y-1420143D01*
X4665416Y-1440754D01*
X4665416Y-1440755D01*
X4646896Y-1505840D01*
X4644812Y-1512456D01*
X4621656Y-1579365D01*
X4621655Y-1579369D01*
X4618427Y-1601816D01*
X4614958Y-1618094D01*
X4609603Y-1636916D01*
X4609603Y-1636917D01*
X4603041Y-1707726D01*
X4602308Y-1713929D01*
X4591746Y-1787396D01*
X4591745Y-1787401D01*
X4592660Y-1806616D01*
X4592272Y-1823944D01*
X4590785Y-1840002D01*
X4590785Y-1840003D01*
X709343Y-1840003D01*
X647547Y-1757455D01*
X647544Y-1757452D01*
X532335Y-1671206D01*
X532328Y-1671202D01*
X397482Y-1620908D01*
X397483Y-1620908D01*
X337883Y-1614501D01*
X337881Y-1614500D01*
X337873Y-1614500D01*
X337864Y-1614500D01*
X-1457871Y-1614500D01*
X-1457877Y-1614501D01*
X-1517488Y-1620909D01*
X-1525031Y-1622692D01*
X-1525688Y-1619915D01*
X-1581957Y-1623916D01*
X-1643266Y-1590405D01*
X-1676725Y-1529068D01*
X-1671730Y-1459427D01*
X-1671443Y-1458659D01*
X-1606499Y-1284536D01*
X-1599149Y-1268444D01*
X-1561088Y-1198740D01*
X-1488019Y-1064923D01*
X-1478463Y-1050054D01*
X-1339494Y-864413D01*
X-1327920Y-851056D01*
X-1163944Y-687080D01*
X-1150587Y-675506D01*
X-964946Y-536537D01*
X-950077Y-526981D01*
X-746556Y-415850D01*
X-730463Y-408501D01*
X-513185Y-327460D01*
X-496234Y-322483D01*
X-269640Y-273190D01*
X-252143Y-270674D01*
X-16418Y-253816D01*
X-7572Y-253500D01*
X32170Y-253500D01*
X33925830Y-253500D01*
X33965572Y-253500D01*
X33974418Y-253816D01*
G37*
%TD.AperFunction*%
%TD*%
%TA.AperFunction,Conductor*%
%TO.N,/Flash-WSON8-GND*%
G36*
X52221966Y-23585908D02*
G01*
X52319998Y-23605408D01*
X52320000Y-23605408D01*
X52320001Y-23605408D01*
X52332694Y-23602883D01*
X52356886Y-23600500D01*
X55975830Y-23600500D01*
X56015572Y-23600500D01*
X56024418Y-23600816D01*
X56260140Y-23617674D01*
X56277641Y-23620191D01*
X56504229Y-23669482D01*
X56521188Y-23674461D01*
X56658672Y-23725740D01*
X56738462Y-23755501D01*
X56754555Y-23762851D01*
X56958068Y-23873977D01*
X56972951Y-23883542D01*
X57158579Y-24022501D01*
X57171950Y-24034087D01*
X57335912Y-24198049D01*
X57347498Y-24211420D01*
X57486457Y-24397048D01*
X57496022Y-24411931D01*
X57607148Y-24615444D01*
X57614498Y-24631537D01*
X57695535Y-24848803D01*
X57700519Y-24865779D01*
X57749807Y-25092352D01*
X57752325Y-25109864D01*
X57769184Y-25345581D01*
X57769500Y-25354427D01*
X57769500Y-40045572D01*
X57769184Y-40054418D01*
X57752325Y-40290135D01*
X57749807Y-40307647D01*
X57700519Y-40534220D01*
X57695535Y-40551196D01*
X57614498Y-40768462D01*
X57607148Y-40784555D01*
X57496022Y-40988068D01*
X57486457Y-41002951D01*
X57347498Y-41188579D01*
X57335912Y-41201950D01*
X57171950Y-41365912D01*
X57158579Y-41377498D01*
X56972951Y-41516457D01*
X56958068Y-41526022D01*
X56754555Y-41637148D01*
X56738462Y-41644498D01*
X56521196Y-41725535D01*
X56504220Y-41730519D01*
X56277647Y-41779807D01*
X56260135Y-41782325D01*
X56024418Y-41799184D01*
X56015572Y-41799500D01*
X43244428Y-41799500D01*
X43235582Y-41799184D01*
X42999864Y-41782325D01*
X42982352Y-41779807D01*
X42755779Y-41730519D01*
X42738803Y-41725535D01*
X42521537Y-41644498D01*
X42505444Y-41637148D01*
X42301931Y-41526022D01*
X42287048Y-41516457D01*
X42101420Y-41377498D01*
X42088049Y-41365912D01*
X41924087Y-41201950D01*
X41912501Y-41188579D01*
X41773542Y-41002951D01*
X41763977Y-40988068D01*
X41755519Y-40972579D01*
X41703630Y-40877550D01*
X41652851Y-40784555D01*
X41645501Y-40768462D01*
X41606002Y-40662563D01*
X41564461Y-40551188D01*
X41559482Y-40534229D01*
X41510191Y-40307641D01*
X41507674Y-40290135D01*
X41491908Y-40069693D01*
X41506760Y-40001423D01*
X41556165Y-39952018D01*
X41624438Y-39937166D01*
X41689902Y-39961583D01*
X41703273Y-39973169D01*
X41818599Y-40088495D01*
X41833375Y-40098841D01*
X42012165Y-40224032D01*
X42012167Y-40224033D01*
X42012170Y-40224035D01*
X42226337Y-40323903D01*
X42454592Y-40385063D01*
X42633034Y-40400675D01*
X42689999Y-40405659D01*
X42690000Y-40405659D01*
X42690001Y-40405659D01*
X42746966Y-40400675D01*
X42925408Y-40385063D01*
X43153663Y-40323903D01*
X43359321Y-40228003D01*
X48094785Y-40228003D01*
X48101661Y-40302214D01*
X48102049Y-40307752D01*
X48105745Y-40385328D01*
X48105746Y-40385330D01*
X48109468Y-40400675D01*
X48112433Y-40418458D01*
X48113603Y-40431083D01*
X48129976Y-40488630D01*
X48134945Y-40506094D01*
X48136182Y-40510792D01*
X48155292Y-40589566D01*
X48155297Y-40589579D01*
X48160421Y-40600799D01*
X48166891Y-40618369D01*
X48169418Y-40627250D01*
X48205727Y-40700170D01*
X48207496Y-40703877D01*
X48242605Y-40780756D01*
X48247753Y-40787984D01*
X48257748Y-40804643D01*
X48260327Y-40809821D01*
X48311494Y-40877577D01*
X48313475Y-40880277D01*
X48364514Y-40951952D01*
X48368443Y-40955698D01*
X48381822Y-40970707D01*
X48383236Y-40972579D01*
X48448541Y-41032111D01*
X48450504Y-41033943D01*
X48483578Y-41065478D01*
X48516623Y-41096987D01*
X48518285Y-41098055D01*
X48529352Y-41106559D01*
X48529380Y-41106523D01*
X48533951Y-41109974D01*
X48533959Y-41109981D01*
X48596495Y-41148701D01*
X48611946Y-41158268D01*
X48613709Y-41159380D01*
X48693429Y-41210614D01*
X48698684Y-41213323D01*
X48698647Y-41213394D01*
X48702064Y-41215120D01*
X48702229Y-41214791D01*
X48707354Y-41217342D01*
X48707363Y-41217348D01*
X48707371Y-41217351D01*
X48796091Y-41251722D01*
X48797352Y-41252217D01*
X48888543Y-41288725D01*
X48888545Y-41288725D01*
X48888547Y-41288726D01*
X48890532Y-41289309D01*
X48896585Y-41290750D01*
X48897526Y-41291017D01*
X48897544Y-41291024D01*
X48994595Y-41309165D01*
X48995010Y-41309244D01*
X49094915Y-41328500D01*
X49301976Y-41328500D01*
X49348258Y-41319847D01*
X49359236Y-41318300D01*
X49409218Y-41313528D01*
X49450791Y-41301320D01*
X49462908Y-41298415D01*
X49502456Y-41291024D01*
X49549588Y-41272764D01*
X49559405Y-41269428D01*
X49610875Y-41254316D01*
X49646329Y-41236037D01*
X49658332Y-41230637D01*
X49692637Y-41217348D01*
X49738509Y-41188943D01*
X49746955Y-41184160D01*
X49797682Y-41158011D01*
X49826337Y-41135474D01*
X49837695Y-41127531D01*
X49866041Y-41109981D01*
X49908466Y-41071304D01*
X49915326Y-41065492D01*
X49962886Y-41028092D01*
X49984496Y-41003150D01*
X49994657Y-40992730D01*
X50016764Y-40972579D01*
X50053429Y-40924024D01*
X50058650Y-40917572D01*
X50100519Y-40869256D01*
X50115299Y-40843653D01*
X50123724Y-40830938D01*
X50139673Y-40809821D01*
X50168333Y-40752260D01*
X50171911Y-40745598D01*
X50205604Y-40687244D01*
X50214146Y-40662563D01*
X50220323Y-40647851D01*
X50230582Y-40627250D01*
X50249110Y-40562127D01*
X50251186Y-40555542D01*
X50252690Y-40551196D01*
X50274344Y-40488633D01*
X50277570Y-40466186D01*
X50281039Y-40449911D01*
X50286397Y-40431083D01*
X50292958Y-40360259D01*
X50293685Y-40354100D01*
X50304254Y-40280602D01*
X50303339Y-40261399D01*
X50303727Y-40244052D01*
X50305215Y-40228000D01*
X50298336Y-40153773D01*
X50297948Y-40148240D01*
X50294254Y-40070669D01*
X50290534Y-40055338D01*
X50287565Y-40037531D01*
X50286397Y-40024917D01*
X50265054Y-39949905D01*
X50263823Y-39945233D01*
X50261866Y-39937166D01*
X50244704Y-39866424D01*
X50239579Y-39855202D01*
X50233107Y-39837627D01*
X50230582Y-39828750D01*
X50200708Y-39768756D01*
X50194298Y-39755882D01*
X50192504Y-39752122D01*
X50170386Y-39703691D01*
X50157396Y-39675247D01*
X50152243Y-39668011D01*
X50142249Y-39651353D01*
X50139673Y-39646179D01*
X50139671Y-39646177D01*
X50139670Y-39646174D01*
X50088542Y-39578471D01*
X50086488Y-39575671D01*
X50035486Y-39504048D01*
X50031552Y-39500297D01*
X50018175Y-39485289D01*
X50016765Y-39483422D01*
X50016764Y-39483421D01*
X49951461Y-39423890D01*
X49949490Y-39422052D01*
X49883378Y-39359014D01*
X49881708Y-39357940D01*
X49870647Y-39349441D01*
X49870621Y-39349477D01*
X49866048Y-39346024D01*
X49866042Y-39346020D01*
X49866041Y-39346019D01*
X49788044Y-39297725D01*
X49786290Y-39296619D01*
X49768439Y-39285147D01*
X49706572Y-39245387D01*
X49706569Y-39245386D01*
X49706568Y-39245385D01*
X49701321Y-39242680D01*
X49701356Y-39242610D01*
X49697920Y-39240874D01*
X49697758Y-39241202D01*
X49692641Y-39238653D01*
X49644375Y-39219955D01*
X49603838Y-39204250D01*
X49602662Y-39203787D01*
X49511454Y-39167273D01*
X49509486Y-39166695D01*
X49503440Y-39165256D01*
X49502454Y-39164975D01*
X49405413Y-39146834D01*
X49404734Y-39146705D01*
X49305086Y-39127500D01*
X49305085Y-39127500D01*
X49301976Y-39127500D01*
X49098024Y-39127500D01*
X49098017Y-39127500D01*
X49051734Y-39136151D01*
X49040742Y-39137700D01*
X48990785Y-39142471D01*
X48949223Y-39154674D01*
X48937081Y-39157584D01*
X48903524Y-39163857D01*
X48897544Y-39164976D01*
X48897541Y-39164976D01*
X48897534Y-39164979D01*
X48850437Y-39183224D01*
X48840582Y-39186573D01*
X48789136Y-39201679D01*
X48789115Y-39201688D01*
X48753680Y-39219955D01*
X48741662Y-39225363D01*
X48707361Y-39238652D01*
X48661492Y-39267053D01*
X48653038Y-39271839D01*
X48602322Y-39297986D01*
X48573674Y-39320514D01*
X48562306Y-39328466D01*
X48533959Y-39346018D01*
X48533956Y-39346020D01*
X48491537Y-39384690D01*
X48484652Y-39390522D01*
X48437116Y-39427904D01*
X48437114Y-39427906D01*
X48415507Y-39452842D01*
X48405337Y-39463271D01*
X48383239Y-39483416D01*
X48346577Y-39531964D01*
X48341338Y-39538436D01*
X48299483Y-39586740D01*
X48284702Y-39612341D01*
X48276274Y-39625060D01*
X48260326Y-39646180D01*
X48231688Y-39703691D01*
X48228077Y-39710415D01*
X48194397Y-39768752D01*
X48194395Y-39768757D01*
X48185854Y-39793435D01*
X48179678Y-39808143D01*
X48169416Y-39828754D01*
X48169416Y-39828755D01*
X48150896Y-39893840D01*
X48148812Y-39900456D01*
X48125656Y-39967365D01*
X48125655Y-39967369D01*
X48122427Y-39989816D01*
X48118958Y-40006094D01*
X48113603Y-40024916D01*
X48113603Y-40024917D01*
X48107041Y-40095726D01*
X48106308Y-40101929D01*
X48095746Y-40175396D01*
X48095745Y-40175401D01*
X48096660Y-40194616D01*
X48096272Y-40211944D01*
X48094785Y-40228002D01*
X48094785Y-40228003D01*
X43359321Y-40228003D01*
X43367830Y-40224035D01*
X43561401Y-40088495D01*
X43728495Y-39921401D01*
X43864035Y-39727830D01*
X43963903Y-39513663D01*
X44025063Y-39285408D01*
X44045659Y-39050000D01*
X44025063Y-38814592D01*
X43963903Y-38586337D01*
X43864035Y-38372171D01*
X43794826Y-38273329D01*
X43728494Y-38178597D01*
X43561402Y-38011506D01*
X43561396Y-38011501D01*
X43375842Y-37881575D01*
X43332217Y-37826998D01*
X43325023Y-37757500D01*
X43356546Y-37695145D01*
X43375842Y-37678425D01*
X43433856Y-37637803D01*
X43561401Y-37548495D01*
X43728495Y-37381401D01*
X43864035Y-37187830D01*
X43963903Y-36973663D01*
X44025063Y-36745408D01*
X44045659Y-36510000D01*
X44025063Y-36274592D01*
X43963903Y-36046337D01*
X43864035Y-35832171D01*
X43728495Y-35638599D01*
X43728494Y-35638597D01*
X43561402Y-35471506D01*
X43561396Y-35471501D01*
X43375842Y-35341575D01*
X43332217Y-35286998D01*
X43325023Y-35217500D01*
X43356546Y-35155145D01*
X43375842Y-35138425D01*
X43440534Y-35093127D01*
X43561401Y-35008495D01*
X43728495Y-34841401D01*
X43864035Y-34647830D01*
X43963903Y-34433663D01*
X44025063Y-34205408D01*
X44045659Y-33970000D01*
X44025063Y-33734592D01*
X43963903Y-33506337D01*
X43864035Y-33292171D01*
X43728495Y-33098599D01*
X43728494Y-33098597D01*
X43561402Y-32931506D01*
X43561396Y-32931501D01*
X43375842Y-32801575D01*
X43332217Y-32746998D01*
X43325023Y-32677500D01*
X43356546Y-32615145D01*
X43375842Y-32598425D01*
X43398026Y-32582891D01*
X43561401Y-32468495D01*
X43728495Y-32301401D01*
X43864035Y-32107830D01*
X43963903Y-31893663D01*
X44025063Y-31665408D01*
X44045659Y-31430000D01*
X44025063Y-31194592D01*
X43986320Y-31050000D01*
X48004815Y-31050000D01*
X48023503Y-31227805D01*
X48023504Y-31227807D01*
X48078747Y-31397829D01*
X48078750Y-31397835D01*
X48168141Y-31552665D01*
X48209812Y-31598946D01*
X48287764Y-31685521D01*
X48287767Y-31685523D01*
X48287770Y-31685526D01*
X48432407Y-31790612D01*
X48432410Y-31790614D01*
X48494758Y-31818372D01*
X48510075Y-31826520D01*
X48532131Y-31840317D01*
X48973742Y-32035504D01*
X49011292Y-32061238D01*
X52043181Y-35093127D01*
X52076666Y-35154450D01*
X52079500Y-35180808D01*
X52079500Y-36655403D01*
X52074606Y-36689896D01*
X51933996Y-37175421D01*
X51927535Y-37200031D01*
X51926639Y-37205171D01*
X51926192Y-37205093D01*
X51922193Y-37224673D01*
X51903505Y-37282190D01*
X51903503Y-37282195D01*
X51884815Y-37460000D01*
X51903503Y-37637805D01*
X51903504Y-37637807D01*
X51958747Y-37807829D01*
X51958750Y-37807835D01*
X52048141Y-37962665D01*
X52089812Y-38008946D01*
X52167764Y-38095521D01*
X52167767Y-38095523D01*
X52167770Y-38095526D01*
X52312407Y-38200612D01*
X52475733Y-38273329D01*
X52650609Y-38310500D01*
X52650610Y-38310500D01*
X52829389Y-38310500D01*
X52829391Y-38310500D01*
X53004267Y-38273329D01*
X53167593Y-38200612D01*
X53312230Y-38095526D01*
X53431859Y-37962665D01*
X53521250Y-37807835D01*
X53576497Y-37637803D01*
X53595185Y-37460000D01*
X53576497Y-37282197D01*
X53548200Y-37195111D01*
X53543951Y-37177954D01*
X53540761Y-37159530D01*
X53406146Y-36745408D01*
X53386574Y-36685197D01*
X53380500Y-36646864D01*
X53380500Y-34945503D01*
X53382268Y-34929491D01*
X53382026Y-34929469D01*
X53382760Y-34921706D01*
X53380561Y-34851722D01*
X53380500Y-34847828D01*
X53380500Y-34819078D01*
X53380499Y-34819071D01*
X53379950Y-34814725D01*
X53379031Y-34803062D01*
X53377598Y-34757431D01*
X53371676Y-34737050D01*
X53367731Y-34717995D01*
X53365072Y-34696949D01*
X53365071Y-34696947D01*
X53365071Y-34696942D01*
X53348267Y-34654501D01*
X53344484Y-34643452D01*
X53331745Y-34599602D01*
X53327971Y-34593220D01*
X53320936Y-34581324D01*
X53312378Y-34563855D01*
X53304568Y-34544129D01*
X53277721Y-34507179D01*
X53271331Y-34497449D01*
X53248081Y-34458135D01*
X53233075Y-34443129D01*
X53220435Y-34428330D01*
X53207961Y-34411160D01*
X53172780Y-34382056D01*
X53164140Y-34374194D01*
X49912626Y-31122680D01*
X49879141Y-31061357D01*
X49884125Y-30991665D01*
X49912624Y-30947320D01*
X53626823Y-27233120D01*
X53656335Y-27211293D01*
X54101678Y-26974774D01*
X54127146Y-26960286D01*
X54127147Y-26960285D01*
X54131783Y-26957648D01*
X54131943Y-26957930D01*
X54144456Y-26950912D01*
X54167593Y-26940612D01*
X54312230Y-26835526D01*
X54431859Y-26702665D01*
X54521250Y-26547835D01*
X54576497Y-26377803D01*
X54595185Y-26200000D01*
X54576497Y-26022197D01*
X54540880Y-25912579D01*
X54521252Y-25852170D01*
X54521249Y-25852164D01*
X54520000Y-25850000D01*
X54431859Y-25697335D01*
X54339719Y-25595003D01*
X54312235Y-25564478D01*
X54312232Y-25564476D01*
X54312231Y-25564475D01*
X54312230Y-25564474D01*
X54167593Y-25459388D01*
X54004267Y-25386671D01*
X54004265Y-25386670D01*
X53871535Y-25358458D01*
X53829391Y-25349500D01*
X53650609Y-25349500D01*
X53619954Y-25356015D01*
X53475733Y-25386670D01*
X53475728Y-25386672D01*
X53312408Y-25459387D01*
X53167768Y-25564475D01*
X53048139Y-25697336D01*
X52975794Y-25822642D01*
X52968535Y-25833788D01*
X52965231Y-25838310D01*
X52965216Y-25838334D01*
X52728705Y-26283660D01*
X52706873Y-26313179D01*
X48992122Y-30027930D01*
X48958602Y-30051795D01*
X48515162Y-30267105D01*
X48481205Y-30285221D01*
X48478001Y-30287322D01*
X48460454Y-30296899D01*
X48432410Y-30309386D01*
X48287768Y-30414475D01*
X48168140Y-30547336D01*
X48078750Y-30702164D01*
X48078747Y-30702170D01*
X48023504Y-30872192D01*
X48023503Y-30872194D01*
X48004815Y-31050000D01*
X43986320Y-31050000D01*
X43963903Y-30966337D01*
X43864035Y-30752171D01*
X43728495Y-30558599D01*
X43728494Y-30558597D01*
X43561402Y-30391506D01*
X43561396Y-30391501D01*
X43375842Y-30261575D01*
X43332217Y-30206998D01*
X43325023Y-30137500D01*
X43356546Y-30075145D01*
X43375842Y-30058425D01*
X43419393Y-30027930D01*
X43561401Y-29928495D01*
X43728495Y-29761401D01*
X43864035Y-29567830D01*
X43963903Y-29353663D01*
X44025063Y-29125408D01*
X44045659Y-28890000D01*
X44025063Y-28654592D01*
X43963903Y-28426337D01*
X43864035Y-28212171D01*
X43728495Y-28018599D01*
X43606179Y-27896283D01*
X43572696Y-27834963D01*
X43577680Y-27765271D01*
X43619551Y-27709337D01*
X43650529Y-27692422D01*
X43782086Y-27643354D01*
X43782093Y-27643350D01*
X43897187Y-27557190D01*
X43897190Y-27557187D01*
X43983350Y-27442093D01*
X43983354Y-27442086D01*
X44033596Y-27307379D01*
X44033598Y-27307372D01*
X44039999Y-27247844D01*
X44040000Y-27247827D01*
X44040000Y-26600000D01*
X43123686Y-26600000D01*
X43149493Y-26559844D01*
X43190000Y-26421889D01*
X43190000Y-26278111D01*
X43149493Y-26140156D01*
X43123686Y-26100000D01*
X44040000Y-26100000D01*
X44040000Y-25452172D01*
X44039999Y-25452155D01*
X44033598Y-25392627D01*
X44033596Y-25392620D01*
X43983354Y-25257913D01*
X43983350Y-25257906D01*
X43916048Y-25168003D01*
X48094785Y-25168003D01*
X48101661Y-25242214D01*
X48102049Y-25247752D01*
X48105745Y-25325328D01*
X48105746Y-25325330D01*
X48109468Y-25340675D01*
X48112433Y-25358458D01*
X48113603Y-25371083D01*
X48129976Y-25428630D01*
X48134945Y-25446094D01*
X48136182Y-25450792D01*
X48155292Y-25529566D01*
X48155297Y-25529579D01*
X48160421Y-25540799D01*
X48166891Y-25558369D01*
X48168628Y-25564476D01*
X48169418Y-25567250D01*
X48205727Y-25640170D01*
X48207496Y-25643877D01*
X48242605Y-25720756D01*
X48247753Y-25727984D01*
X48257748Y-25744643D01*
X48260327Y-25749821D01*
X48311494Y-25817577D01*
X48313475Y-25820277D01*
X48364514Y-25891952D01*
X48368443Y-25895698D01*
X48381822Y-25910707D01*
X48383236Y-25912579D01*
X48448541Y-25972111D01*
X48450504Y-25973943D01*
X48483578Y-26005478D01*
X48516623Y-26036987D01*
X48518285Y-26038055D01*
X48529352Y-26046559D01*
X48529380Y-26046523D01*
X48533951Y-26049974D01*
X48533959Y-26049981D01*
X48596495Y-26088701D01*
X48611946Y-26098268D01*
X48613709Y-26099380D01*
X48693429Y-26150614D01*
X48698684Y-26153323D01*
X48698647Y-26153394D01*
X48702064Y-26155120D01*
X48702229Y-26154791D01*
X48707354Y-26157342D01*
X48707363Y-26157348D01*
X48707371Y-26157351D01*
X48796091Y-26191722D01*
X48797352Y-26192217D01*
X48888543Y-26228725D01*
X48888545Y-26228725D01*
X48888547Y-26228726D01*
X48890532Y-26229309D01*
X48896585Y-26230750D01*
X48897526Y-26231017D01*
X48897544Y-26231024D01*
X48994595Y-26249165D01*
X48995010Y-26249244D01*
X49094915Y-26268500D01*
X49301976Y-26268500D01*
X49348258Y-26259847D01*
X49359236Y-26258300D01*
X49409218Y-26253528D01*
X49450791Y-26241320D01*
X49462908Y-26238415D01*
X49502456Y-26231024D01*
X49549588Y-26212764D01*
X49559405Y-26209428D01*
X49610875Y-26194316D01*
X49646329Y-26176037D01*
X49658332Y-26170637D01*
X49692637Y-26157348D01*
X49738509Y-26128943D01*
X49746955Y-26124160D01*
X49797682Y-26098011D01*
X49826337Y-26075474D01*
X49837695Y-26067531D01*
X49866041Y-26049981D01*
X49908466Y-26011304D01*
X49915326Y-26005492D01*
X49962886Y-25968092D01*
X49984496Y-25943150D01*
X49994657Y-25932730D01*
X50016764Y-25912579D01*
X50053429Y-25864024D01*
X50058650Y-25857572D01*
X50100519Y-25809256D01*
X50115299Y-25783653D01*
X50123724Y-25770938D01*
X50139673Y-25749821D01*
X50168333Y-25692260D01*
X50171911Y-25685598D01*
X50205604Y-25627244D01*
X50214146Y-25602563D01*
X50220323Y-25587851D01*
X50230582Y-25567250D01*
X50249110Y-25502127D01*
X50251186Y-25495542D01*
X50274344Y-25428633D01*
X50277570Y-25406186D01*
X50281039Y-25389911D01*
X50286397Y-25371083D01*
X50292958Y-25300259D01*
X50293685Y-25294100D01*
X50304254Y-25220602D01*
X50303339Y-25201399D01*
X50303727Y-25184052D01*
X50305215Y-25168000D01*
X50298336Y-25093773D01*
X50297948Y-25088240D01*
X50294254Y-25010669D01*
X50290534Y-24995338D01*
X50287565Y-24977531D01*
X50286397Y-24964917D01*
X50265054Y-24889905D01*
X50263823Y-24885233D01*
X50259110Y-24865806D01*
X50244704Y-24806424D01*
X50239579Y-24795202D01*
X50233107Y-24777627D01*
X50230582Y-24768750D01*
X50200708Y-24708756D01*
X50194298Y-24695882D01*
X50192504Y-24692122D01*
X50161042Y-24623231D01*
X50157396Y-24615247D01*
X50152243Y-24608011D01*
X50142249Y-24591353D01*
X50139673Y-24586179D01*
X50139671Y-24586177D01*
X50139670Y-24586174D01*
X50088542Y-24518471D01*
X50086488Y-24515671D01*
X50035486Y-24444048D01*
X50031552Y-24440297D01*
X50018175Y-24425289D01*
X50016765Y-24423422D01*
X50016764Y-24423421D01*
X49951461Y-24363890D01*
X49949490Y-24362052D01*
X49883378Y-24299014D01*
X49881708Y-24297940D01*
X49870647Y-24289441D01*
X49870621Y-24289477D01*
X49866048Y-24286024D01*
X49866042Y-24286020D01*
X49866041Y-24286019D01*
X49788044Y-24237725D01*
X49786290Y-24236619D01*
X49768439Y-24225147D01*
X49706572Y-24185387D01*
X49706569Y-24185386D01*
X49706568Y-24185385D01*
X49701321Y-24182680D01*
X49701356Y-24182610D01*
X49697920Y-24180874D01*
X49697758Y-24181202D01*
X49692641Y-24178653D01*
X49644375Y-24159955D01*
X49603838Y-24144250D01*
X49602662Y-24143787D01*
X49511454Y-24107273D01*
X49509486Y-24106695D01*
X49503440Y-24105256D01*
X49502454Y-24104975D01*
X49405413Y-24086834D01*
X49404734Y-24086705D01*
X49305086Y-24067500D01*
X49305085Y-24067500D01*
X49301976Y-24067500D01*
X49098024Y-24067500D01*
X49098017Y-24067500D01*
X49051734Y-24076151D01*
X49040742Y-24077700D01*
X48990785Y-24082471D01*
X48949223Y-24094674D01*
X48937081Y-24097584D01*
X48903524Y-24103857D01*
X48897544Y-24104976D01*
X48897541Y-24104976D01*
X48897534Y-24104979D01*
X48850437Y-24123224D01*
X48840582Y-24126573D01*
X48789136Y-24141679D01*
X48789115Y-24141688D01*
X48753680Y-24159955D01*
X48741662Y-24165363D01*
X48707361Y-24178652D01*
X48661492Y-24207053D01*
X48653038Y-24211839D01*
X48602322Y-24237986D01*
X48573674Y-24260514D01*
X48562306Y-24268466D01*
X48533959Y-24286018D01*
X48533956Y-24286020D01*
X48491537Y-24324690D01*
X48484652Y-24330522D01*
X48437116Y-24367904D01*
X48437114Y-24367906D01*
X48415507Y-24392842D01*
X48405337Y-24403271D01*
X48383239Y-24423416D01*
X48346577Y-24471964D01*
X48341338Y-24478436D01*
X48299483Y-24526740D01*
X48284702Y-24552341D01*
X48276274Y-24565060D01*
X48260326Y-24586180D01*
X48231688Y-24643691D01*
X48228077Y-24650415D01*
X48194397Y-24708752D01*
X48194395Y-24708757D01*
X48185854Y-24733435D01*
X48179678Y-24748143D01*
X48169416Y-24768754D01*
X48169416Y-24768755D01*
X48150896Y-24833840D01*
X48148812Y-24840456D01*
X48125656Y-24907365D01*
X48125655Y-24907369D01*
X48122427Y-24929816D01*
X48118958Y-24946094D01*
X48113603Y-24964916D01*
X48113603Y-24964917D01*
X48107041Y-25035726D01*
X48106308Y-25041929D01*
X48095746Y-25115396D01*
X48095745Y-25115401D01*
X48096660Y-25134616D01*
X48096272Y-25151944D01*
X48094785Y-25168002D01*
X48094785Y-25168003D01*
X43916048Y-25168003D01*
X43897190Y-25142812D01*
X43897187Y-25142809D01*
X43782093Y-25056649D01*
X43782086Y-25056645D01*
X43647379Y-25006403D01*
X43647372Y-25006401D01*
X43587844Y-25000000D01*
X42940000Y-25000000D01*
X42940000Y-25914498D01*
X42832315Y-25865320D01*
X42725763Y-25850000D01*
X42654237Y-25850000D01*
X42547685Y-25865320D01*
X42440000Y-25914498D01*
X42440000Y-25000000D01*
X41792155Y-25000000D01*
X41732627Y-25006401D01*
X41732617Y-25006403D01*
X41723667Y-25009742D01*
X41653976Y-25014725D01*
X41592653Y-24981238D01*
X41559170Y-24919914D01*
X41559165Y-24867231D01*
X41559478Y-24865791D01*
X41564460Y-24848815D01*
X41645501Y-24631536D01*
X41652851Y-24615444D01*
X41705802Y-24518471D01*
X41763981Y-24411923D01*
X41773537Y-24397054D01*
X41912506Y-24211413D01*
X41924080Y-24198056D01*
X42088056Y-24034080D01*
X42101413Y-24022506D01*
X42287054Y-23883537D01*
X42301923Y-23873981D01*
X42505444Y-23762850D01*
X42521537Y-23755501D01*
X42738815Y-23674460D01*
X42755766Y-23669483D01*
X42982360Y-23620190D01*
X42999857Y-23617674D01*
X43235582Y-23600816D01*
X43244428Y-23600500D01*
X43284170Y-23600500D01*
X46963114Y-23600500D01*
X46987306Y-23602883D01*
X47000000Y-23605408D01*
X47082883Y-23588921D01*
X47106971Y-23586541D01*
X52197709Y-23583525D01*
X52221966Y-23585908D01*
G37*
%TD.AperFunction*%
%TD*%
%TA.AperFunction,Conductor*%
%TO.N,/Flash-SOIC8-GND*%
G36*
X56024418Y-260816D02*
G01*
X56260140Y-277674D01*
X56277641Y-280191D01*
X56504229Y-329482D01*
X56521188Y-334461D01*
X56658672Y-385740D01*
X56738462Y-415501D01*
X56754555Y-422851D01*
X56958068Y-533977D01*
X56972951Y-543542D01*
X57158579Y-682501D01*
X57171950Y-694087D01*
X57335912Y-858049D01*
X57347498Y-871420D01*
X57486457Y-1057048D01*
X57496022Y-1071931D01*
X57607148Y-1275444D01*
X57614498Y-1291537D01*
X57695535Y-1508803D01*
X57700519Y-1525779D01*
X57749807Y-1752352D01*
X57752325Y-1769864D01*
X57769184Y-2005581D01*
X57769500Y-2014427D01*
X57769500Y-16705572D01*
X57769184Y-16714418D01*
X57752325Y-16950135D01*
X57749807Y-16967647D01*
X57700519Y-17194220D01*
X57695535Y-17211196D01*
X57614498Y-17428462D01*
X57607148Y-17444555D01*
X57496022Y-17648068D01*
X57486457Y-17662951D01*
X57347498Y-17848579D01*
X57335912Y-17861950D01*
X57171950Y-18025912D01*
X57158579Y-18037498D01*
X56972951Y-18176457D01*
X56958068Y-18186022D01*
X56754555Y-18297148D01*
X56738462Y-18304498D01*
X56521196Y-18385535D01*
X56504220Y-18390519D01*
X56277647Y-18439807D01*
X56260135Y-18442325D01*
X56024418Y-18459184D01*
X56015572Y-18459500D01*
X52356886Y-18459500D01*
X52332694Y-18457117D01*
X52320001Y-18454592D01*
X52319999Y-18454592D01*
X52295326Y-18459500D01*
X52254520Y-18467617D01*
X52230328Y-18470000D01*
X47089672Y-18470000D01*
X47065480Y-18467617D01*
X47024674Y-18459500D01*
X47000001Y-18454592D01*
X46999999Y-18454592D01*
X46987306Y-18457117D01*
X46963114Y-18459500D01*
X43244428Y-18459500D01*
X43235582Y-18459184D01*
X42999864Y-18442325D01*
X42982352Y-18439807D01*
X42755779Y-18390519D01*
X42738803Y-18385535D01*
X42521537Y-18304498D01*
X42505444Y-18297148D01*
X42301931Y-18186022D01*
X42287048Y-18176457D01*
X42101420Y-18037498D01*
X42088049Y-18025912D01*
X41924087Y-17861950D01*
X41912501Y-17848579D01*
X41773542Y-17662951D01*
X41763977Y-17648068D01*
X41755519Y-17632579D01*
X41703630Y-17537550D01*
X41652851Y-17444555D01*
X41645501Y-17428462D01*
X41606002Y-17322563D01*
X41564461Y-17211188D01*
X41559477Y-17194204D01*
X41559165Y-17192769D01*
X41564165Y-17123080D01*
X41606049Y-17067156D01*
X41671519Y-17042754D01*
X41723674Y-17050259D01*
X41732626Y-17053598D01*
X41792155Y-17059999D01*
X41792172Y-17060000D01*
X42440000Y-17060000D01*
X42440000Y-16145501D01*
X42547685Y-16194680D01*
X42654237Y-16210000D01*
X42725763Y-16210000D01*
X42832315Y-16194680D01*
X42940000Y-16145501D01*
X42940000Y-17060000D01*
X43587828Y-17060000D01*
X43587844Y-17059999D01*
X43647372Y-17053598D01*
X43647379Y-17053596D01*
X43782086Y-17003354D01*
X43782093Y-17003350D01*
X43897187Y-16917190D01*
X43897190Y-16917187D01*
X43919037Y-16888003D01*
X48094785Y-16888003D01*
X48101661Y-16962214D01*
X48102049Y-16967752D01*
X48105745Y-17045328D01*
X48105746Y-17045330D01*
X48109468Y-17060675D01*
X48112433Y-17078458D01*
X48113603Y-17091083D01*
X48129976Y-17148630D01*
X48134945Y-17166094D01*
X48136182Y-17170792D01*
X48155292Y-17249566D01*
X48155297Y-17249579D01*
X48160421Y-17260799D01*
X48166891Y-17278369D01*
X48169418Y-17287250D01*
X48205727Y-17360170D01*
X48207496Y-17363877D01*
X48242605Y-17440756D01*
X48247753Y-17447984D01*
X48257748Y-17464643D01*
X48260327Y-17469821D01*
X48311494Y-17537577D01*
X48313475Y-17540277D01*
X48364514Y-17611952D01*
X48368443Y-17615698D01*
X48381822Y-17630707D01*
X48383236Y-17632579D01*
X48448541Y-17692111D01*
X48450504Y-17693943D01*
X48483578Y-17725478D01*
X48516623Y-17756987D01*
X48518285Y-17758055D01*
X48529352Y-17766559D01*
X48529380Y-17766523D01*
X48533951Y-17769974D01*
X48533959Y-17769981D01*
X48596495Y-17808701D01*
X48611946Y-17818268D01*
X48613709Y-17819380D01*
X48693429Y-17870614D01*
X48698684Y-17873323D01*
X48698647Y-17873394D01*
X48702064Y-17875120D01*
X48702229Y-17874791D01*
X48707354Y-17877342D01*
X48707363Y-17877348D01*
X48707371Y-17877351D01*
X48796091Y-17911722D01*
X48797352Y-17912217D01*
X48888543Y-17948725D01*
X48888545Y-17948725D01*
X48888547Y-17948726D01*
X48890532Y-17949309D01*
X48896585Y-17950750D01*
X48897526Y-17951017D01*
X48897544Y-17951024D01*
X48994595Y-17969165D01*
X48995010Y-17969244D01*
X49094915Y-17988500D01*
X49301976Y-17988500D01*
X49348258Y-17979847D01*
X49359236Y-17978300D01*
X49409218Y-17973528D01*
X49450791Y-17961320D01*
X49462908Y-17958415D01*
X49502456Y-17951024D01*
X49549588Y-17932764D01*
X49559405Y-17929428D01*
X49610875Y-17914316D01*
X49646329Y-17896037D01*
X49658332Y-17890637D01*
X49692637Y-17877348D01*
X49738509Y-17848943D01*
X49746955Y-17844160D01*
X49797682Y-17818011D01*
X49826337Y-17795474D01*
X49837695Y-17787531D01*
X49866041Y-17769981D01*
X49908466Y-17731304D01*
X49915326Y-17725492D01*
X49962886Y-17688092D01*
X49984496Y-17663150D01*
X49994657Y-17652730D01*
X50016764Y-17632579D01*
X50053429Y-17584024D01*
X50058650Y-17577572D01*
X50100519Y-17529256D01*
X50115299Y-17503653D01*
X50123724Y-17490938D01*
X50139673Y-17469821D01*
X50168333Y-17412260D01*
X50171911Y-17405598D01*
X50205604Y-17347244D01*
X50214146Y-17322563D01*
X50220323Y-17307851D01*
X50230582Y-17287250D01*
X50249110Y-17222127D01*
X50251186Y-17215542D01*
X50252690Y-17211196D01*
X50274344Y-17148633D01*
X50277570Y-17126186D01*
X50281039Y-17109911D01*
X50286397Y-17091083D01*
X50292958Y-17020259D01*
X50293685Y-17014100D01*
X50304254Y-16940602D01*
X50303339Y-16921399D01*
X50303727Y-16904052D01*
X50305215Y-16888000D01*
X50298336Y-16813773D01*
X50297948Y-16808240D01*
X50294254Y-16730669D01*
X50290534Y-16715338D01*
X50287565Y-16697531D01*
X50286397Y-16684917D01*
X50265054Y-16609905D01*
X50263823Y-16605233D01*
X50251355Y-16553840D01*
X50244704Y-16526424D01*
X50239579Y-16515202D01*
X50233107Y-16497627D01*
X50230582Y-16488750D01*
X50200708Y-16428756D01*
X50194298Y-16415882D01*
X50192504Y-16412122D01*
X50170386Y-16363691D01*
X50157396Y-16335247D01*
X50152243Y-16328011D01*
X50142249Y-16311353D01*
X50139673Y-16306179D01*
X50139671Y-16306177D01*
X50139670Y-16306174D01*
X50088542Y-16238471D01*
X50086488Y-16235671D01*
X50035486Y-16164048D01*
X50031552Y-16160297D01*
X50018175Y-16145289D01*
X50016765Y-16143422D01*
X50016764Y-16143421D01*
X49951461Y-16083890D01*
X49949490Y-16082052D01*
X49883378Y-16019014D01*
X49881708Y-16017940D01*
X49870647Y-16009441D01*
X49870621Y-16009477D01*
X49866048Y-16006024D01*
X49866042Y-16006020D01*
X49866041Y-16006019D01*
X49788044Y-15957725D01*
X49786290Y-15956619D01*
X49768439Y-15945147D01*
X49706572Y-15905387D01*
X49706569Y-15905386D01*
X49706568Y-15905385D01*
X49701321Y-15902680D01*
X49701356Y-15902610D01*
X49697920Y-15900874D01*
X49697758Y-15901202D01*
X49692641Y-15898653D01*
X49644375Y-15879955D01*
X49603838Y-15864250D01*
X49602662Y-15863787D01*
X49511454Y-15827273D01*
X49509486Y-15826695D01*
X49503440Y-15825256D01*
X49502454Y-15824975D01*
X49405413Y-15806834D01*
X49404734Y-15806705D01*
X49305086Y-15787500D01*
X49305085Y-15787500D01*
X49301976Y-15787500D01*
X49098024Y-15787500D01*
X49098017Y-15787500D01*
X49051734Y-15796151D01*
X49040742Y-15797700D01*
X48990785Y-15802471D01*
X48949223Y-15814674D01*
X48937081Y-15817584D01*
X48903524Y-15823857D01*
X48897544Y-15824976D01*
X48897541Y-15824976D01*
X48897534Y-15824979D01*
X48850437Y-15843224D01*
X48840582Y-15846573D01*
X48789136Y-15861679D01*
X48789115Y-15861688D01*
X48753680Y-15879955D01*
X48741662Y-15885363D01*
X48707361Y-15898652D01*
X48661492Y-15927053D01*
X48653038Y-15931839D01*
X48602322Y-15957986D01*
X48573674Y-15980514D01*
X48562306Y-15988466D01*
X48533959Y-16006018D01*
X48533956Y-16006020D01*
X48491537Y-16044690D01*
X48484652Y-16050522D01*
X48437116Y-16087904D01*
X48437114Y-16087906D01*
X48415507Y-16112842D01*
X48405337Y-16123271D01*
X48383239Y-16143416D01*
X48346577Y-16191964D01*
X48341338Y-16198436D01*
X48299483Y-16246740D01*
X48284702Y-16272341D01*
X48276274Y-16285060D01*
X48260326Y-16306180D01*
X48231688Y-16363691D01*
X48228077Y-16370415D01*
X48194397Y-16428752D01*
X48194395Y-16428757D01*
X48185854Y-16453435D01*
X48179678Y-16468143D01*
X48169416Y-16488754D01*
X48169416Y-16488755D01*
X48150896Y-16553840D01*
X48148812Y-16560456D01*
X48125656Y-16627365D01*
X48125655Y-16627369D01*
X48122427Y-16649816D01*
X48118958Y-16666094D01*
X48113603Y-16684916D01*
X48113603Y-16684917D01*
X48107041Y-16755726D01*
X48106308Y-16761929D01*
X48095746Y-16835396D01*
X48095745Y-16835401D01*
X48096660Y-16854616D01*
X48096272Y-16871944D01*
X48094785Y-16888002D01*
X48094785Y-16888003D01*
X43919037Y-16888003D01*
X43983350Y-16802093D01*
X43983354Y-16802086D01*
X44033596Y-16667379D01*
X44033598Y-16667372D01*
X44039999Y-16607844D01*
X44040000Y-16607827D01*
X44040000Y-15960000D01*
X43123686Y-15960000D01*
X43149493Y-15919844D01*
X43190000Y-15781889D01*
X43190000Y-15638111D01*
X43149493Y-15500156D01*
X43123686Y-15460000D01*
X44040000Y-15460000D01*
X44040000Y-14812172D01*
X44039999Y-14812155D01*
X44033598Y-14752627D01*
X44033596Y-14752620D01*
X43983354Y-14617913D01*
X43983350Y-14617906D01*
X43897190Y-14502812D01*
X43897187Y-14502809D01*
X43782093Y-14416649D01*
X43782088Y-14416646D01*
X43650528Y-14367577D01*
X43594595Y-14325705D01*
X43570178Y-14260241D01*
X43585030Y-14191968D01*
X43606175Y-14163720D01*
X43728495Y-14041401D01*
X43864035Y-13847830D01*
X43963903Y-13633663D01*
X44025063Y-13405408D01*
X44045659Y-13170000D01*
X44025063Y-12934592D01*
X43963903Y-12706337D01*
X43864035Y-12492171D01*
X43728495Y-12298599D01*
X43728494Y-12298597D01*
X43561402Y-12131506D01*
X43561396Y-12131501D01*
X43375842Y-12001575D01*
X43332217Y-11946998D01*
X43325023Y-11877500D01*
X43356546Y-11815145D01*
X43375842Y-11798425D01*
X43398026Y-11782891D01*
X43561401Y-11668495D01*
X43728495Y-11501401D01*
X43864035Y-11307830D01*
X43963903Y-11093663D01*
X44025063Y-10865408D01*
X44045659Y-10630000D01*
X44025063Y-10394592D01*
X43963903Y-10166337D01*
X43864035Y-9952171D01*
X43854067Y-9937934D01*
X43728494Y-9758597D01*
X43561402Y-9591506D01*
X43561396Y-9591501D01*
X43375842Y-9461575D01*
X43332217Y-9406998D01*
X43325023Y-9337500D01*
X43356546Y-9275145D01*
X43375842Y-9258425D01*
X43398026Y-9242891D01*
X43561401Y-9128495D01*
X43728495Y-8961401D01*
X43864035Y-8767830D01*
X43963903Y-8553663D01*
X44025063Y-8325408D01*
X44045659Y-8090000D01*
X44025063Y-7854592D01*
X43963903Y-7626337D01*
X43864035Y-7412171D01*
X43728495Y-7218599D01*
X43728494Y-7218597D01*
X43561402Y-7051506D01*
X43561396Y-7051501D01*
X43375842Y-6921575D01*
X43332217Y-6866998D01*
X43325023Y-6797500D01*
X43356546Y-6735145D01*
X43375842Y-6718425D01*
X43398026Y-6702891D01*
X43561401Y-6588495D01*
X43728495Y-6421401D01*
X43864035Y-6227830D01*
X43963903Y-6013663D01*
X44025063Y-5785408D01*
X44045659Y-5550000D01*
X44025063Y-5314592D01*
X43963903Y-5086337D01*
X43864035Y-4872171D01*
X43756099Y-4718021D01*
X43728494Y-4678597D01*
X43561402Y-4511506D01*
X43561396Y-4511501D01*
X43375842Y-4381575D01*
X43332217Y-4326998D01*
X43325023Y-4257500D01*
X43356546Y-4195145D01*
X43375842Y-4178425D01*
X43398026Y-4162891D01*
X43561401Y-4048495D01*
X43728495Y-3881401D01*
X43864035Y-3687830D01*
X43963903Y-3473663D01*
X44025063Y-3245408D01*
X44045659Y-3010000D01*
X44025063Y-2774592D01*
X43976331Y-2592720D01*
X43963905Y-2546344D01*
X43963904Y-2546343D01*
X43963903Y-2546337D01*
X43864035Y-2332171D01*
X43844224Y-2303877D01*
X43728494Y-2138597D01*
X43561402Y-1971506D01*
X43561395Y-1971501D01*
X43367834Y-1835967D01*
X43367830Y-1835965D01*
X43350755Y-1828003D01*
X48094785Y-1828003D01*
X48101661Y-1902214D01*
X48102049Y-1907752D01*
X48105745Y-1985328D01*
X48105746Y-1985330D01*
X48109468Y-2000675D01*
X48112433Y-2018458D01*
X48113603Y-2031083D01*
X48129464Y-2086830D01*
X48134945Y-2106094D01*
X48136182Y-2110792D01*
X48155292Y-2189566D01*
X48155297Y-2189579D01*
X48160421Y-2200799D01*
X48166891Y-2218369D01*
X48169418Y-2227250D01*
X48205727Y-2300170D01*
X48207496Y-2303877D01*
X48242605Y-2380756D01*
X48247753Y-2387984D01*
X48257748Y-2404643D01*
X48260327Y-2409821D01*
X48311494Y-2477577D01*
X48313475Y-2480277D01*
X48364514Y-2551952D01*
X48368443Y-2555698D01*
X48381822Y-2570707D01*
X48383236Y-2572579D01*
X48448541Y-2632111D01*
X48450504Y-2633943D01*
X48483578Y-2665478D01*
X48516623Y-2696987D01*
X48518285Y-2698055D01*
X48529352Y-2706559D01*
X48529380Y-2706523D01*
X48533951Y-2709974D01*
X48533959Y-2709981D01*
X48596495Y-2748701D01*
X48611946Y-2758268D01*
X48613709Y-2759380D01*
X48693429Y-2810614D01*
X48698684Y-2813323D01*
X48698647Y-2813394D01*
X48702064Y-2815120D01*
X48702229Y-2814791D01*
X48707354Y-2817342D01*
X48707363Y-2817348D01*
X48707371Y-2817351D01*
X48796091Y-2851722D01*
X48797352Y-2852217D01*
X48888543Y-2888725D01*
X48888545Y-2888725D01*
X48888547Y-2888726D01*
X48890532Y-2889309D01*
X48896585Y-2890750D01*
X48897526Y-2891017D01*
X48897544Y-2891024D01*
X48994595Y-2909165D01*
X48995010Y-2909244D01*
X49094915Y-2928500D01*
X49301976Y-2928500D01*
X49348258Y-2919847D01*
X49359236Y-2918300D01*
X49409218Y-2913528D01*
X49450791Y-2901320D01*
X49462908Y-2898415D01*
X49502456Y-2891024D01*
X49549588Y-2872764D01*
X49559405Y-2869428D01*
X49610875Y-2854316D01*
X49646329Y-2836037D01*
X49658332Y-2830637D01*
X49692637Y-2817348D01*
X49738509Y-2788943D01*
X49746955Y-2784160D01*
X49797682Y-2758011D01*
X49826337Y-2735474D01*
X49837695Y-2727531D01*
X49866041Y-2709981D01*
X49908466Y-2671304D01*
X49915326Y-2665492D01*
X49962886Y-2628092D01*
X49984496Y-2603150D01*
X49994657Y-2592730D01*
X50016764Y-2572579D01*
X50053429Y-2524024D01*
X50058650Y-2517572D01*
X50100519Y-2469256D01*
X50115299Y-2443653D01*
X50123724Y-2430938D01*
X50139673Y-2409821D01*
X50168333Y-2352260D01*
X50171911Y-2345598D01*
X50205604Y-2287244D01*
X50214146Y-2262563D01*
X50220323Y-2247851D01*
X50230582Y-2227250D01*
X50249110Y-2162127D01*
X50251186Y-2155542D01*
X50257051Y-2138597D01*
X50274344Y-2088633D01*
X50277570Y-2066186D01*
X50281039Y-2049911D01*
X50286397Y-2031083D01*
X50292958Y-1960259D01*
X50293685Y-1954100D01*
X50304254Y-1880602D01*
X50303339Y-1861399D01*
X50303727Y-1844052D01*
X50305215Y-1828000D01*
X50298336Y-1753773D01*
X50297948Y-1748240D01*
X50294254Y-1670669D01*
X50290534Y-1655338D01*
X50287565Y-1637531D01*
X50286397Y-1624917D01*
X50265054Y-1549905D01*
X50263823Y-1545233D01*
X50244704Y-1466424D01*
X50239579Y-1455202D01*
X50233107Y-1437627D01*
X50230582Y-1428750D01*
X50200708Y-1368756D01*
X50194298Y-1355882D01*
X50192504Y-1352122D01*
X50161042Y-1283231D01*
X50157396Y-1275247D01*
X50152243Y-1268011D01*
X50142249Y-1251353D01*
X50139673Y-1246179D01*
X50139671Y-1246177D01*
X50139670Y-1246174D01*
X50088542Y-1178471D01*
X50086488Y-1175671D01*
X50035486Y-1104048D01*
X50031552Y-1100297D01*
X50018175Y-1085289D01*
X50016765Y-1083422D01*
X50016764Y-1083421D01*
X49951461Y-1023890D01*
X49949490Y-1022052D01*
X49883378Y-959014D01*
X49881708Y-957940D01*
X49870647Y-949441D01*
X49870621Y-949477D01*
X49866048Y-946024D01*
X49866042Y-946020D01*
X49866041Y-946019D01*
X49788044Y-897725D01*
X49786290Y-896619D01*
X49768439Y-885147D01*
X49706572Y-845387D01*
X49706569Y-845386D01*
X49706568Y-845385D01*
X49701321Y-842680D01*
X49701356Y-842610D01*
X49697920Y-840874D01*
X49697758Y-841202D01*
X49692641Y-838653D01*
X49644375Y-819955D01*
X49603838Y-804250D01*
X49602662Y-803787D01*
X49511454Y-767273D01*
X49509486Y-766695D01*
X49503440Y-765256D01*
X49502454Y-764975D01*
X49405413Y-746834D01*
X49404734Y-746705D01*
X49305086Y-727500D01*
X49305085Y-727500D01*
X49301976Y-727500D01*
X49098024Y-727500D01*
X49098017Y-727500D01*
X49051734Y-736151D01*
X49040742Y-737700D01*
X48990785Y-742471D01*
X48949223Y-754674D01*
X48937081Y-757584D01*
X48903524Y-763857D01*
X48897544Y-764976D01*
X48897541Y-764976D01*
X48897534Y-764979D01*
X48850437Y-783224D01*
X48840582Y-786573D01*
X48789136Y-801679D01*
X48789115Y-801688D01*
X48753680Y-819955D01*
X48741662Y-825363D01*
X48707361Y-838652D01*
X48661492Y-867053D01*
X48653038Y-871839D01*
X48602322Y-897986D01*
X48573674Y-920514D01*
X48562306Y-928466D01*
X48533959Y-946018D01*
X48533956Y-946020D01*
X48491537Y-984690D01*
X48484652Y-990522D01*
X48437116Y-1027904D01*
X48437114Y-1027906D01*
X48415507Y-1052842D01*
X48405337Y-1063271D01*
X48383239Y-1083416D01*
X48346577Y-1131964D01*
X48341338Y-1138436D01*
X48299483Y-1186740D01*
X48284702Y-1212341D01*
X48276274Y-1225060D01*
X48260326Y-1246180D01*
X48231688Y-1303691D01*
X48228077Y-1310415D01*
X48194397Y-1368752D01*
X48194395Y-1368757D01*
X48185854Y-1393435D01*
X48179678Y-1408143D01*
X48169416Y-1428754D01*
X48169416Y-1428755D01*
X48150896Y-1493840D01*
X48148812Y-1500456D01*
X48125656Y-1567365D01*
X48125655Y-1567369D01*
X48122427Y-1589816D01*
X48118958Y-1606094D01*
X48113603Y-1624916D01*
X48113603Y-1624917D01*
X48107041Y-1695726D01*
X48106308Y-1701929D01*
X48095746Y-1775396D01*
X48095745Y-1775401D01*
X48096660Y-1794616D01*
X48096272Y-1811944D01*
X48094785Y-1828002D01*
X48094785Y-1828003D01*
X43350755Y-1828003D01*
X43237950Y-1775401D01*
X43153663Y-1736097D01*
X43153659Y-1736096D01*
X43153655Y-1736094D01*
X42925413Y-1674938D01*
X42925403Y-1674936D01*
X42690001Y-1654341D01*
X42689999Y-1654341D01*
X42454596Y-1674936D01*
X42454586Y-1674938D01*
X42226344Y-1736094D01*
X42226335Y-1736098D01*
X42012171Y-1835964D01*
X42012169Y-1835965D01*
X41818600Y-1971503D01*
X41703273Y-2086830D01*
X41641950Y-2120314D01*
X41572258Y-2115330D01*
X41516325Y-2073458D01*
X41491908Y-2007994D01*
X41491908Y-1990313D01*
X41507674Y-1769857D01*
X41510190Y-1752360D01*
X41559483Y-1525766D01*
X41564460Y-1508815D01*
X41645501Y-1291536D01*
X41652851Y-1275444D01*
X41705802Y-1178471D01*
X41763981Y-1071923D01*
X41773537Y-1057054D01*
X41912506Y-871413D01*
X41924080Y-858056D01*
X42088056Y-694080D01*
X42101413Y-682506D01*
X42287054Y-543537D01*
X42301923Y-533981D01*
X42505444Y-422850D01*
X42521537Y-415501D01*
X42738815Y-334460D01*
X42755766Y-329483D01*
X42982360Y-280190D01*
X42999857Y-277674D01*
X43235582Y-260816D01*
X43244428Y-260500D01*
X43284170Y-260500D01*
X55975830Y-260500D01*
X56015572Y-260500D01*
X56024418Y-260816D01*
G37*
%TD.AperFunction*%
%TD*%
%TA.AperFunction,Conductor*%
%TO.N,/EEPROM-SOIC8-3.3V*%
G36*
X9089773Y-38465416D02*
G01*
X9092627Y-38470072D01*
X9270022Y-39015800D01*
X9269320Y-39024727D01*
X9263401Y-39030215D01*
X8954506Y-39159119D01*
X8945551Y-39159142D01*
X8945494Y-39159119D01*
X8636279Y-39030082D01*
X8629964Y-39023733D01*
X8629547Y-39016029D01*
X8629614Y-39015800D01*
X8787554Y-38470433D01*
X8793147Y-38463441D01*
X8798792Y-38461989D01*
X9081500Y-38461989D01*
X9089773Y-38465416D01*
G37*
%TD.AperFunction*%
%TD*%
%TA.AperFunction,Conductor*%
%TO.N,/EEPROM-SOIC8-3.3V*%
G36*
X8944478Y-35970868D02*
G01*
X9158891Y-36060344D01*
X9253571Y-36099855D01*
X9259886Y-36106204D01*
X9260252Y-36114079D01*
X9092534Y-36661726D01*
X9086835Y-36668633D01*
X9081347Y-36670000D01*
X8798653Y-36670000D01*
X8790380Y-36666573D01*
X8787466Y-36661726D01*
X8619747Y-36114079D01*
X8620601Y-36105165D01*
X8626427Y-36099855D01*
X8935494Y-35970879D01*
X8944449Y-35970857D01*
X8944478Y-35970868D01*
G37*
%TD.AperFunction*%
%TD*%
%TA.AperFunction,Conductor*%
%TO.N,/EEPROM-TSSOP8-3.3V*%
G36*
X32916449Y-32410092D02*
G01*
X33226191Y-32537436D01*
X33232540Y-32543751D01*
X33232563Y-32543808D01*
X33359906Y-32853549D01*
X33359883Y-32862504D01*
X33354573Y-32868331D01*
X32848734Y-33136981D01*
X32839820Y-33137835D01*
X32834973Y-33134921D01*
X32635078Y-32935026D01*
X32631651Y-32926753D01*
X32633016Y-32921269D01*
X32901668Y-32415425D01*
X32908575Y-32409727D01*
X32916449Y-32410092D01*
G37*
%TD.AperFunction*%
%TD*%
%TA.AperFunction,Conductor*%
%TO.N,/EEPROM-TSSOP8-3.3V*%
G36*
X29588954Y-35980996D02*
G01*
X29788857Y-36180899D01*
X29792284Y-36189172D01*
X29790857Y-36194771D01*
X29518377Y-36694728D01*
X29511409Y-36700352D01*
X29503655Y-36699950D01*
X29490953Y-36694728D01*
X29375627Y-36647314D01*
X29193808Y-36572563D01*
X29187460Y-36566249D01*
X29060142Y-36256568D01*
X29060165Y-36247615D01*
X29065600Y-36241722D01*
X29575321Y-35978869D01*
X29584242Y-35978124D01*
X29588954Y-35980996D01*
G37*
%TD.AperFunction*%
%TD*%
%TA.AperFunction,Conductor*%
%TO.N,/EEPROM-TSSOP8-3.3V*%
G36*
X29194478Y-36570868D02*
G01*
X29408891Y-36660344D01*
X29503571Y-36699855D01*
X29509886Y-36706204D01*
X29510252Y-36714079D01*
X29342534Y-37261726D01*
X29336835Y-37268633D01*
X29331347Y-37270000D01*
X29048653Y-37270000D01*
X29040380Y-37266573D01*
X29037466Y-37261726D01*
X28869747Y-36714079D01*
X28870601Y-36705165D01*
X28876427Y-36699855D01*
X29185494Y-36570879D01*
X29194449Y-36570857D01*
X29194478Y-36570868D01*
G37*
%TD.AperFunction*%
%TD*%
%TA.AperFunction,Conductor*%
%TO.N,/EEPROM-TSSOP8-3.3V*%
G36*
X29339620Y-37553427D02*
G01*
X29342534Y-37558274D01*
X29510252Y-38105920D01*
X29509398Y-38114834D01*
X29503571Y-38120144D01*
X29194506Y-38249119D01*
X29185551Y-38249142D01*
X29185494Y-38249119D01*
X28876428Y-38120144D01*
X28870113Y-38113795D01*
X28869747Y-38105922D01*
X29037466Y-37558273D01*
X29043165Y-37551367D01*
X29048653Y-37550000D01*
X29331347Y-37550000D01*
X29339620Y-37553427D01*
G37*
%TD.AperFunction*%
%TD*%
%TA.AperFunction,Conductor*%
%TO.N,/Flash-WSON8-3.3V*%
G36*
X52879773Y-36765416D02*
G01*
X52882627Y-36770072D01*
X53060022Y-37315800D01*
X53059320Y-37324727D01*
X53053401Y-37330215D01*
X52744506Y-37459119D01*
X52735551Y-37459142D01*
X52735494Y-37459119D01*
X52426279Y-37330082D01*
X52419964Y-37323733D01*
X52419547Y-37316029D01*
X52419614Y-37315800D01*
X52577554Y-36770433D01*
X52583147Y-36763441D01*
X52588792Y-36761989D01*
X52871500Y-36761989D01*
X52879773Y-36765416D01*
G37*
%TD.AperFunction*%
%TD*%
%TA.AperFunction,Conductor*%
%TO.N,/Flash-WSON8-3.3V*%
G36*
X49183142Y-30919854D02*
G01*
X49188581Y-30924489D01*
X49480189Y-31395060D01*
X49481634Y-31403897D01*
X49478517Y-31409496D01*
X49278610Y-31609403D01*
X49270337Y-31612830D01*
X49265607Y-31611831D01*
X48736486Y-31377965D01*
X48730304Y-31371486D01*
X48730394Y-31362816D01*
X48857437Y-31053806D01*
X48863748Y-31047461D01*
X49174188Y-30919831D01*
X49183142Y-30919854D01*
G37*
%TD.AperFunction*%
%TD*%
%TA.AperFunction,Conductor*%
%TO.N,/Flash-WSON8-3.3V*%
G36*
X49266814Y-30472834D02*
G01*
X49466725Y-30672745D01*
X49470152Y-30681018D01*
X49468600Y-30686841D01*
X49188464Y-31175039D01*
X49181374Y-31180509D01*
X49173867Y-31180037D01*
X48863808Y-31052563D01*
X48857460Y-31046249D01*
X48730242Y-30736811D01*
X48730265Y-30727857D01*
X48735951Y-30721839D01*
X49253431Y-30470581D01*
X49262370Y-30470051D01*
X49266814Y-30472834D01*
G37*
%TD.AperFunction*%
%TD*%
%TA.AperFunction,Conductor*%
%TO.N,/Flash-WSON8-3.3V*%
G36*
X53426449Y-26070092D02*
G01*
X53736191Y-26197436D01*
X53742540Y-26203751D01*
X53742563Y-26203808D01*
X53869906Y-26513549D01*
X53869883Y-26522504D01*
X53864573Y-26528331D01*
X53358734Y-26796981D01*
X53349820Y-26797835D01*
X53344973Y-26794921D01*
X53145078Y-26595026D01*
X53141651Y-26586753D01*
X53143016Y-26581269D01*
X53411668Y-26075425D01*
X53418575Y-26069727D01*
X53426449Y-26070092D01*
G37*
%TD.AperFunction*%
%TD*%
%TA.AperFunction,Conductor*%
%TO.N,/SPI{slash}SDIO-3.3V*%
G36*
X13926649Y-7918418D02*
G01*
X13932968Y-7924763D01*
X13933557Y-7931816D01*
X13772073Y-8640898D01*
X13766895Y-8648204D01*
X13760665Y-8650000D01*
X13279335Y-8650000D01*
X13271062Y-8646573D01*
X13267927Y-8640898D01*
X13106442Y-7931816D01*
X13107946Y-7922988D01*
X13113349Y-7918418D01*
X13515501Y-7750873D01*
X13524452Y-7750855D01*
X13926649Y-7918418D01*
G37*
%TD.AperFunction*%
%TD*%
%TA.AperFunction,Conductor*%
%TO.N,/SPI{slash}SDIO-3.3V*%
G36*
X13768938Y-12003427D02*
G01*
X13772073Y-12009102D01*
X13933557Y-12718183D01*
X13932053Y-12727011D01*
X13926649Y-12731581D01*
X13524500Y-12899125D01*
X13515545Y-12899144D01*
X13515500Y-12899125D01*
X13113350Y-12731581D01*
X13107031Y-12725236D01*
X13106442Y-12718183D01*
X13267927Y-12009102D01*
X13273105Y-12001796D01*
X13279335Y-12000000D01*
X13760665Y-12000000D01*
X13768938Y-12003427D01*
G37*
%TD.AperFunction*%
%TD*%
%TA.AperFunction,Conductor*%
%TO.N,/SPI{slash}SDIO-3.3V*%
G36*
X13347011Y-7337946D02*
G01*
X13351581Y-7343350D01*
X13519125Y-7745500D01*
X13519144Y-7754455D01*
X13519125Y-7754500D01*
X13351581Y-8156649D01*
X13345236Y-8162968D01*
X13338183Y-8163557D01*
X12629102Y-8002072D01*
X12621796Y-7996894D01*
X12620000Y-7990664D01*
X12620000Y-7509335D01*
X12623427Y-7501062D01*
X12629101Y-7497927D01*
X13338183Y-7336442D01*
X13347011Y-7337946D01*
G37*
%TD.AperFunction*%
%TD*%
%TA.AperFunction,Conductor*%
%TO.N,/SPI{slash}SDIO-3.3V*%
G36*
X8333311Y-7401901D02*
G01*
X9009955Y-7498565D01*
X9017660Y-7503127D01*
X9020000Y-7510147D01*
X9020000Y-7989853D01*
X9016573Y-7998126D01*
X9009955Y-8001435D01*
X8333316Y-8098097D01*
X8324641Y-8095875D01*
X8320079Y-8088170D01*
X8319961Y-8086556D01*
X8319000Y-7750000D01*
X8319961Y-7413449D01*
X8323412Y-7405187D01*
X8331694Y-7401784D01*
X8333311Y-7401901D01*
G37*
%TD.AperFunction*%
%TD*%
%TA.AperFunction,Conductor*%
%TO.N,/SPI{slash}SDIO-3.3V*%
G36*
X8324478Y-7750868D02*
G01*
X8634354Y-7880181D01*
X8640669Y-7886530D01*
X8641280Y-7893470D01*
X8522007Y-8440791D01*
X8516897Y-8448145D01*
X8510575Y-8450000D01*
X8129425Y-8450000D01*
X8121152Y-8446573D01*
X8117993Y-8440791D01*
X7998719Y-7893470D01*
X8000306Y-7884657D01*
X8005642Y-7880182D01*
X8315494Y-7750879D01*
X8324449Y-7750857D01*
X8324478Y-7750868D01*
G37*
%TD.AperFunction*%
%TD*%
%TA.AperFunction,Conductor*%
%TO.N,/SPI{slash}SDIO-3.3V*%
G36*
X8518848Y-17843427D02*
G01*
X8522007Y-17849209D01*
X8641280Y-18396529D01*
X8639693Y-18405342D01*
X8634354Y-18409818D01*
X8324506Y-18539119D01*
X8315551Y-18539142D01*
X8315494Y-18539119D01*
X8005645Y-18409818D01*
X7999330Y-18403469D01*
X7998719Y-18396529D01*
X8117993Y-17849209D01*
X8123103Y-17841855D01*
X8129425Y-17840000D01*
X8510575Y-17840000D01*
X8518848Y-17843427D01*
G37*
%TD.AperFunction*%
%TD*%
M02*
