%TF.GenerationSoftware,KiCad,Pcbnew,7.0.9*%
%TF.CreationDate,2024-01-07T22:37:45+08:00*%
%TF.ProjectId,UINIO-Storage,55494e49-4f2d-4537-946f-726167652e6b,Version 1.0.0*%
%TF.SameCoordinates,PX75da690PY4f4f778*%
%TF.FileFunction,Profile,NP*%
%FSLAX46Y46*%
G04 Gerber Fmt 4.6, Leading zero omitted, Abs format (unit mm)*
G04 Created by KiCad (PCBNEW 7.0.9) date 2024-01-07 22:37:45*
%MOMM*%
%LPD*%
G01*
G04 APERTURE LIST*
%TA.AperFunction,Profile*%
%ADD10C,0.100000*%
%TD*%
G04 APERTURE END LIST*
D10*
X43252000Y-23347000D02*
G75*
G03*
X41252000Y-25347000I0J-2000000D01*
G01*
X7692000Y-28577000D02*
X14772000Y-28577000D01*
X16772000Y-38602000D02*
X21802000Y-38602000D01*
X41252000Y-40047000D02*
X41252000Y-25347000D01*
X52752000Y-18707000D02*
X56032000Y-18707000D01*
X-2000000Y-21674000D02*
G75*
G03*
X0Y-23674000I2000000J0D01*
G01*
X35982000Y-2000000D02*
G75*
G03*
X33982000Y0I-2000000J0D01*
G01*
X16772000Y-30577000D02*
X16772000Y-32072000D01*
X56032000Y-42047000D02*
X43252000Y-42047000D01*
X33982000Y-23674000D02*
X28782000Y-23677000D01*
X21802000Y-40047000D02*
X21802000Y-38602000D01*
X41252000Y-40047000D02*
G75*
G03*
X43252000Y-42047000I2000000J0D01*
G01*
X41252000Y-16707000D02*
G75*
G03*
X43252000Y-18707000I2000000J0D01*
G01*
X23802000Y-28577000D02*
X30967000Y-28577000D01*
X43252000Y-23347000D02*
X46222000Y-23347000D01*
X43252000Y-18707000D02*
X46222000Y-18707000D01*
X40572000Y-30577000D02*
G75*
G03*
X38572000Y-28577000I-2000000J0D01*
G01*
X21802000Y-40047000D02*
G75*
G03*
X23802000Y-42047000I2000000J0D01*
G01*
X0Y0D02*
X33982000Y0D01*
X52752000Y-18707000D02*
X52752000Y-23347000D01*
X2000Y-28577000D02*
X1912000Y-28577000D01*
X35982000Y-21674000D02*
X35982000Y-10127000D01*
X58032000Y-2007000D02*
X58032000Y-16707000D01*
X21802000Y-30577000D02*
X21802000Y-32072000D01*
X2000Y-28577000D02*
G75*
G03*
X-1998000Y-30577000I0J-2000000D01*
G01*
X1912000Y-23677000D02*
X1912000Y-28577000D01*
X58032000Y-2007000D02*
G75*
G03*
X56032000Y-7000I-2000000J0D01*
G01*
X-1998000Y-40047000D02*
G75*
G03*
X2000Y-42047000I2000000J0D01*
G01*
X23802000Y-28577000D02*
G75*
G03*
X21802000Y-30577000I0J-2000000D01*
G01*
X41252000Y-2007000D02*
X41252000Y-4347000D01*
X58032000Y-25347000D02*
G75*
G03*
X56032000Y-23347000I-2000000J0D01*
G01*
X28782000Y-23677000D02*
X7692000Y-23677000D01*
X-2000000Y-21674000D02*
X-2000000Y-2000000D01*
X56032000Y-42047000D02*
G75*
G03*
X58032000Y-40047000I0J2000000D01*
G01*
X14772000Y-42047000D02*
X2000Y-42047000D01*
X16772000Y-30577000D02*
G75*
G03*
X14772000Y-28577000I-2000000J0D01*
G01*
X43252000Y-7000D02*
G75*
G03*
X41252000Y-2007000I0J-2000000D01*
G01*
X-1998000Y-40047000D02*
X-1998000Y-30577000D01*
X16772000Y-32072000D02*
X21802000Y-32072000D01*
X33982000Y-23674000D02*
G75*
G03*
X35982000Y-21674000I0J2000000D01*
G01*
X0Y0D02*
G75*
G03*
X-2000000Y-2000000I0J-2000000D01*
G01*
X52752000Y-23347000D02*
X56032000Y-23347000D01*
X46222000Y-18707000D02*
X46222000Y-23347000D01*
X30967000Y-28577000D02*
X38572000Y-28577000D01*
X16772000Y-40047000D02*
X16772000Y-38602000D01*
X43252000Y-7000D02*
X56032000Y-7000D01*
X38572000Y-42047000D02*
X23802000Y-42047000D01*
X38572000Y-42047000D02*
G75*
G03*
X40572000Y-40047000I0J2000000D01*
G01*
X35982000Y-10127000D02*
X41252000Y-10127000D01*
X1912000Y-23677000D02*
X0Y-23674000D01*
X56032000Y-18707000D02*
G75*
G03*
X58032000Y-16707000I0J2000000D01*
G01*
X14772000Y-42047000D02*
G75*
G03*
X16772000Y-40047000I0J2000000D01*
G01*
X41252000Y-10127000D02*
X41252000Y-16707000D01*
X58032000Y-25347000D02*
X58032000Y-40047000D01*
X35982000Y-4347000D02*
X35982000Y-2000000D01*
X7692000Y-23677000D02*
X7692000Y-28577000D01*
X40572000Y-30577000D02*
X40572000Y-40047000D01*
X35982000Y-4347000D02*
X41252000Y-4347000D01*
M02*
